<svg width="613" height="193" viewBox="0 0 613 193" fill="none" xmlns="http://www.w3.org/2000/svg">
<rect x="235" y="1" width="229" height="191" rx="12" fill="#FAFAFC" stroke="#BABABF" stroke-width="1.5" stroke-linecap="round" stroke-dasharray="0.5 5"/>
<rect x="1" y="87" width="73" height="38" rx="10" fill="#F1F1F7"/>
<path d="M24.474 110.168C26.364 110.168 27.512 109.188 28.226 108.068L26.826 107.354C26.378 108.138 25.482 108.712 24.474 108.712C22.626 108.712 21.254 107.298 21.254 105.338C21.254 103.378 22.626 101.964 24.474 101.964C25.482 101.964 26.378 102.552 26.826 103.322L28.226 102.608C27.526 101.488 26.364 100.508 24.474 100.508C21.716 100.508 19.574 102.468 19.574 105.338C19.574 108.208 21.716 110.168 24.474 110.168ZM30.965 110V100.662H29.495V110H30.965ZM33.5999 102.412C34.1039 102.412 34.5099 102.006 34.5099 101.502C34.5099 100.998 34.1039 100.592 33.5999 100.592C33.1099 100.592 32.6899 100.998 32.6899 101.502C32.6899 102.006 33.1099 102.412 33.5999 102.412ZM34.3419 110V103.238H32.8719V110H34.3419ZM39.3709 110.168C40.4489 110.168 41.4429 109.832 42.1149 109.188L41.4429 108.222C40.9669 108.698 40.1829 108.964 39.5249 108.964C38.2509 108.964 37.4809 108.124 37.3689 107.102H42.5909V106.752C42.5909 104.624 41.2889 103.07 39.2589 103.07C37.2569 103.07 35.8289 104.652 35.8289 106.612C35.8289 108.754 37.3409 110.168 39.3709 110.168ZM41.1629 106.066H37.3549C37.4249 105.24 37.9989 104.274 39.2589 104.274C40.5889 104.274 41.1349 105.268 41.1629 106.066ZM50.0758 110V105.24C50.0758 103.854 49.3478 103.07 47.8918 103.07C46.8278 103.07 45.9598 103.63 45.5118 104.162V103.238H44.0418V110H45.5118V105.282C45.8478 104.82 46.4918 104.372 47.2478 104.372C48.0738 104.372 48.6058 104.722 48.6058 105.772V110H50.0758ZM54.0152 110.168C54.7012 110.168 55.1352 109.986 55.4012 109.734L55.0512 108.628C54.9392 108.754 54.6732 108.866 54.3932 108.866C53.9732 108.866 53.7492 108.53 53.7492 108.068V104.526H55.1212V103.238H53.7492V101.39H52.2792V103.238H51.1592V104.526H52.2792V108.432C52.2792 109.552 52.8812 110.168 54.0152 110.168Z" fill="#111921"/>
<rect x="1" y="87" width="73" height="38" rx="10" stroke="#111921"/>
<path fill-rule="evenodd" clip-rule="evenodd" d="M191.882 125C202.863 125 211.765 116.098 211.765 105.118C211.765 94.1369 202.863 85.2353 191.882 85.2353C189.811 85.2353 187.813 85.5521 185.935 86.14C181.46 78.2914 173.015 73 163.333 73C149.522 73 138.227 83.7684 137.384 97.3671C136.306 97.1016 135.179 96.9608 134.02 96.9608C126.277 96.9608 120 103.238 120 110.98C120 118.723 126.277 125 134.02 125C134.105 125 134.19 124.999 134.275 124.998V125L191.882 125Z" fill="#F1F1F7"/>
<path d="M191.882 125V124.5V125ZM185.935 86.14L185.501 86.3876L185.701 86.7374L186.085 86.6171L185.935 86.14ZM137.384 97.3671L137.264 97.8526L137.846 97.9958L137.883 97.398L137.384 97.3671ZM134.275 124.998H134.775V124.489L134.266 124.498L134.275 124.998ZM134.275 125H133.775V125.5H134.275L134.275 125ZM191.882 125.5C203.139 125.5 212.265 116.375 212.265 105.118H211.265C211.265 115.822 202.587 124.5 191.882 124.5V125.5ZM212.265 105.118C212.265 93.8608 203.139 84.7353 191.882 84.7353V85.7353C202.587 85.7353 211.265 94.4131 211.265 105.118H212.265ZM191.882 84.7353C189.76 84.7353 187.712 85.06 185.786 85.6628L186.085 86.6171C187.915 86.0443 189.862 85.7353 191.882 85.7353V84.7353ZM186.37 85.8923C181.809 77.8941 173.202 72.5 163.333 72.5V73.5C172.828 73.5 181.111 78.6887 185.501 86.3876L186.37 85.8923ZM163.333 72.5C149.257 72.5 137.744 83.4755 136.885 97.3361L137.883 97.398C138.709 84.0613 149.788 73.5 163.333 73.5V72.5ZM137.503 96.8816C136.387 96.6066 135.22 96.4608 134.02 96.4608V97.4608C135.139 97.4608 136.225 97.5967 137.264 97.8526L137.503 96.8816ZM134.02 96.4608C126.001 96.4608 119.5 102.961 119.5 110.98H120.5C120.5 103.514 126.553 97.4608 134.02 97.4608V96.4608ZM119.5 110.98C119.5 118.999 126.001 125.5 134.02 125.5V124.5C126.553 124.5 120.5 118.447 120.5 110.98H119.5ZM134.02 125.5C134.108 125.5 134.196 125.499 134.283 125.498L134.266 124.498C134.184 124.499 134.102 124.5 134.02 124.5V125.5ZM134.775 125V124.998H133.775V125H134.775ZM191.882 124.5L134.275 124.5L134.275 125.5L191.882 125.5V124.5Z" fill="#111921"/>
<path d="M144.514 113.3V103.962H142.876V113.3H144.514ZM152.491 113.3V108.54C152.491 107.154 151.763 106.37 150.307 106.37C149.243 106.37 148.375 106.93 147.927 107.462V106.538H146.457V113.3H147.927V108.582C148.263 108.12 148.907 107.672 149.663 107.672C150.489 107.672 151.021 108.022 151.021 109.072V113.3H152.491ZM156.431 113.468C157.117 113.468 157.551 113.286 157.817 113.034L157.467 111.928C157.355 112.054 157.089 112.166 156.809 112.166C156.389 112.166 156.165 111.83 156.165 111.368V107.826H157.537V106.538H156.165V104.69H154.695V106.538H153.575V107.826H154.695V111.732C154.695 112.852 155.297 113.468 156.431 113.468ZM161.993 113.468C163.071 113.468 164.065 113.132 164.737 112.488L164.065 111.522C163.589 111.998 162.805 112.264 162.147 112.264C160.873 112.264 160.103 111.424 159.991 110.402H165.213V110.052C165.213 107.924 163.911 106.37 161.881 106.37C159.879 106.37 158.451 107.952 158.451 109.912C158.451 112.054 159.963 113.468 161.993 113.468ZM163.785 109.366H159.977C160.047 108.54 160.621 107.574 161.881 107.574C163.211 107.574 163.757 108.568 163.785 109.366ZM168.134 113.3V108.694C168.428 108.218 169.254 107.798 169.87 107.798C170.052 107.798 170.206 107.812 170.332 107.84V106.384C169.45 106.384 168.638 106.888 168.134 107.532V106.538H166.664V113.3H168.134ZM177.552 113.3V108.54C177.552 107.154 176.824 106.37 175.368 106.37C174.304 106.37 173.436 106.93 172.988 107.462V106.538H171.518V113.3H172.988V108.582C173.324 108.12 173.968 107.672 174.724 107.672C175.55 107.672 176.082 108.022 176.082 109.072V113.3H177.552ZM182.583 113.468C183.661 113.468 184.655 113.132 185.327 112.488L184.655 111.522C184.179 111.998 183.395 112.264 182.737 112.264C181.463 112.264 180.693 111.424 180.581 110.402H185.803V110.052C185.803 107.924 184.501 106.37 182.471 106.37C180.469 106.37 179.041 107.952 179.041 109.912C179.041 112.054 180.553 113.468 182.583 113.468ZM184.375 109.366H180.567C180.637 108.54 181.211 107.574 182.471 107.574C183.801 107.574 184.347 108.568 184.375 109.366ZM189.284 113.468C189.97 113.468 190.404 113.286 190.67 113.034L190.32 111.928C190.208 112.054 189.942 112.166 189.662 112.166C189.242 112.166 189.018 111.83 189.018 111.368V107.826H190.39V106.538H189.018V104.69H187.548V106.538H186.428V107.826H187.548V111.732C187.548 112.852 188.15 113.468 189.284 113.468Z" fill="#111921"/>
<path fill-rule="evenodd" clip-rule="evenodd" d="M592 80.9998C602.927 80.9365 611.765 72.0592 611.765 61.1177C611.765 50.137 602.863 41.2354 591.882 41.2354C588.276 41.2354 584.894 42.1954 581.978 43.8739C576.927 35.0808 566.074 29 553.5 29C536.798 29 523.132 39.7293 522.067 53.2929C521.086 53.0755 520.066 52.9608 519.02 52.9608C511.277 52.9608 505 59.2376 505 66.9804C505 74.7233 511.277 81.0001 519.02 81.0001C519.034 81.0001 519.049 81 519.064 81H553.5H591.821C591.842 81.0001 591.862 81.0001 591.882 81.0001C591.903 81.0001 591.923 81.0001 591.943 81H592V80.9998Z" fill="#E9F0FD"/>
<path d="M592 80.9998L591.997 80.4998L591.5 80.5026V80.9998H592ZM581.978 43.8739L581.545 44.1229L581.794 44.5568L582.228 44.3072L581.978 43.8739ZM522.067 53.2929L521.959 53.7811L522.52 53.9056L522.565 53.3321L522.067 53.2929ZM519.064 81V80.5L519.062 80.5L519.064 81ZM591.821 81L591.823 80.5H591.821V81ZM591.943 81V80.5L591.942 80.5L591.943 81ZM592 81V81.5H592.5V81H592ZM592.003 81.4997C603.204 81.4348 612.265 72.3344 612.265 61.1177H611.265C611.265 71.784 602.649 80.4381 591.997 80.4998L592.003 81.4997ZM612.265 61.1177C612.265 49.8608 603.139 40.7354 591.882 40.7354V41.7354C602.587 41.7354 611.265 50.4131 611.265 61.1177H612.265ZM591.882 40.7354C588.186 40.7354 584.719 41.7196 581.729 43.4405L582.228 44.3072C585.07 42.6713 588.366 41.7354 591.882 41.7354V40.7354ZM582.412 43.6248C577.258 34.6537 566.225 28.5 553.5 28.5V29.5C565.923 29.5 576.596 35.5078 581.545 44.1229L582.412 43.6248ZM553.5 28.5C536.619 28.5 522.66 39.3559 521.568 53.2538L522.565 53.3321C523.604 40.1026 536.977 29.5 553.5 29.5V28.5ZM522.175 52.8048C521.159 52.5795 520.103 52.4608 519.02 52.4608V53.4608C520.029 53.4608 521.013 53.5715 521.959 53.7811L522.175 52.8048ZM519.02 52.4608C511.001 52.4608 504.5 58.9615 504.5 66.9804H505.5C505.5 59.5138 511.553 53.4608 519.02 53.4608V52.4608ZM504.5 66.9804C504.5 74.9994 511.001 81.5001 519.02 81.5001V80.5001C511.553 80.5001 505.5 74.4471 505.5 66.9804H504.5ZM519.02 81.5001C519.035 81.5001 519.05 81.5 519.066 81.5L519.062 80.5C519.048 80.5 519.034 80.5001 519.02 80.5001V81.5001ZM553.5 80.5H519.064V81.5H553.5V80.5ZM591.821 80.5H553.5V81.5H591.821V80.5ZM591.82 81.5C591.841 81.5001 591.862 81.5001 591.882 81.5001V80.5001C591.863 80.5001 591.843 80.5001 591.823 80.5L591.82 81.5ZM591.882 81.5001C591.903 81.5001 591.924 81.5001 591.945 81.5L591.942 80.5C591.922 80.5001 591.902 80.5001 591.882 80.5001V81.5001ZM592 80.5H591.943V81.5H592V80.5ZM591.5 80.9998V81H592.5V80.9998H591.5Z" fill="#5B91F5"/>
<path d="M532.474 70.168C534.364 70.168 535.512 69.188 536.226 68.068L534.826 67.354C534.378 68.138 533.482 68.712 532.474 68.712C530.626 68.712 529.254 67.298 529.254 65.338C529.254 63.378 530.626 61.964 532.474 61.964C533.482 61.964 534.378 62.552 534.826 63.322L536.226 62.608C535.526 61.488 534.364 60.508 532.474 60.508C529.716 60.508 527.574 62.468 527.574 65.338C527.574 68.208 529.716 70.168 532.474 70.168ZM540.547 70.168C542.717 70.168 544.033 68.558 544.033 66.612C544.033 64.68 542.717 63.07 540.547 63.07C538.405 63.07 537.075 64.68 537.075 66.612C537.075 68.558 538.405 70.168 540.547 70.168ZM540.547 68.866C539.301 68.866 538.601 67.816 538.601 66.612C538.601 65.422 539.301 64.372 540.547 64.372C541.807 64.372 542.507 65.422 542.507 66.612C542.507 67.816 541.807 68.866 540.547 68.866ZM546.99 70V65.394C547.284 64.918 548.11 64.498 548.726 64.498C548.908 64.498 549.062 64.512 549.188 64.54V63.084C548.306 63.084 547.494 63.588 546.99 64.232V63.238H545.52V70H546.99ZM553.496 70.168C554.574 70.168 555.568 69.832 556.24 69.188L555.568 68.222C555.092 68.698 554.308 68.964 553.65 68.964C552.376 68.964 551.606 68.124 551.494 67.102H556.716V66.752C556.716 64.624 555.414 63.07 553.384 63.07C551.382 63.07 549.954 64.652 549.954 66.612C549.954 68.754 551.466 70.168 553.496 70.168ZM555.288 66.066H551.48C551.55 65.24 552.124 64.274 553.384 64.274C554.714 64.274 555.26 65.268 555.288 66.066ZM564.423 72.086C563.499 70.364 562.995 68.796 562.995 66.598C562.995 64.4 563.499 62.832 564.423 61.096L563.513 60.41C562.197 62.034 561.399 64.344 561.399 66.598C561.399 68.852 562.197 71.176 563.513 72.786L564.423 72.086ZM567.312 70V66.514H569.776C571.722 66.514 572.828 65.17 572.828 63.588C572.828 62.006 571.736 60.662 569.776 60.662H565.674V70H567.312ZM569.552 65.072H567.312V62.104H569.552C570.476 62.104 571.148 62.692 571.148 63.588C571.148 64.484 570.476 65.072 569.552 65.072ZM580.659 70V68.558H576.515C579.021 66.668 580.603 65.128 580.603 63.406C580.603 61.544 579.021 60.522 577.215 60.522C575.913 60.522 574.597 61.026 573.771 62.02L574.723 63.098C575.311 62.426 576.151 61.978 577.243 61.978C578.097 61.978 578.937 62.426 578.937 63.406C578.937 64.75 577.523 65.968 573.897 68.712V70H580.659ZM584.155 70V66.514H586.619C588.565 66.514 589.671 65.17 589.671 63.588C589.671 62.006 588.579 60.662 586.619 60.662H582.517V70H584.155ZM586.395 65.072H584.155V62.104H586.395C587.319 62.104 587.991 62.692 587.991 63.588C587.991 64.484 587.319 65.072 586.395 65.072ZM591.189 72.786C592.519 71.176 593.317 68.852 593.317 66.598C593.317 64.344 592.519 62.034 591.189 60.41L590.279 61.096C591.217 62.832 591.721 64.4 591.721 66.598C591.721 68.796 591.217 70.364 590.279 72.086L591.189 72.786Z" fill="#111921"/>
<path fill-rule="evenodd" clip-rule="evenodd" d="M591 168.981C591.293 168.994 591.587 169 591.882 169C602.863 169 611.765 160.098 611.765 149.118C611.765 138.137 602.863 129.235 591.882 129.235C587.743 129.235 583.898 130.501 580.715 132.665C574.566 123.448 560.441 117 544 117C522.789 117 505.434 127.731 504.084 141.297C503.098 141.077 502.072 140.961 501.02 140.961C493.277 140.961 487 147.238 487 154.98C487 162.723 493.277 169 501.02 169C501.034 169 501.049 169 501.064 169H544H591V168.981Z" fill="#D9EAD3"/>
<path d="M591 168.981L591.022 168.481L590.5 168.459V168.981H591ZM580.715 132.665L580.299 132.943L580.579 133.362L580.997 133.079L580.715 132.665ZM504.084 141.297L503.976 141.785L504.526 141.908L504.582 141.346L504.084 141.297ZM501.064 169V168.5L501.062 168.5L501.064 169ZM591 169V169.5H591.5V169H591ZM590.978 169.48C591.278 169.493 591.579 169.5 591.882 169.5V168.5C591.594 168.5 591.307 168.494 591.022 168.481L590.978 169.48ZM591.882 169.5C603.139 169.5 612.265 160.375 612.265 149.118H611.265C611.265 159.822 602.587 168.5 591.882 168.5V169.5ZM612.265 149.118C612.265 137.861 603.139 128.735 591.882 128.735V129.735C602.587 129.735 611.265 138.413 611.265 149.118H612.265ZM591.882 128.735C587.639 128.735 583.698 130.032 580.434 132.252L580.997 133.079C584.099 130.969 587.846 129.735 591.882 129.735V128.735ZM581.131 132.388C574.858 122.984 560.543 116.5 544 116.5V117.5C560.34 117.5 574.274 123.911 580.299 132.943L581.131 132.388ZM544 116.5C533.315 116.5 523.581 119.202 516.333 123.635C509.092 128.064 504.282 134.258 503.587 141.247L504.582 141.346C505.236 134.771 509.779 128.816 516.855 124.488C523.925 120.163 533.474 117.5 544 117.5V116.5ZM504.193 140.809C503.171 140.581 502.109 140.461 501.02 140.461V141.461C502.036 141.461 503.025 141.573 503.976 141.785L504.193 140.809ZM501.02 140.461C493.001 140.461 486.5 146.961 486.5 154.98H487.5C487.5 147.514 493.553 141.461 501.02 141.461V140.461ZM486.5 154.98C486.5 162.999 493.001 169.5 501.02 169.5V168.5C493.553 168.5 487.5 162.447 487.5 154.98H486.5ZM501.02 169.5C501.035 169.5 501.05 169.5 501.066 169.5L501.062 168.5C501.048 168.5 501.034 168.5 501.02 168.5V169.5ZM544 168.5H501.064V169.5H544V168.5ZM591 168.5H544V169.5H591V168.5ZM590.5 168.981V169H591.5V168.981H590.5Z" fill="#B6D7A8"/>
<path d="M511.632 158V154.514H514.096C516.042 154.514 517.148 153.17 517.148 151.588C517.148 150.006 516.056 148.662 514.096 148.662H509.994V158H511.632ZM513.872 153.072H511.632V150.104H513.872C514.796 150.104 515.468 150.692 515.468 151.588C515.468 152.484 514.796 153.072 513.872 153.072ZM519.94 158V148.662H518.47V158H519.94ZM527.447 158V153.52C527.447 151.7 526.131 151.07 524.633 151.07C523.555 151.07 522.575 151.42 521.791 152.162L522.393 153.184C522.981 152.61 523.639 152.33 524.395 152.33C525.333 152.33 525.977 152.806 525.977 153.59V154.598C525.487 154.024 524.703 153.73 523.793 153.73C522.687 153.73 521.441 154.374 521.441 155.928C521.441 157.426 522.687 158.168 523.793 158.168C524.689 158.168 525.473 157.846 525.977 157.272V158H527.447ZM524.367 157.16C523.541 157.16 522.925 156.684 522.925 155.956C522.925 155.214 523.541 154.738 524.367 154.738C525.011 154.738 525.641 154.976 525.977 155.438V156.46C525.641 156.922 525.011 157.16 524.367 157.16ZM531.382 158.168C532.068 158.168 532.502 157.986 532.768 157.734L532.418 156.628C532.306 156.754 532.04 156.866 531.76 156.866C531.34 156.866 531.116 156.53 531.116 156.068V152.526H532.488V151.238H531.116V149.39H529.646V151.238H528.526V152.526H529.646V156.432C529.646 157.552 530.248 158.168 531.382 158.168ZM535.643 158V152.526H537.015V151.238H535.643V150.86C535.643 150.104 536.007 149.726 536.581 149.726C536.917 149.726 537.169 149.838 537.365 150.02L537.939 149.11C537.519 148.676 536.917 148.522 536.315 148.522C535.027 148.522 534.173 149.39 534.173 150.86V151.238H533.053V152.526H534.173V158H535.643ZM541.182 158.168C543.352 158.168 544.668 156.558 544.668 154.612C544.668 152.68 543.352 151.07 541.182 151.07C539.04 151.07 537.71 152.68 537.71 154.612C537.71 156.558 539.04 158.168 541.182 158.168ZM541.182 156.866C539.936 156.866 539.236 155.816 539.236 154.612C539.236 153.422 539.936 152.372 541.182 152.372C542.442 152.372 543.142 153.422 543.142 154.612C543.142 155.816 542.442 156.866 541.182 156.866ZM547.625 158V153.394C547.919 152.918 548.745 152.498 549.361 152.498C549.543 152.498 549.697 152.512 549.823 152.54V151.084C548.941 151.084 548.129 151.588 547.625 152.232V151.238H546.155V158H547.625ZM560.767 158V153.114C560.767 151.742 560.067 151.07 558.821 151.07C557.813 151.07 556.917 151.7 556.525 152.316C556.301 151.574 555.685 151.07 554.677 151.07C553.655 151.07 552.759 151.742 552.479 152.162V151.238H551.009V158H552.479V153.282C552.787 152.834 553.389 152.372 554.033 152.372C554.831 152.372 555.153 152.862 555.153 153.59V158H556.623V153.268C556.917 152.834 557.533 152.372 558.191 152.372C558.975 152.372 559.297 152.862 559.297 153.59V158H560.767ZM568.926 160.086C568.002 158.364 567.498 156.796 567.498 154.598C567.498 152.4 568.002 150.832 568.926 149.096L568.016 148.41C566.7 150.034 565.902 152.344 565.902 154.598C565.902 156.852 566.7 159.176 568.016 160.786L568.926 160.086ZM571.816 158V154.514H574.28C576.226 154.514 577.332 153.17 577.332 151.588C577.332 150.006 576.24 148.662 574.28 148.662H570.178V158H571.816ZM574.056 153.072H571.816V150.104H574.056C574.98 150.104 575.652 150.692 575.652 151.588C575.652 152.484 574.98 153.072 574.056 153.072ZM585.163 158V156.558H581.019C583.525 154.668 585.107 153.128 585.107 151.406C585.107 149.544 583.525 148.522 581.719 148.522C580.417 148.522 579.101 149.026 578.275 150.02L579.227 151.098C579.815 150.426 580.655 149.978 581.747 149.978C582.601 149.978 583.441 150.426 583.441 151.406C583.441 152.75 582.027 153.968 578.401 156.712V158H585.163ZM588.659 158V154.514H591.123C593.069 154.514 594.175 153.17 594.175 151.588C594.175 150.006 593.083 148.662 591.123 148.662H587.021V158H588.659ZM590.899 153.072H588.659V150.104H590.899C591.823 150.104 592.495 150.692 592.495 151.588C592.495 152.484 591.823 153.072 590.899 153.072ZM595.693 160.786C597.023 159.176 597.821 156.852 597.821 154.598C597.821 152.344 597.023 150.034 595.693 148.41L594.783 149.096C595.721 150.832 596.225 152.4 596.225 154.598C596.225 156.796 595.721 158.364 594.783 160.086L595.693 160.786Z" fill="#111921"/>
<rect x="257" y="87" width="68" height="38" rx="10" fill="#E3DDF2"/>
<path d="M279.466 110C282.378 110 284.352 108.082 284.352 105.338C284.352 102.594 282.378 100.662 279.466 100.662H275.994V110H279.466ZM279.466 108.558H277.632V102.104H279.466C281.552 102.104 282.672 103.532 282.672 105.338C282.672 107.102 281.496 108.558 279.466 108.558ZM293.841 110L290.173 100.662H288.129L284.461 110H286.323L287.009 108.208H291.293L291.979 110H293.841ZM290.831 106.766H287.471L289.151 102.314L290.831 106.766ZM296.499 110V106.514H298.963C300.909 106.514 302.015 105.17 302.015 103.588C302.015 102.006 300.923 100.662 298.963 100.662H294.861V110H296.499ZM298.739 105.072H296.499V102.104H298.739C299.663 102.104 300.335 102.692 300.335 103.588C300.335 104.484 299.663 105.072 298.739 105.072ZM305.017 110V100.662H303.379V110H305.017Z" fill="#111921"/>
<rect x="257" y="87" width="68" height="38" rx="10" stroke="#957FCE"/>
<path d="M318.696 28V18.662H316.386L313.838 24.808L311.304 18.662H308.994V28H310.632V21.07L313.488 28H314.188L317.058 21.07V28H318.696ZM326.241 28V23.52C326.241 21.7 324.925 21.07 323.427 21.07C322.349 21.07 321.369 21.42 320.585 22.162L321.187 23.184C321.775 22.61 322.433 22.33 323.189 22.33C324.127 22.33 324.771 22.806 324.771 23.59V24.598C324.281 24.024 323.497 23.73 322.587 23.73C321.481 23.73 320.235 24.374 320.235 25.928C320.235 27.426 321.481 28.168 322.587 28.168C323.483 28.168 324.267 27.846 324.771 27.272V28H326.241ZM323.161 27.16C322.335 27.16 321.719 26.684 321.719 25.956C321.719 25.214 322.335 24.738 323.161 24.738C323.805 24.738 324.435 24.976 324.771 25.438V26.46C324.435 26.922 323.805 27.16 323.161 27.16ZM330.457 28.168C332.277 28.168 333.271 27.258 333.271 26.068C333.271 23.38 329.183 24.276 329.183 23.072C329.183 22.596 329.673 22.246 330.443 22.246C331.283 22.246 332.039 22.596 332.445 23.058L333.061 22.022C332.445 21.476 331.577 21.07 330.429 21.07C328.721 21.07 327.769 22.022 327.769 23.128C327.769 25.718 331.857 24.766 331.857 26.096C331.857 26.628 331.409 27.006 330.527 27.006C329.645 27.006 328.707 26.544 328.231 26.054L327.559 27.118C328.259 27.804 329.309 28.168 330.457 28.168ZM336.781 28.168C337.467 28.168 337.901 27.986 338.167 27.734L337.817 26.628C337.705 26.754 337.439 26.866 337.159 26.866C336.739 26.866 336.515 26.53 336.515 26.068V22.526H337.887V21.238H336.515V19.39H335.045V21.238H333.925V22.526H335.045V26.432C335.045 27.552 335.647 28.168 336.781 28.168ZM342.344 28.168C343.422 28.168 344.416 27.832 345.088 27.188L344.416 26.222C343.94 26.698 343.156 26.964 342.498 26.964C341.224 26.964 340.454 26.124 340.342 25.102H345.564V24.752C345.564 22.624 344.262 21.07 342.232 21.07C340.23 21.07 338.802 22.652 338.802 24.612C338.802 26.754 340.314 28.168 342.344 28.168ZM344.136 24.066H340.328C340.398 23.24 340.972 22.274 342.232 22.274C343.562 22.274 344.108 23.268 344.136 24.066ZM348.485 28V23.394C348.779 22.918 349.605 22.498 350.221 22.498C350.403 22.498 350.557 22.512 350.683 22.54V21.084C349.801 21.084 348.989 21.588 348.485 22.232V21.238H347.015V28H348.485ZM357.902 28V23.24C357.902 21.854 357.174 21.07 355.718 21.07C354.654 21.07 353.786 21.63 353.338 22.162V21.238H351.868V28H353.338V23.282C353.674 22.82 354.318 22.372 355.074 22.372C355.9 22.372 356.432 22.722 356.432 23.772V28H357.902ZM362.863 28.168C365.033 28.168 366.349 26.558 366.349 24.612C366.349 22.68 365.033 21.07 362.863 21.07C360.721 21.07 359.391 22.68 359.391 24.612C359.391 26.558 360.721 28.168 362.863 28.168ZM362.863 26.866C361.617 26.866 360.917 25.816 360.917 24.612C360.917 23.422 361.617 22.372 362.863 22.372C364.123 22.372 364.823 23.422 364.823 24.612C364.823 25.816 364.123 26.866 362.863 26.866ZM374.067 28V18.662H372.597V22.176C372.051 21.462 371.267 21.07 370.427 21.07C368.677 21.07 367.417 22.442 367.417 24.626C367.417 26.852 368.691 28.168 370.427 28.168C371.295 28.168 372.079 27.748 372.597 27.076V28H374.067ZM370.847 26.866C369.685 26.866 368.943 25.928 368.943 24.626C368.943 23.31 369.685 22.372 370.847 22.372C371.547 22.372 372.261 22.778 372.597 23.282V25.97C372.261 26.474 371.547 26.866 370.847 26.866ZM379.094 28.168C380.172 28.168 381.166 27.832 381.838 27.188L381.166 26.222C380.69 26.698 379.906 26.964 379.248 26.964C377.974 26.964 377.204 26.124 377.092 25.102H382.314V24.752C382.314 22.624 381.012 21.07 378.982 21.07C376.98 21.07 375.552 22.652 375.552 24.612C375.552 26.754 377.064 28.168 379.094 28.168ZM380.886 24.066H377.078C377.148 23.24 377.722 22.274 378.982 22.274C380.312 22.274 380.858 23.268 380.886 24.066Z" fill="#111921"/>
<rect x="371" y="43" width="67" height="38" rx="10" fill="#E9F0FD"/>
<path d="M394.474 66.168C396.364 66.168 397.512 65.188 398.226 64.068L396.826 63.354C396.378 64.138 395.482 64.712 394.474 64.712C392.626 64.712 391.254 63.298 391.254 61.338C391.254 59.378 392.626 57.964 394.474 57.964C395.482 57.964 396.378 58.552 396.826 59.322L398.226 58.608C397.526 57.488 396.364 56.508 394.474 56.508C391.716 56.508 389.574 58.468 389.574 61.338C389.574 64.208 391.716 66.168 394.474 66.168ZM402.547 66.168C404.717 66.168 406.033 64.558 406.033 62.612C406.033 60.68 404.717 59.07 402.547 59.07C400.405 59.07 399.075 60.68 399.075 62.612C399.075 64.558 400.405 66.168 402.547 66.168ZM402.547 64.866C401.301 64.866 400.601 63.816 400.601 62.612C400.601 61.422 401.301 60.372 402.547 60.372C403.807 60.372 404.507 61.422 404.507 62.612C404.507 63.816 403.807 64.866 402.547 64.866ZM408.99 66V61.394C409.284 60.918 410.11 60.498 410.726 60.498C410.908 60.498 411.062 60.512 411.188 60.54V59.084C410.306 59.084 409.494 59.588 408.99 60.232V59.238H407.52V66H408.99ZM415.496 66.168C416.574 66.168 417.568 65.832 418.24 65.188L417.568 64.222C417.092 64.698 416.308 64.964 415.65 64.964C414.376 64.964 413.606 64.124 413.494 63.102H418.716V62.752C418.716 60.624 417.414 59.07 415.384 59.07C413.382 59.07 411.954 60.652 411.954 62.612C411.954 64.754 413.466 66.168 415.496 66.168ZM417.288 62.066H413.48C413.55 61.24 414.124 60.274 415.384 60.274C416.714 60.274 417.26 61.268 417.288 62.066Z" fill="#111921"/>
<rect x="371" y="43" width="67" height="38" rx="10" stroke="#5B91F5"/>
<rect x="371" y="131" width="70" height="38" rx="10" fill="#D9EAD3"/>
<path d="M393.466 154C396.378 154 398.352 152.082 398.352 149.338C398.352 146.594 396.378 144.662 393.466 144.662H389.994V154H393.466ZM393.466 152.558H391.632V146.104H393.466C395.552 146.104 396.672 147.532 396.672 149.338C396.672 151.102 395.496 152.558 393.466 152.558ZM401.361 154V149.394C401.655 148.918 402.481 148.498 403.097 148.498C403.279 148.498 403.433 148.512 403.559 148.54V147.084C402.677 147.084 401.865 147.588 401.361 148.232V147.238H399.891V154H401.361ZM405.473 146.412C405.977 146.412 406.383 146.006 406.383 145.502C406.383 144.998 405.977 144.592 405.473 144.592C404.983 144.592 404.563 144.998 404.563 145.502C404.563 146.006 404.983 146.412 405.473 146.412ZM406.215 154V147.238H404.745V154H406.215ZM411.482 154L414.24 147.238H412.658L410.684 152.306L408.71 147.238H407.142L409.9 154H411.482ZM418.285 154.168C419.363 154.168 420.357 153.832 421.029 153.188L420.357 152.222C419.881 152.698 419.097 152.964 418.439 152.964C417.165 152.964 416.395 152.124 416.283 151.102H421.505V150.752C421.505 148.624 420.203 147.07 418.173 147.07C416.171 147.07 414.743 148.652 414.743 150.612C414.743 152.754 416.255 154.168 418.285 154.168ZM420.077 150.066H416.269C416.339 149.24 416.913 148.274 418.173 148.274C419.503 148.274 420.049 149.268 420.077 150.066Z" fill="#111921"/>
<rect x="371" y="131" width="70" height="38" rx="10" stroke="#B6D7A8"/>
<path d="M74 106L81.5 110.33V101.67L74 106ZM121 105.25H80.75V106.75H121V105.25Z" fill="black"/>
<path d="M257 106L249.5 101.67V110.33L257 106ZM212 106.75H250.25V105.25H212V106.75Z" fill="black"/>
<path d="M441 150L448.5 154.33V145.67L441 150ZM487 150L479.5 145.67V154.33L487 150ZM447.75 150.75H480.25V149.25H447.75V150.75Z" fill="black"/>
<path d="M324.5 90.5L326.013 81.9729L332.641 87.5467L324.5 90.5ZM371 62L364.673 67.9139L362.715 59.478L371 62ZM365.729 63.2236L365.899 63.9542L365.729 63.2236ZM327.409 85.8757C337.261 74.1594 350.648 65.9547 365.559 62.4931L365.899 63.9542C351.303 67.3425 338.2 75.3732 328.557 86.8411L327.409 85.8757Z" fill="black"/>
<path d="M324.5 122L326.013 130.527L332.641 124.953L324.5 122ZM371 150.5L364.673 144.586L362.715 153.022L371 150.5ZM365.729 149.276L365.899 148.546L365.729 149.276ZM327.409 126.624C337.261 138.341 350.648 146.545 365.559 150.007L365.899 148.546C351.303 145.158 338.2 137.127 328.557 125.659L327.409 126.624Z" fill="black"/>
<path d="M439 62L446.5 66.3301V57.6699L439 62ZM505 62L497.5 57.6699V66.3301L505 62ZM445.75 62.75L498.25 62.75V61.25L445.75 61.25V62.75Z" fill="black"/>
</svg>
