<svg width="612" height="492" viewBox="0 0 612 492" fill="none" xmlns="http://www.w3.org/2000/svg">
<rect x="134" y="1" width="477" height="143" rx="12" fill="#FAFAFC" stroke="#BABABF" stroke-width="1.5" stroke-linecap="round" stroke-dasharray="0.5 5"/>
<rect x="257" y="21" width="334" height="103" rx="12" fill="#D9EAD3"/>
<rect x="1" y="57" width="98" height="56" rx="10" fill="#F1F1F7"/>
<path d="M38.0122 80.168C40.5322 80.168 41.6242 78.838 41.6242 77.284C41.6242 73.798 36.1922 74.876 36.1922 73.14C36.1922 72.44 36.8082 71.978 37.7742 71.978C38.7542 71.978 39.7482 72.314 40.4762 73.042L41.4142 71.824C40.5462 70.984 39.3702 70.522 37.9142 70.522C35.8702 70.522 34.5122 71.712 34.5122 73.252C34.5122 76.696 39.9582 75.478 39.9582 77.438C39.9582 78.054 39.4262 78.712 38.0822 78.712C36.7802 78.712 35.7722 78.11 35.1282 77.424L34.2182 78.684C35.0442 79.566 36.2902 80.168 38.0122 80.168ZM44.9156 80.168C45.6016 80.168 46.0356 79.986 46.3016 79.734L45.9516 78.628C45.8396 78.754 45.5736 78.866 45.2936 78.866C44.8736 78.866 44.6496 78.53 44.6496 78.068V74.526H46.0216V73.238H44.6496V71.39H43.1796V73.238H42.0596V74.526H43.1796V78.432C43.1796 79.552 43.7816 80.168 44.9156 80.168ZM52.9563 80V75.52C52.9563 73.7 51.6403 73.07 50.1423 73.07C49.0643 73.07 48.0843 73.42 47.3003 74.162L47.9023 75.184C48.4903 74.61 49.1483 74.33 49.9043 74.33C50.8423 74.33 51.4863 74.806 51.4863 75.59V76.598C50.9963 76.024 50.2123 75.73 49.3023 75.73C48.1963 75.73 46.9503 76.374 46.9503 77.928C46.9503 79.426 48.1963 80.168 49.3023 80.168C50.1983 80.168 50.9823 79.846 51.4863 79.272V80H52.9563ZM49.8763 79.16C49.0503 79.16 48.4343 78.684 48.4343 77.956C48.4343 77.214 49.0503 76.738 49.8763 76.738C50.5203 76.738 51.1503 76.976 51.4863 77.438V78.46C51.1503 78.922 50.5203 79.16 49.8763 79.16ZM56.8922 80.168C57.5782 80.168 58.0122 79.986 58.2782 79.734L57.9282 78.628C57.8162 78.754 57.5502 78.866 57.2702 78.866C56.8502 78.866 56.6262 78.53 56.6262 78.068V74.526H57.9982V73.238H56.6262V71.39H55.1562V73.238H54.0362V74.526H55.1562V78.432C55.1562 79.552 55.7582 80.168 56.8922 80.168ZM62.4549 80.168C63.5329 80.168 64.5269 79.832 65.1989 79.188L64.5269 78.222C64.0509 78.698 63.2669 78.964 62.6089 78.964C61.3349 78.964 60.5649 78.124 60.4529 77.102H65.6749V76.752C65.6749 74.624 64.3729 73.07 62.3429 73.07C60.3409 73.07 58.9129 74.652 58.9129 76.612C58.9129 78.754 60.4249 80.168 62.4549 80.168ZM64.2469 76.066H60.4389C60.5089 75.24 61.0829 74.274 62.3429 74.274C63.6729 74.274 64.2189 75.268 64.2469 76.066ZM24.2945 98V90.104H27.1225V88.662H19.8285V90.104H22.6565V98H24.2945ZM28.8859 98V93.394C29.1799 92.918 30.0059 92.498 30.6219 92.498C30.8039 92.498 30.9579 92.512 31.0839 92.54V91.084C30.2019 91.084 29.3899 91.588 28.8859 92.232V91.238H27.4159V98H28.8859ZM37.8694 98V93.52C37.8694 91.7 36.5534 91.07 35.0554 91.07C33.9774 91.07 32.9974 91.42 32.2134 92.162L32.8154 93.184C33.4034 92.61 34.0614 92.33 34.8174 92.33C35.7554 92.33 36.3994 92.806 36.3994 93.59V94.598C35.9094 94.024 35.1254 93.73 34.2154 93.73C33.1094 93.73 31.8634 94.374 31.8634 95.928C31.8634 97.426 33.1094 98.168 34.2154 98.168C35.1114 98.168 35.8954 97.846 36.3994 97.272V98H37.8694ZM34.7894 97.16C33.9634 97.16 33.3474 96.684 33.3474 95.956C33.3474 95.214 33.9634 94.738 34.7894 94.738C35.4334 94.738 36.0634 94.976 36.3994 95.438V96.46C36.0634 96.922 35.4334 97.16 34.7894 97.16ZM45.8092 98V93.24C45.8092 91.854 45.0812 91.07 43.6252 91.07C42.5612 91.07 41.6932 91.63 41.2452 92.162V91.238H39.7752V98H41.2452V93.282C41.5812 92.82 42.2252 92.372 42.9812 92.372C43.8072 92.372 44.3392 92.722 44.3392 93.772V98H45.8092ZM50.0286 98.168C51.8486 98.168 52.8426 97.258 52.8426 96.068C52.8426 93.38 48.7546 94.276 48.7546 93.072C48.7546 92.596 49.2446 92.246 50.0146 92.246C50.8546 92.246 51.6106 92.596 52.0166 93.058L52.6326 92.022C52.0166 91.476 51.1486 91.07 50.0006 91.07C48.2926 91.07 47.3406 92.022 47.3406 93.128C47.3406 95.718 51.4286 94.766 51.4286 96.096C51.4286 96.628 50.9806 97.006 50.0986 97.006C49.2166 97.006 48.2786 96.544 47.8026 96.054L47.1306 97.118C47.8306 97.804 48.8806 98.168 50.0286 98.168ZM55.0501 90.412C55.5541 90.412 55.9601 90.006 55.9601 89.502C55.9601 88.998 55.5541 88.592 55.0501 88.592C54.5601 88.592 54.1401 88.998 54.1401 89.502C54.1401 90.006 54.5601 90.412 55.0501 90.412ZM55.7921 98V91.238H54.3221V98H55.7921ZM59.7291 98.168C60.4151 98.168 60.8491 97.986 61.1151 97.734L60.7651 96.628C60.6531 96.754 60.3871 96.866 60.1071 96.866C59.6871 96.866 59.4631 96.53 59.4631 96.068V92.526H60.8351V91.238H59.4631V89.39H57.9931V91.238H56.8731V92.526H57.9931V96.432C57.9931 97.552 58.5951 98.168 59.7291 98.168ZM62.8978 90.412C63.4018 90.412 63.8078 90.006 63.8078 89.502C63.8078 88.998 63.4018 88.592 62.8978 88.592C62.4078 88.592 61.9878 88.998 61.9878 89.502C61.9878 90.006 62.4078 90.412 62.8978 90.412ZM63.6398 98V91.238H62.1698V98H63.6398ZM68.5987 98.168C70.7687 98.168 72.0847 96.558 72.0847 94.612C72.0847 92.68 70.7687 91.07 68.5987 91.07C66.4567 91.07 65.1267 92.68 65.1267 94.612C65.1267 96.558 66.4567 98.168 68.5987 98.168ZM68.5987 96.866C67.3527 96.866 66.6527 95.816 66.6527 94.612C66.6527 93.422 67.3527 92.372 68.5987 92.372C69.8587 92.372 70.5587 93.422 70.5587 94.612C70.5587 95.816 69.8587 96.866 68.5987 96.866ZM79.6061 98V93.24C79.6061 91.854 78.8781 91.07 77.4221 91.07C76.3581 91.07 75.4901 91.63 75.0421 92.162V91.238H73.5721V98H75.0421V93.282C75.3781 92.82 76.0221 92.372 76.7781 92.372C77.6041 92.372 78.1361 92.722 78.1361 93.772V98H79.6061Z" fill="#111921"/>
<rect x="1" y="57" width="98" height="56" rx="10" stroke="#111921" stroke-width="0.5"/>
<rect x="169" y="66" width="68" height="38" rx="10" fill="#E3DDF2"/>
<path d="M191.466 89C194.378 89 196.352 87.082 196.352 84.338C196.352 81.594 194.378 79.662 191.466 79.662H187.994V89H191.466ZM191.466 87.558H189.632V81.104H191.466C193.552 81.104 194.672 82.532 194.672 84.338C194.672 86.102 193.496 87.558 191.466 87.558ZM205.841 89L202.173 79.662H200.129L196.461 89H198.323L199.009 87.208H203.293L203.979 89H205.841ZM202.831 85.766H199.471L201.151 81.314L202.831 85.766ZM208.499 89V85.514H210.963C212.909 85.514 214.015 84.17 214.015 82.588C214.015 81.006 212.923 79.662 210.963 79.662H206.861V89H208.499ZM210.739 84.072H208.499V81.104H210.739C211.663 81.104 212.335 81.692 212.335 82.588C212.335 83.484 211.663 84.072 210.739 84.072ZM217.017 89V79.662H215.379V89H217.017Z" fill="#111921"/>
<rect x="169" y="66" width="68" height="38" rx="10" stroke="#957FCE" stroke-width="0.5"/>
<path d="M161.696 28V18.662H159.386L156.838 24.808L154.304 18.662H151.994V28H153.632V21.07L156.488 28H157.188L160.058 21.07V28H161.696ZM169.241 28V23.52C169.241 21.7 167.925 21.07 166.427 21.07C165.349 21.07 164.369 21.42 163.585 22.162L164.187 23.184C164.775 22.61 165.433 22.33 166.189 22.33C167.127 22.33 167.771 22.806 167.771 23.59V24.598C167.281 24.024 166.497 23.73 165.587 23.73C164.481 23.73 163.235 24.374 163.235 25.928C163.235 27.426 164.481 28.168 165.587 28.168C166.483 28.168 167.267 27.846 167.771 27.272V28H169.241ZM166.161 27.16C165.335 27.16 164.719 26.684 164.719 25.956C164.719 25.214 165.335 24.738 166.161 24.738C166.805 24.738 167.435 24.976 167.771 25.438V26.46C167.435 26.922 166.805 27.16 166.161 27.16ZM173.457 28.168C175.277 28.168 176.271 27.258 176.271 26.068C176.271 23.38 172.183 24.276 172.183 23.072C172.183 22.596 172.673 22.246 173.443 22.246C174.283 22.246 175.039 22.596 175.445 23.058L176.061 22.022C175.445 21.476 174.577 21.07 173.429 21.07C171.721 21.07 170.769 22.022 170.769 23.128C170.769 25.718 174.857 24.766 174.857 26.096C174.857 26.628 174.409 27.006 173.527 27.006C172.645 27.006 171.707 26.544 171.231 26.054L170.559 27.118C171.259 27.804 172.309 28.168 173.457 28.168ZM179.781 28.168C180.467 28.168 180.901 27.986 181.167 27.734L180.817 26.628C180.705 26.754 180.439 26.866 180.159 26.866C179.739 26.866 179.515 26.53 179.515 26.068V22.526H180.887V21.238H179.515V19.39H178.045V21.238H176.925V22.526H178.045V26.432C178.045 27.552 178.647 28.168 179.781 28.168ZM185.344 28.168C186.422 28.168 187.416 27.832 188.088 27.188L187.416 26.222C186.94 26.698 186.156 26.964 185.498 26.964C184.224 26.964 183.454 26.124 183.342 25.102H188.564V24.752C188.564 22.624 187.262 21.07 185.232 21.07C183.23 21.07 181.802 22.652 181.802 24.612C181.802 26.754 183.314 28.168 185.344 28.168ZM187.136 24.066H183.328C183.398 23.24 183.972 22.274 185.232 22.274C186.562 22.274 187.108 23.268 187.136 24.066ZM191.485 28V23.394C191.779 22.918 192.605 22.498 193.221 22.498C193.403 22.498 193.557 22.512 193.683 22.54V21.084C192.801 21.084 191.989 21.588 191.485 22.232V21.238H190.015V28H191.485ZM200.902 28V23.24C200.902 21.854 200.174 21.07 198.718 21.07C197.654 21.07 196.786 21.63 196.338 22.162V21.238H194.868V28H196.338V23.282C196.674 22.82 197.318 22.372 198.074 22.372C198.9 22.372 199.432 22.722 199.432 23.772V28H200.902ZM205.863 28.168C208.033 28.168 209.349 26.558 209.349 24.612C209.349 22.68 208.033 21.07 205.863 21.07C203.721 21.07 202.391 22.68 202.391 24.612C202.391 26.558 203.721 28.168 205.863 28.168ZM205.863 26.866C204.617 26.866 203.917 25.816 203.917 24.612C203.917 23.422 204.617 22.372 205.863 22.372C207.123 22.372 207.823 23.422 207.823 24.612C207.823 25.816 207.123 26.866 205.863 26.866ZM217.067 28V18.662H215.597V22.176C215.051 21.462 214.267 21.07 213.427 21.07C211.677 21.07 210.417 22.442 210.417 24.626C210.417 26.852 211.691 28.168 213.427 28.168C214.295 28.168 215.079 27.748 215.597 27.076V28H217.067ZM213.847 26.866C212.685 26.866 211.943 25.928 211.943 24.626C211.943 23.31 212.685 22.372 213.847 22.372C214.547 22.372 215.261 22.778 215.597 23.282V25.97C215.261 26.474 214.547 26.866 213.847 26.866ZM222.094 28.168C223.172 28.168 224.166 27.832 224.838 27.188L224.166 26.222C223.69 26.698 222.906 26.964 222.248 26.964C220.974 26.964 220.204 26.124 220.092 25.102H225.314V24.752C225.314 22.624 224.012 21.07 221.982 21.07C219.98 21.07 218.552 22.652 218.552 24.612C218.552 26.754 220.064 28.168 222.094 28.168ZM223.886 24.066H220.078C220.148 23.24 220.722 22.274 221.982 22.274C223.312 22.274 223.858 23.268 223.886 24.066Z" fill="#111921"/>
<path d="M273.466 48C276.378 48 278.352 46.082 278.352 43.338C278.352 40.594 276.378 38.662 273.466 38.662H269.994V48H273.466ZM273.466 46.558H271.632V40.104H273.466C275.552 40.104 276.672 41.532 276.672 43.338C276.672 45.102 275.496 46.558 273.466 46.558ZM281.361 48V43.394C281.655 42.918 282.481 42.498 283.097 42.498C283.279 42.498 283.433 42.512 283.559 42.54V41.084C282.677 41.084 281.865 41.588 281.361 42.232V41.238H279.891V48H281.361ZM285.473 40.412C285.977 40.412 286.383 40.006 286.383 39.502C286.383 38.998 285.977 38.592 285.473 38.592C284.983 38.592 284.563 38.998 284.563 39.502C284.563 40.006 284.983 40.412 285.473 40.412ZM286.215 48V41.238H284.745V48H286.215ZM291.482 48L294.24 41.238H292.658L290.684 46.306L288.71 41.238H287.142L289.9 48H291.482ZM298.285 48.168C299.363 48.168 300.357 47.832 301.029 47.188L300.357 46.222C299.881 46.698 299.097 46.964 298.439 46.964C297.165 46.964 296.395 46.124 296.283 45.102H301.505V44.752C301.505 42.624 300.203 41.07 298.173 41.07C296.171 41.07 294.743 42.652 294.743 44.612C294.743 46.754 296.255 48.168 298.285 48.168ZM300.077 44.066H296.269C296.339 43.24 296.913 42.274 298.173 42.274C299.503 42.274 300.049 43.268 300.077 44.066Z" fill="#111921"/>
<rect x="277" y="66" width="129" height="38" rx="10" fill="#B6D7A8"/>
<path d="M297.632 89V85.514H300.096C302.042 85.514 303.148 84.17 303.148 82.588C303.148 81.006 302.056 79.662 300.096 79.662H295.994V89H297.632ZM299.872 84.072H297.632V81.104H299.872C300.796 81.104 301.468 81.692 301.468 82.588C301.468 83.484 300.796 84.072 299.872 84.072ZM305.94 89V79.662H304.47V89H305.94ZM313.447 89V84.52C313.447 82.7 312.131 82.07 310.633 82.07C309.555 82.07 308.575 82.42 307.791 83.162L308.393 84.184C308.981 83.61 309.639 83.33 310.395 83.33C311.333 83.33 311.977 83.806 311.977 84.59V85.598C311.487 85.024 310.703 84.73 309.793 84.73C308.687 84.73 307.441 85.374 307.441 86.928C307.441 88.426 308.687 89.168 309.793 89.168C310.689 89.168 311.473 88.846 311.977 88.272V89H313.447ZM310.367 88.16C309.541 88.16 308.925 87.684 308.925 86.956C308.925 86.214 309.541 85.738 310.367 85.738C311.011 85.738 311.641 85.976 311.977 86.438V87.46C311.641 87.922 311.011 88.16 310.367 88.16ZM317.382 89.168C318.068 89.168 318.502 88.986 318.768 88.734L318.418 87.628C318.306 87.754 318.04 87.866 317.76 87.866C317.34 87.866 317.116 87.53 317.116 87.068V83.526H318.488V82.238H317.116V80.39H315.646V82.238H314.526V83.526H315.646V87.432C315.646 88.552 316.248 89.168 317.382 89.168ZM321.643 89V83.526H323.015V82.238H321.643V81.86C321.643 81.104 322.007 80.726 322.581 80.726C322.917 80.726 323.169 80.838 323.365 81.02L323.939 80.11C323.519 79.676 322.917 79.522 322.315 79.522C321.027 79.522 320.173 80.39 320.173 81.86V82.238H319.053V83.526H320.173V89H321.643ZM327.182 89.168C329.352 89.168 330.668 87.558 330.668 85.612C330.668 83.68 329.352 82.07 327.182 82.07C325.04 82.07 323.71 83.68 323.71 85.612C323.71 87.558 325.04 89.168 327.182 89.168ZM327.182 87.866C325.936 87.866 325.236 86.816 325.236 85.612C325.236 84.422 325.936 83.372 327.182 83.372C328.442 83.372 329.142 84.422 329.142 85.612C329.142 86.816 328.442 87.866 327.182 87.866ZM333.625 89V84.394C333.919 83.918 334.745 83.498 335.361 83.498C335.543 83.498 335.697 83.512 335.823 83.54V82.084C334.941 82.084 334.129 82.588 333.625 83.232V82.238H332.155V89H333.625ZM346.767 89V84.114C346.767 82.742 346.067 82.07 344.821 82.07C343.813 82.07 342.917 82.7 342.525 83.316C342.301 82.574 341.685 82.07 340.677 82.07C339.655 82.07 338.759 82.742 338.479 83.162V82.238H337.009V89H338.479V84.282C338.787 83.834 339.389 83.372 340.033 83.372C340.831 83.372 341.153 83.862 341.153 84.59V89H342.623V84.268C342.917 83.834 343.533 83.372 344.191 83.372C344.975 83.372 345.297 83.862 345.297 84.59V89H346.767ZM356.788 89.168C358.678 89.168 359.826 88.188 360.54 87.068L359.14 86.354C358.692 87.138 357.796 87.712 356.788 87.712C354.94 87.712 353.568 86.298 353.568 84.338C353.568 82.378 354.94 80.964 356.788 80.964C357.796 80.964 358.692 81.552 359.14 82.322L360.54 81.608C359.84 80.488 358.678 79.508 356.788 79.508C354.03 79.508 351.888 81.468 351.888 84.338C351.888 87.208 354.03 89.168 356.788 89.168ZM367.857 89V84.212C367.857 82.826 367.129 82.07 365.673 82.07C364.609 82.07 363.727 82.63 363.279 83.162V79.662H361.809V89H363.279V84.282C363.629 83.82 364.273 83.372 365.015 83.372C365.841 83.372 366.387 83.694 366.387 84.744V89H367.857ZM375.366 89V84.52C375.366 82.7 374.05 82.07 372.552 82.07C371.474 82.07 370.494 82.42 369.71 83.162L370.312 84.184C370.9 83.61 371.558 83.33 372.314 83.33C373.252 83.33 373.896 83.806 373.896 84.59V85.598C373.406 85.024 372.622 84.73 371.712 84.73C370.606 84.73 369.36 85.374 369.36 86.928C369.36 88.426 370.606 89.168 371.712 89.168C372.608 89.168 373.392 88.846 373.896 88.272V89H375.366ZM372.286 88.16C371.46 88.16 370.844 87.684 370.844 86.956C370.844 86.214 371.46 85.738 372.286 85.738C372.93 85.738 373.56 85.976 373.896 86.438V87.46C373.56 87.922 372.93 88.16 372.286 88.16ZM378 81.412C378.504 81.412 378.91 81.006 378.91 80.502C378.91 79.998 378.504 79.592 378 79.592C377.51 79.592 377.09 79.998 377.09 80.502C377.09 81.006 377.51 81.412 378 81.412ZM378.742 89V82.238H377.272V89H378.742ZM386.683 89V84.24C386.683 82.854 385.955 82.07 384.499 82.07C383.435 82.07 382.567 82.63 382.119 83.162V82.238H380.649V89H382.119V84.282C382.455 83.82 383.099 83.372 383.855 83.372C384.681 83.372 385.213 83.722 385.213 84.772V89H386.683Z" fill="#111921"/>
<rect x="277" y="66" width="129" height="38" rx="10" stroke="#111921" stroke-width="0.5"/>
<rect x="446" y="66" width="125" height="38" rx="10" fill="#D9EAD3"/>
<path d="M466.632 89V85.514H469.096C471.042 85.514 472.148 84.17 472.148 82.588C472.148 81.006 471.056 79.662 469.096 79.662H464.994V89H466.632ZM468.872 84.072H466.632V81.104H468.872C469.796 81.104 470.468 81.692 470.468 82.588C470.468 83.484 469.796 84.072 468.872 84.072ZM474.94 89V79.662H473.47V89H474.94ZM482.447 89V84.52C482.447 82.7 481.131 82.07 479.633 82.07C478.555 82.07 477.575 82.42 476.791 83.162L477.393 84.184C477.981 83.61 478.639 83.33 479.395 83.33C480.333 83.33 480.977 83.806 480.977 84.59V85.598C480.487 85.024 479.703 84.73 478.793 84.73C477.687 84.73 476.441 85.374 476.441 86.928C476.441 88.426 477.687 89.168 478.793 89.168C479.689 89.168 480.473 88.846 480.977 88.272V89H482.447ZM479.367 88.16C478.541 88.16 477.925 87.684 477.925 86.956C477.925 86.214 478.541 85.738 479.367 85.738C480.011 85.738 480.641 85.976 480.977 86.438V87.46C480.641 87.922 480.011 88.16 479.367 88.16ZM486.382 89.168C487.068 89.168 487.502 88.986 487.768 88.734L487.418 87.628C487.306 87.754 487.04 87.866 486.76 87.866C486.34 87.866 486.116 87.53 486.116 87.068V83.526H487.488V82.238H486.116V80.39H484.646V82.238H483.526V83.526H484.646V87.432C484.646 88.552 485.248 89.168 486.382 89.168ZM490.643 89V83.526H492.015V82.238H490.643V81.86C490.643 81.104 491.007 80.726 491.581 80.726C491.917 80.726 492.169 80.838 492.365 81.02L492.939 80.11C492.519 79.676 491.917 79.522 491.315 79.522C490.027 79.522 489.173 80.39 489.173 81.86V82.238H488.053V83.526H489.173V89H490.643ZM496.182 89.168C498.352 89.168 499.668 87.558 499.668 85.612C499.668 83.68 498.352 82.07 496.182 82.07C494.04 82.07 492.71 83.68 492.71 85.612C492.71 87.558 494.04 89.168 496.182 89.168ZM496.182 87.866C494.936 87.866 494.236 86.816 494.236 85.612C494.236 84.422 494.936 83.372 496.182 83.372C497.442 83.372 498.142 84.422 498.142 85.612C498.142 86.816 497.442 87.866 496.182 87.866ZM502.625 89V84.394C502.919 83.918 503.745 83.498 504.361 83.498C504.543 83.498 504.697 83.512 504.823 83.54V82.084C503.941 82.084 503.129 82.588 502.625 83.232V82.238H501.155V89H502.625ZM515.767 89V84.114C515.767 82.742 515.067 82.07 513.821 82.07C512.813 82.07 511.917 82.7 511.525 83.316C511.301 82.574 510.685 82.07 509.677 82.07C508.655 82.07 507.759 82.742 507.479 83.162V82.238H506.009V89H507.479V84.282C507.787 83.834 508.389 83.372 509.033 83.372C509.831 83.372 510.153 83.862 510.153 84.59V89H511.623V84.268C511.917 83.834 512.533 83.372 513.191 83.372C513.975 83.372 514.297 83.862 514.297 84.59V89H515.767ZM524.5 89.168C527.02 89.168 528.112 87.838 528.112 86.284C528.112 82.798 522.68 83.876 522.68 82.14C522.68 81.44 523.296 80.978 524.262 80.978C525.242 80.978 526.236 81.314 526.964 82.042L527.902 80.824C527.034 79.984 525.858 79.522 524.402 79.522C522.358 79.522 521 80.712 521 82.252C521 85.696 526.446 84.478 526.446 86.438C526.446 87.054 525.914 87.712 524.57 87.712C523.268 87.712 522.26 87.11 521.616 86.424L520.706 87.684C521.532 88.566 522.778 89.168 524.5 89.168ZM531.404 89.168C532.09 89.168 532.524 88.986 532.79 88.734L532.44 87.628C532.328 87.754 532.062 87.866 531.782 87.866C531.362 87.866 531.138 87.53 531.138 87.068V83.526H532.51V82.238H531.138V80.39H529.668V82.238H528.548V83.526H529.668V87.432C529.668 88.552 530.27 89.168 531.404 89.168ZM539.445 89V84.52C539.445 82.7 538.129 82.07 536.631 82.07C535.553 82.07 534.573 82.42 533.789 83.162L534.391 84.184C534.979 83.61 535.637 83.33 536.393 83.33C537.331 83.33 537.975 83.806 537.975 84.59V85.598C537.485 85.024 536.701 84.73 535.791 84.73C534.685 84.73 533.439 85.374 533.439 86.928C533.439 88.426 534.685 89.168 535.791 89.168C536.687 89.168 537.471 88.846 537.975 88.272V89H539.445ZM536.365 88.16C535.539 88.16 534.923 87.684 534.923 86.956C534.923 86.214 535.539 85.738 536.365 85.738C537.009 85.738 537.639 85.976 537.975 86.438V87.46C537.639 87.922 537.009 88.16 536.365 88.16ZM543.38 89.168C544.066 89.168 544.5 88.986 544.766 88.734L544.416 87.628C544.304 87.754 544.038 87.866 543.758 87.866C543.338 87.866 543.114 87.53 543.114 87.068V83.526H544.486V82.238H543.114V80.39H541.644V82.238H540.524V83.526H541.644V87.432C541.644 88.552 542.246 89.168 543.38 89.168ZM548.943 89.168C550.021 89.168 551.015 88.832 551.687 88.188L551.015 87.222C550.539 87.698 549.755 87.964 549.097 87.964C547.823 87.964 547.053 87.124 546.941 86.102H552.163V85.752C552.163 83.624 550.861 82.07 548.831 82.07C546.829 82.07 545.401 83.652 545.401 85.612C545.401 87.754 546.913 89.168 548.943 89.168ZM550.735 85.066H546.927C546.997 84.24 547.571 83.274 548.831 83.274C550.161 83.274 550.707 84.268 550.735 85.066Z" fill="#111921"/>
<rect x="446" y="66" width="125" height="38" rx="10" stroke="#111921" stroke-width="0.5"/>
<path d="M169 85L161.5 80.6699V89.3301L169 85ZM99 85.75L162.25 85.75V84.25L99 84.25V85.75Z" fill="black"/>
<path d="M277 85L269.5 80.6699V89.3301L277 85ZM237 85.75H270.25V84.25H237V85.75Z" fill="#111921"/>
<path d="M446 85L438.5 80.6699V89.3301L446 85ZM406 85.75H439.25V84.25H406V85.75Z" fill="#111921"/>
<rect x="123" y="77" width="17" height="15" rx="7.5" fill="#111921"/>
<path d="M132.691 88V81.33H131.671L129.751 83.27L130.431 83.98L131.521 82.85V88H132.691Z" fill="white"/>
<rect x="246" y="77" width="17" height="15" rx="7.5" fill="#111921"/>
<path d="M256.856 88V86.97H253.896C255.686 85.62 256.816 84.52 256.816 83.29C256.816 81.96 255.686 81.23 254.396 81.23C253.466 81.23 252.526 81.59 251.936 82.3L252.616 83.07C253.036 82.59 253.636 82.27 254.416 82.27C255.026 82.27 255.626 82.59 255.626 83.29C255.626 84.25 254.616 85.12 252.026 87.08V88H256.856Z" fill="white"/>
<rect x="415" y="77" width="17" height="15" rx="7.5" fill="#111921"/>
<path d="M423.389 88.12C424.929 88.12 425.899 87.31 425.899 86.18C425.899 85.15 424.999 84.62 424.349 84.56C425.039 84.44 425.799 83.92 425.799 83.03C425.799 81.91 424.829 81.23 423.389 81.23C422.279 81.23 421.469 81.68 420.959 82.28L421.559 83.01C422.039 82.53 422.599 82.27 423.279 82.27C424.029 82.27 424.629 82.59 424.629 83.21C424.629 83.82 424.039 84.09 423.259 84.09C422.999 84.09 422.609 84.09 422.489 84.08V85.13C422.589 85.12 422.979 85.12 423.259 85.12C424.209 85.12 424.739 85.4 424.739 86.06C424.739 86.68 424.229 87.08 423.349 87.08C422.639 87.08 421.929 86.77 421.499 86.27L420.869 87.04C421.319 87.64 422.199 88.12 423.389 88.12Z" fill="white"/>
<rect x="344" y="369" width="267" height="122" rx="12" fill="#FAFAFC" stroke="#BABABF" stroke-width="1.5" stroke-linecap="round" stroke-dasharray="0.5 5"/>
<rect x="354" y="408" width="247" height="73" rx="8" fill="#D9EAD3"/>
<path d="M376.696 395V385.662H374.386L371.838 391.808L369.304 385.662H366.994V395H368.632V388.07L371.488 395H372.188L375.058 388.07V395H376.696ZM384.241 395V390.52C384.241 388.7 382.925 388.07 381.427 388.07C380.349 388.07 379.369 388.42 378.585 389.162L379.187 390.184C379.775 389.61 380.433 389.33 381.189 389.33C382.127 389.33 382.771 389.806 382.771 390.59V391.598C382.281 391.024 381.497 390.73 380.587 390.73C379.481 390.73 378.235 391.374 378.235 392.928C378.235 394.426 379.481 395.168 380.587 395.168C381.483 395.168 382.267 394.846 382.771 394.272V395H384.241ZM381.161 394.16C380.335 394.16 379.719 393.684 379.719 392.956C379.719 392.214 380.335 391.738 381.161 391.738C381.805 391.738 382.435 391.976 382.771 392.438V393.46C382.435 393.922 381.805 394.16 381.161 394.16ZM388.457 395.168C390.277 395.168 391.271 394.258 391.271 393.068C391.271 390.38 387.183 391.276 387.183 390.072C387.183 389.596 387.673 389.246 388.443 389.246C389.283 389.246 390.039 389.596 390.445 390.058L391.061 389.022C390.445 388.476 389.577 388.07 388.429 388.07C386.721 388.07 385.769 389.022 385.769 390.128C385.769 392.718 389.857 391.766 389.857 393.096C389.857 393.628 389.409 394.006 388.527 394.006C387.645 394.006 386.707 393.544 386.231 393.054L385.559 394.118C386.259 394.804 387.309 395.168 388.457 395.168ZM394.781 395.168C395.467 395.168 395.901 394.986 396.167 394.734L395.817 393.628C395.705 393.754 395.439 393.866 395.159 393.866C394.739 393.866 394.515 393.53 394.515 393.068V389.526H395.887V388.238H394.515V386.39H393.045V388.238H391.925V389.526H393.045V393.432C393.045 394.552 393.647 395.168 394.781 395.168ZM400.344 395.168C401.422 395.168 402.416 394.832 403.088 394.188L402.416 393.222C401.94 393.698 401.156 393.964 400.498 393.964C399.224 393.964 398.454 393.124 398.342 392.102H403.564V391.752C403.564 389.624 402.262 388.07 400.232 388.07C398.23 388.07 396.802 389.652 396.802 391.612C396.802 393.754 398.314 395.168 400.344 395.168ZM402.136 391.066H398.328C398.398 390.24 398.972 389.274 400.232 389.274C401.562 389.274 402.108 390.268 402.136 391.066ZM406.485 395V390.394C406.779 389.918 407.605 389.498 408.221 389.498C408.403 389.498 408.557 389.512 408.683 389.54V388.084C407.801 388.084 406.989 388.588 406.485 389.232V388.238H405.015V395H406.485ZM415.902 395V390.24C415.902 388.854 415.174 388.07 413.718 388.07C412.654 388.07 411.786 388.63 411.338 389.162V388.238H409.868V395H411.338V390.282C411.674 389.82 412.318 389.372 413.074 389.372C413.9 389.372 414.432 389.722 414.432 390.772V395H415.902ZM420.863 395.168C423.033 395.168 424.349 393.558 424.349 391.612C424.349 389.68 423.033 388.07 420.863 388.07C418.721 388.07 417.391 389.68 417.391 391.612C417.391 393.558 418.721 395.168 420.863 395.168ZM420.863 393.866C419.617 393.866 418.917 392.816 418.917 391.612C418.917 390.422 419.617 389.372 420.863 389.372C422.123 389.372 422.823 390.422 422.823 391.612C422.823 392.816 422.123 393.866 420.863 393.866ZM432.067 395V385.662H430.597V389.176C430.051 388.462 429.267 388.07 428.427 388.07C426.677 388.07 425.417 389.442 425.417 391.626C425.417 393.852 426.691 395.168 428.427 395.168C429.295 395.168 430.079 394.748 430.597 394.076V395H432.067ZM428.847 393.866C427.685 393.866 426.943 392.928 426.943 391.626C426.943 390.31 427.685 389.372 428.847 389.372C429.547 389.372 430.261 389.778 430.597 390.282V392.97C430.261 393.474 429.547 393.866 428.847 393.866ZM437.094 395.168C438.172 395.168 439.166 394.832 439.838 394.188L439.166 393.222C438.69 393.698 437.906 393.964 437.248 393.964C435.974 393.964 435.204 393.124 435.092 392.102H440.314V391.752C440.314 389.624 439.012 388.07 436.982 388.07C434.98 388.07 433.552 389.652 433.552 391.612C433.552 393.754 435.064 395.168 437.094 395.168ZM438.886 391.066H435.078C435.148 390.24 435.722 389.274 436.982 389.274C438.312 389.274 438.858 390.268 438.886 391.066Z" fill="#111921"/>
<path d="M370.466 429C373.378 429 375.352 427.082 375.352 424.338C375.352 421.594 373.378 419.662 370.466 419.662H366.994V429H370.466ZM370.466 427.558H368.632V421.104H370.466C372.552 421.104 373.672 422.532 373.672 424.338C373.672 426.102 372.496 427.558 370.466 427.558ZM378.361 429V424.394C378.655 423.918 379.481 423.498 380.097 423.498C380.279 423.498 380.433 423.512 380.559 423.54V422.084C379.677 422.084 378.865 422.588 378.361 423.232V422.238H376.891V429H378.361ZM382.473 421.412C382.977 421.412 383.383 421.006 383.383 420.502C383.383 419.998 382.977 419.592 382.473 419.592C381.983 419.592 381.563 419.998 381.563 420.502C381.563 421.006 381.983 421.412 382.473 421.412ZM383.215 429V422.238H381.745V429H383.215ZM388.482 429L391.24 422.238H389.658L387.684 427.306L385.71 422.238H384.142L386.9 429H388.482ZM395.285 429.168C396.363 429.168 397.357 428.832 398.029 428.188L397.357 427.222C396.881 427.698 396.097 427.964 395.439 427.964C394.165 427.964 393.395 427.124 393.283 426.102H398.505V425.752C398.505 423.624 397.203 422.07 395.173 422.07C393.171 422.07 391.743 423.652 391.743 425.612C391.743 427.754 393.255 429.168 395.285 429.168ZM397.077 425.066H393.269C393.339 424.24 393.913 423.274 395.173 423.274C396.503 423.274 397.049 424.268 397.077 425.066Z" fill="#111921"/>
<rect x="366" y="442" width="93" height="27" rx="4" fill="#B6D7A8"/>
<path d="M378.068 459V456.261H380.004C381.533 456.261 382.402 455.205 382.402 453.962C382.402 452.719 381.544 451.663 380.004 451.663H376.781V459H378.068ZM379.828 455.128H378.068V452.796H379.828C380.554 452.796 381.082 453.258 381.082 453.962C381.082 454.666 380.554 455.128 379.828 455.128ZM384.595 459V451.663H383.44V459H384.595ZM390.494 459V455.48C390.494 454.05 389.46 453.555 388.283 453.555C387.436 453.555 386.666 453.83 386.05 454.413L386.523 455.216C386.985 454.765 387.502 454.545 388.096 454.545C388.833 454.545 389.339 454.919 389.339 455.535V456.327C388.954 455.876 388.338 455.645 387.623 455.645C386.754 455.645 385.775 456.151 385.775 457.372C385.775 458.549 386.754 459.132 387.623 459.132C388.327 459.132 388.943 458.879 389.339 458.428V459H390.494ZM388.074 458.34C387.425 458.34 386.941 457.966 386.941 457.394C386.941 456.811 387.425 456.437 388.074 456.437C388.58 456.437 389.075 456.624 389.339 456.987V457.79C389.075 458.153 388.58 458.34 388.074 458.34ZM393.586 459.132C394.125 459.132 394.466 458.989 394.675 458.791L394.4 457.922C394.312 458.021 394.103 458.109 393.883 458.109C393.553 458.109 393.377 457.845 393.377 457.482V454.699H394.455V453.687H393.377V452.235H392.222V453.687H391.342V454.699H392.222V457.768C392.222 458.648 392.695 459.132 393.586 459.132ZM396.934 459V454.699H398.012V453.687H396.934V453.39C396.934 452.796 397.22 452.499 397.671 452.499C397.935 452.499 398.133 452.587 398.287 452.73L398.738 452.015C398.408 451.674 397.935 451.553 397.462 451.553C396.45 451.553 395.779 452.235 395.779 453.39V453.687H394.899V454.699H395.779V459H396.934ZM401.286 459.132C402.991 459.132 404.025 457.867 404.025 456.338C404.025 454.82 402.991 453.555 401.286 453.555C399.603 453.555 398.558 454.82 398.558 456.338C398.558 457.867 399.603 459.132 401.286 459.132ZM401.286 458.109C400.307 458.109 399.757 457.284 399.757 456.338C399.757 455.403 400.307 454.578 401.286 454.578C402.276 454.578 402.826 455.403 402.826 456.338C402.826 457.284 402.276 458.109 401.286 458.109ZM406.348 459V455.381C406.579 455.007 407.228 454.677 407.712 454.677C407.855 454.677 407.976 454.688 408.075 454.71V453.566C407.382 453.566 406.744 453.962 406.348 454.468V453.687H405.193V459H406.348ZM416.674 459V455.161C416.674 454.083 416.124 453.555 415.145 453.555C414.353 453.555 413.649 454.05 413.341 454.534C413.165 453.951 412.681 453.555 411.889 453.555C411.086 453.555 410.382 454.083 410.162 454.413V453.687H409.007V459H410.162V455.293C410.404 454.941 410.877 454.578 411.383 454.578C412.01 454.578 412.263 454.963 412.263 455.535V459H413.418V455.282C413.649 454.941 414.133 454.578 414.65 454.578C415.266 454.578 415.519 454.963 415.519 455.535V459H416.674ZM424.548 459.132C426.033 459.132 426.935 458.362 427.496 457.482L426.396 456.921C426.044 457.537 425.34 457.988 424.548 457.988C423.096 457.988 422.018 456.877 422.018 455.337C422.018 453.797 423.096 452.686 424.548 452.686C425.34 452.686 426.044 453.148 426.396 453.753L427.496 453.192C426.946 452.312 426.033 451.542 424.548 451.542C422.381 451.542 420.698 453.082 420.698 455.337C420.698 457.592 422.381 459.132 424.548 459.132ZM433.245 459V455.238C433.245 454.149 432.673 453.555 431.529 453.555C430.693 453.555 430 453.995 429.648 454.413V451.663H428.493V459H429.648V455.293C429.923 454.93 430.429 454.578 431.012 454.578C431.661 454.578 432.09 454.831 432.09 455.656V459H433.245ZM439.145 459V455.48C439.145 454.05 438.111 453.555 436.934 453.555C436.087 453.555 435.317 453.83 434.701 454.413L435.174 455.216C435.636 454.765 436.153 454.545 436.747 454.545C437.484 454.545 437.99 454.919 437.99 455.535V456.327C437.605 455.876 436.989 455.645 436.274 455.645C435.405 455.645 434.426 456.151 434.426 457.372C434.426 458.549 435.405 459.132 436.274 459.132C436.978 459.132 437.594 458.879 437.99 458.428V459H439.145ZM436.725 458.34C436.076 458.34 435.592 457.966 435.592 457.394C435.592 456.811 436.076 456.437 436.725 456.437C437.231 456.437 437.726 456.624 437.99 456.987V457.79C437.726 458.153 437.231 458.34 436.725 458.34ZM441.215 453.038C441.611 453.038 441.93 452.719 441.93 452.323C441.93 451.927 441.611 451.608 441.215 451.608C440.83 451.608 440.5 451.927 440.5 452.323C440.5 452.719 440.83 453.038 441.215 453.038ZM441.798 459V453.687H440.643V459H441.798ZM448.037 459V455.26C448.037 454.171 447.465 453.555 446.321 453.555C445.485 453.555 444.803 453.995 444.451 454.413V453.687H443.296V459H444.451V455.293C444.715 454.93 445.221 454.578 445.815 454.578C446.464 454.578 446.882 454.853 446.882 455.678V459H448.037Z" fill="#111921"/>
<rect x="366" y="442" width="93" height="27" rx="4" stroke="#111921" stroke-width="0.5"/>
<rect x="499" y="442" width="90" height="27" rx="4" fill="#D9EAD3"/>
<path d="M511.068 459V456.261H513.004C514.533 456.261 515.402 455.205 515.402 453.962C515.402 452.719 514.544 451.663 513.004 451.663H509.781V459H511.068ZM512.828 455.128H511.068V452.796H512.828C513.554 452.796 514.082 453.258 514.082 453.962C514.082 454.666 513.554 455.128 512.828 455.128ZM517.595 459V451.663H516.44V459H517.595ZM523.494 459V455.48C523.494 454.05 522.46 453.555 521.283 453.555C520.436 453.555 519.666 453.83 519.05 454.413L519.523 455.216C519.985 454.765 520.502 454.545 521.096 454.545C521.833 454.545 522.339 454.919 522.339 455.535V456.327C521.954 455.876 521.338 455.645 520.623 455.645C519.754 455.645 518.775 456.151 518.775 457.372C518.775 458.549 519.754 459.132 520.623 459.132C521.327 459.132 521.943 458.879 522.339 458.428V459H523.494ZM521.074 458.34C520.425 458.34 519.941 457.966 519.941 457.394C519.941 456.811 520.425 456.437 521.074 456.437C521.58 456.437 522.075 456.624 522.339 456.987V457.79C522.075 458.153 521.58 458.34 521.074 458.34ZM526.586 459.132C527.125 459.132 527.466 458.989 527.675 458.791L527.4 457.922C527.312 458.021 527.103 458.109 526.883 458.109C526.553 458.109 526.377 457.845 526.377 457.482V454.699H527.455V453.687H526.377V452.235H525.222V453.687H524.342V454.699H525.222V457.768C525.222 458.648 525.695 459.132 526.586 459.132ZM529.934 459V454.699H531.012V453.687H529.934V453.39C529.934 452.796 530.22 452.499 530.671 452.499C530.935 452.499 531.133 452.587 531.287 452.73L531.738 452.015C531.408 451.674 530.935 451.553 530.462 451.553C529.45 451.553 528.779 452.235 528.779 453.39V453.687H527.899V454.699H528.779V459H529.934ZM534.286 459.132C535.991 459.132 537.025 457.867 537.025 456.338C537.025 454.82 535.991 453.555 534.286 453.555C532.603 453.555 531.558 454.82 531.558 456.338C531.558 457.867 532.603 459.132 534.286 459.132ZM534.286 458.109C533.307 458.109 532.757 457.284 532.757 456.338C532.757 455.403 533.307 454.578 534.286 454.578C535.276 454.578 535.826 455.403 535.826 456.338C535.826 457.284 535.276 458.109 534.286 458.109ZM539.348 459V455.381C539.579 455.007 540.228 454.677 540.712 454.677C540.855 454.677 540.976 454.688 541.075 454.71V453.566C540.382 453.566 539.744 453.962 539.348 454.468V453.687H538.193V459H539.348ZM549.674 459V455.161C549.674 454.083 549.124 453.555 548.145 453.555C547.353 453.555 546.649 454.05 546.341 454.534C546.165 453.951 545.681 453.555 544.889 453.555C544.086 453.555 543.382 454.083 543.162 454.413V453.687H542.007V459H543.162V455.293C543.404 454.941 543.877 454.578 544.383 454.578C545.01 454.578 545.263 454.963 545.263 455.535V459H546.418V455.282C546.649 454.941 547.133 454.578 547.65 454.578C548.266 454.578 548.519 454.963 548.519 455.535V459H549.674ZM556.536 459.132C558.516 459.132 559.374 458.087 559.374 456.866C559.374 454.127 555.106 454.974 555.106 453.61C555.106 453.06 555.59 452.697 556.349 452.697C557.119 452.697 557.9 452.961 558.472 453.533L559.209 452.576C558.527 451.916 557.603 451.553 556.459 451.553C554.853 451.553 553.786 452.488 553.786 453.698C553.786 456.404 558.065 455.447 558.065 456.987C558.065 457.471 557.647 457.988 556.591 457.988C555.568 457.988 554.776 457.515 554.27 456.976L553.555 457.966C554.204 458.659 555.183 459.132 556.536 459.132ZM561.96 459.132C562.499 459.132 562.84 458.989 563.049 458.791L562.774 457.922C562.686 458.021 562.477 458.109 562.257 458.109C561.927 458.109 561.751 457.845 561.751 457.482V454.699H562.829V453.687H561.751V452.235H560.596V453.687H559.716V454.699H560.596V457.768C560.596 458.648 561.069 459.132 561.96 459.132ZM568.278 459V455.48C568.278 454.05 567.244 453.555 566.067 453.555C565.22 453.555 564.45 453.83 563.834 454.413L564.307 455.216C564.769 454.765 565.286 454.545 565.88 454.545C566.617 454.545 567.123 454.919 567.123 455.535V456.327C566.738 455.876 566.122 455.645 565.407 455.645C564.538 455.645 563.559 456.151 563.559 457.372C563.559 458.549 564.538 459.132 565.407 459.132C566.111 459.132 566.727 458.879 567.123 458.428V459H568.278ZM565.858 458.34C565.209 458.34 564.725 457.966 564.725 457.394C564.725 456.811 565.209 456.437 565.858 456.437C566.364 456.437 566.859 456.624 567.123 456.987V457.79C566.859 458.153 566.364 458.34 565.858 458.34ZM571.37 459.132C571.909 459.132 572.25 458.989 572.459 458.791L572.184 457.922C572.096 458.021 571.887 458.109 571.667 458.109C571.337 458.109 571.161 457.845 571.161 457.482V454.699H572.239V453.687H571.161V452.235H570.006V453.687H569.126V454.699H570.006V457.768C570.006 458.648 570.479 459.132 571.37 459.132ZM575.741 459.132C576.588 459.132 577.369 458.868 577.897 458.362L577.369 457.603C576.995 457.977 576.379 458.186 575.862 458.186C574.861 458.186 574.256 457.526 574.168 456.723H578.271V456.448C578.271 454.776 577.248 453.555 575.653 453.555C574.08 453.555 572.958 454.798 572.958 456.338C572.958 458.021 574.146 459.132 575.741 459.132ZM577.149 455.909H574.157C574.212 455.26 574.663 454.501 575.653 454.501C576.698 454.501 577.127 455.282 577.149 455.909Z" fill="#111921"/>
<rect x="499" y="442" width="90" height="27" rx="4" stroke="#111921" stroke-width="0.5"/>
<path d="M499 456L491.5 451.67V460.33L499 456ZM459 456.75H492.25V455.25H459V456.75Z" fill="#111921"/>
<rect x="468" y="448" width="17" height="15" rx="7.5" fill="#111921"/>
<path d="M476.542 459.12C478.032 459.12 479.082 458.25 479.082 456.86C479.082 455.5 478.072 454.71 476.952 454.71C476.312 454.71 475.762 454.97 475.442 455.29V453.36H478.642V452.33H474.272V456.06L475.102 456.3C475.522 455.9 475.992 455.72 476.562 455.72C477.382 455.72 477.902 456.19 477.902 456.91C477.902 457.56 477.372 458.08 476.532 458.08C475.782 458.08 475.182 457.8 474.732 457.29L474.062 458.09C474.602 458.73 475.392 459.12 476.542 459.12Z" fill="white"/>
<rect x="1" y="369" width="267" height="122" rx="12" fill="#FAFAFC" stroke="#BABABF" stroke-width="1.5" stroke-linecap="round" stroke-dasharray="0.5 5"/>
<rect x="11" y="408" width="247" height="73" rx="8" fill="#D9EAD3"/>
<path d="M33.696 395V385.662H31.386L28.838 391.808L26.304 385.662H23.994V395H25.632V388.07L28.488 395H29.188L32.058 388.07V395H33.696ZM41.2415 395V390.52C41.2415 388.7 39.9255 388.07 38.4275 388.07C37.3495 388.07 36.3695 388.42 35.5855 389.162L36.1875 390.184C36.7755 389.61 37.4335 389.33 38.1895 389.33C39.1275 389.33 39.7715 389.806 39.7715 390.59V391.598C39.2815 391.024 38.4975 390.73 37.5875 390.73C36.4815 390.73 35.2355 391.374 35.2355 392.928C35.2355 394.426 36.4815 395.168 37.5875 395.168C38.4835 395.168 39.2675 394.846 39.7715 394.272V395H41.2415ZM38.1615 394.16C37.3355 394.16 36.7195 393.684 36.7195 392.956C36.7195 392.214 37.3355 391.738 38.1615 391.738C38.8055 391.738 39.4355 391.976 39.7715 392.438V393.46C39.4355 393.922 38.8055 394.16 38.1615 394.16ZM45.4573 395.168C47.2773 395.168 48.2713 394.258 48.2713 393.068C48.2713 390.38 44.1833 391.276 44.1833 390.072C44.1833 389.596 44.6733 389.246 45.4433 389.246C46.2833 389.246 47.0393 389.596 47.4453 390.058L48.0613 389.022C47.4453 388.476 46.5773 388.07 45.4293 388.07C43.7213 388.07 42.7693 389.022 42.7693 390.128C42.7693 392.718 46.8573 391.766 46.8573 393.096C46.8573 393.628 46.4093 394.006 45.5273 394.006C44.6453 394.006 43.7073 393.544 43.2313 393.054L42.5593 394.118C43.2593 394.804 44.3093 395.168 45.4573 395.168ZM51.7808 395.168C52.4668 395.168 52.9008 394.986 53.1668 394.734L52.8168 393.628C52.7048 393.754 52.4388 393.866 52.1588 393.866C51.7388 393.866 51.5148 393.53 51.5148 393.068V389.526H52.8868V388.238H51.5148V386.39H50.0448V388.238H48.9248V389.526H50.0448V393.432C50.0448 394.552 50.6468 395.168 51.7808 395.168ZM57.3435 395.168C58.4215 395.168 59.4155 394.832 60.0875 394.188L59.4155 393.222C58.9395 393.698 58.1555 393.964 57.4975 393.964C56.2235 393.964 55.4535 393.124 55.3415 392.102H60.5635V391.752C60.5635 389.624 59.2615 388.07 57.2315 388.07C55.2295 388.07 53.8015 389.652 53.8015 391.612C53.8015 393.754 55.3135 395.168 57.3435 395.168ZM59.1355 391.066H55.3275C55.3975 390.24 55.9715 389.274 57.2315 389.274C58.5615 389.274 59.1075 390.268 59.1355 391.066ZM63.4845 395V390.394C63.7785 389.918 64.6045 389.498 65.2205 389.498C65.4025 389.498 65.5565 389.512 65.6825 389.54V388.084C64.8005 388.084 63.9885 388.588 63.4845 389.232V388.238H62.0145V395H63.4845ZM72.902 395V390.24C72.902 388.854 72.174 388.07 70.718 388.07C69.654 388.07 68.786 388.63 68.338 389.162V388.238H66.868V395H68.338V390.282C68.674 389.82 69.318 389.372 70.074 389.372C70.9 389.372 71.432 389.722 71.432 390.772V395H72.902ZM77.8634 395.168C80.0334 395.168 81.3494 393.558 81.3494 391.612C81.3494 389.68 80.0334 388.07 77.8634 388.07C75.7214 388.07 74.3914 389.68 74.3914 391.612C74.3914 393.558 75.7214 395.168 77.8634 395.168ZM77.8634 393.866C76.6174 393.866 75.9174 392.816 75.9174 391.612C75.9174 390.422 76.6174 389.372 77.8634 389.372C79.1234 389.372 79.8234 390.422 79.8234 391.612C79.8234 392.816 79.1234 393.866 77.8634 393.866ZM89.0668 395V385.662H87.5968V389.176C87.0508 388.462 86.2668 388.07 85.4268 388.07C83.6768 388.07 82.4168 389.442 82.4168 391.626C82.4168 393.852 83.6908 395.168 85.4268 395.168C86.2948 395.168 87.0788 394.748 87.5968 394.076V395H89.0668ZM85.8468 393.866C84.6848 393.866 83.9428 392.928 83.9428 391.626C83.9428 390.31 84.6848 389.372 85.8468 389.372C86.5468 389.372 87.2608 389.778 87.5968 390.282V392.97C87.2608 393.474 86.5468 393.866 85.8468 393.866ZM94.0935 395.168C95.1715 395.168 96.1655 394.832 96.8375 394.188L96.1655 393.222C95.6895 393.698 94.9055 393.964 94.2475 393.964C92.9735 393.964 92.2035 393.124 92.0915 392.102H97.3135V391.752C97.3135 389.624 96.0115 388.07 93.9815 388.07C91.9795 388.07 90.5515 389.652 90.5515 391.612C90.5515 393.754 92.0635 395.168 94.0935 395.168ZM95.8855 391.066H92.0775C92.1475 390.24 92.7215 389.274 93.9815 389.274C95.3115 389.274 95.8575 390.268 95.8855 391.066Z" fill="#111921"/>
<path d="M27.466 429C30.378 429 32.352 427.082 32.352 424.338C32.352 421.594 30.378 419.662 27.466 419.662H23.994V429H27.466ZM27.466 427.558H25.632V421.104H27.466C29.552 421.104 30.672 422.532 30.672 424.338C30.672 426.102 29.496 427.558 27.466 427.558ZM35.3615 429V424.394C35.6555 423.918 36.4815 423.498 37.0975 423.498C37.2795 423.498 37.4335 423.512 37.5595 423.54V422.084C36.6775 422.084 35.8655 422.588 35.3615 423.232V422.238H33.8915V429H35.3615ZM39.473 421.412C39.977 421.412 40.383 421.006 40.383 420.502C40.383 419.998 39.977 419.592 39.473 419.592C38.983 419.592 38.563 419.998 38.563 420.502C38.563 421.006 38.983 421.412 39.473 421.412ZM40.215 429V422.238H38.745V429H40.215ZM45.4819 429L48.2399 422.238H46.6579L44.6839 427.306L42.7099 422.238H41.1419L43.8999 429H45.4819ZM52.2849 429.168C53.3629 429.168 54.3569 428.832 55.0289 428.188L54.3569 427.222C53.8809 427.698 53.0969 427.964 52.4389 427.964C51.1649 427.964 50.3949 427.124 50.2829 426.102H55.5049V425.752C55.5049 423.624 54.2029 422.07 52.1729 422.07C50.1709 422.07 48.7429 423.652 48.7429 425.612C48.7429 427.754 50.2549 429.168 52.2849 429.168ZM54.0769 425.066H50.2689C50.3389 424.24 50.9129 423.274 52.1729 423.274C53.5029 423.274 54.0489 424.268 54.0769 425.066Z" fill="#111921"/>
<rect x="23" y="442" width="93" height="27" rx="4" fill="#B6D7A8"/>
<path d="M35.068 459V456.261H37.004C38.533 456.261 39.402 455.205 39.402 453.962C39.402 452.719 38.544 451.663 37.004 451.663H33.781V459H35.068ZM36.828 455.128H35.068V452.796H36.828C37.554 452.796 38.082 453.258 38.082 453.962C38.082 454.666 37.554 455.128 36.828 455.128ZM41.5954 459V451.663H40.4404V459H41.5954ZM47.4937 459V455.48C47.4937 454.05 46.4597 453.555 45.2827 453.555C44.4357 453.555 43.6657 453.83 43.0497 454.413L43.5227 455.216C43.9847 454.765 44.5017 454.545 45.0957 454.545C45.8327 454.545 46.3387 454.919 46.3387 455.535V456.327C45.9537 455.876 45.3377 455.645 44.6227 455.645C43.7537 455.645 42.7747 456.151 42.7747 457.372C42.7747 458.549 43.7537 459.132 44.6227 459.132C45.3267 459.132 45.9427 458.879 46.3387 458.428V459H47.4937ZM45.0737 458.34C44.4247 458.34 43.9407 457.966 43.9407 457.394C43.9407 456.811 44.4247 456.437 45.0737 456.437C45.5797 456.437 46.0747 456.624 46.3387 456.987V457.79C46.0747 458.153 45.5797 458.34 45.0737 458.34ZM50.5862 459.132C51.1252 459.132 51.4662 458.989 51.6752 458.791L51.4002 457.922C51.3122 458.021 51.1032 458.109 50.8832 458.109C50.5532 458.109 50.3772 457.845 50.3772 457.482V454.699H51.4552V453.687H50.3772V452.235H49.2222V453.687H48.3422V454.699H49.2222V457.768C49.2222 458.648 49.6952 459.132 50.5862 459.132ZM53.9339 459V454.699H55.0119V453.687H53.9339V453.39C53.9339 452.796 54.2199 452.499 54.6709 452.499C54.9349 452.499 55.1329 452.587 55.2869 452.73L55.7379 452.015C55.4079 451.674 54.9349 451.553 54.4619 451.553C53.4499 451.553 52.7789 452.235 52.7789 453.39V453.687H51.8989V454.699H52.7789V459H53.9339ZM58.2856 459.132C59.9906 459.132 61.0246 457.867 61.0246 456.338C61.0246 454.82 59.9906 453.555 58.2856 453.555C56.6026 453.555 55.5576 454.82 55.5576 456.338C55.5576 457.867 56.6026 459.132 58.2856 459.132ZM58.2856 458.109C57.3066 458.109 56.7566 457.284 56.7566 456.338C56.7566 455.403 57.3066 454.578 58.2856 454.578C59.2756 454.578 59.8256 455.403 59.8256 456.338C59.8256 457.284 59.2756 458.109 58.2856 458.109ZM63.3483 459V455.381C63.5793 455.007 64.2283 454.677 64.7123 454.677C64.8553 454.677 64.9763 454.688 65.0753 454.71V453.566C64.3823 453.566 63.7443 453.962 63.3483 454.468V453.687H62.1933V459H63.3483ZM73.6738 459V455.161C73.6738 454.083 73.1238 453.555 72.1448 453.555C71.3528 453.555 70.6488 454.05 70.3408 454.534C70.1648 453.951 69.6808 453.555 68.8888 453.555C68.0858 453.555 67.3818 454.083 67.1618 454.413V453.687H66.0068V459H67.1618V455.293C67.4038 454.941 67.8768 454.578 68.3828 454.578C69.0098 454.578 69.2628 454.963 69.2628 455.535V459H70.4178V455.282C70.6488 454.941 71.1328 454.578 71.6498 454.578C72.2658 454.578 72.5188 454.963 72.5188 455.535V459H73.6738ZM81.5481 459.132C83.0331 459.132 83.9351 458.362 84.4961 457.482L83.3961 456.921C83.0441 457.537 82.3401 457.988 81.5481 457.988C80.0961 457.988 79.0181 456.877 79.0181 455.337C79.0181 453.797 80.0961 452.686 81.5481 452.686C82.3401 452.686 83.0441 453.148 83.3961 453.753L84.4961 453.192C83.9461 452.312 83.0331 451.542 81.5481 451.542C79.3811 451.542 77.6981 453.082 77.6981 455.337C77.6981 457.592 79.3811 459.132 81.5481 459.132ZM90.2451 459V455.238C90.2451 454.149 89.6731 453.555 88.5291 453.555C87.6931 453.555 87.0001 453.995 86.6481 454.413V451.663H85.4931V459H86.6481V455.293C86.9231 454.93 87.4291 454.578 88.0121 454.578C88.6611 454.578 89.0901 454.831 89.0901 455.656V459H90.2451ZM96.1451 459V455.48C96.1451 454.05 95.1111 453.555 93.9341 453.555C93.0871 453.555 92.3171 453.83 91.7011 454.413L92.1741 455.216C92.6361 454.765 93.1531 454.545 93.7471 454.545C94.4841 454.545 94.9901 454.919 94.9901 455.535V456.327C94.6051 455.876 93.9891 455.645 93.2741 455.645C92.4051 455.645 91.4261 456.151 91.4261 457.372C91.4261 458.549 92.4051 459.132 93.2741 459.132C93.9781 459.132 94.5941 458.879 94.9901 458.428V459H96.1451ZM93.7251 458.34C93.0761 458.34 92.5921 457.966 92.5921 457.394C92.5921 456.811 93.0761 456.437 93.7251 456.437C94.2311 456.437 94.7261 456.624 94.9901 456.987V457.79C94.7261 458.153 94.2311 458.34 93.7251 458.34ZM98.2145 453.038C98.6105 453.038 98.9295 452.719 98.9295 452.323C98.9295 451.927 98.6105 451.608 98.2145 451.608C97.8295 451.608 97.4995 451.927 97.4995 452.323C97.4995 452.719 97.8295 453.038 98.2145 453.038ZM98.7975 459V453.687H97.6425V459H98.7975ZM105.037 459V455.26C105.037 454.171 104.465 453.555 103.321 453.555C102.485 453.555 101.803 453.995 101.451 454.413V453.687H100.296V459H101.451V455.293C101.715 454.93 102.221 454.578 102.815 454.578C103.464 454.578 103.882 454.853 103.882 455.678V459H105.037Z" fill="#111921"/>
<rect x="23" y="442" width="93" height="27" rx="4" stroke="#111921" stroke-width="0.5"/>
<rect x="156" y="442" width="90" height="27" rx="4" fill="#D9EAD3"/>
<path d="M168.068 459V456.261H170.004C171.533 456.261 172.402 455.205 172.402 453.962C172.402 452.719 171.544 451.663 170.004 451.663H166.781V459H168.068ZM169.828 455.128H168.068V452.796H169.828C170.554 452.796 171.082 453.258 171.082 453.962C171.082 454.666 170.554 455.128 169.828 455.128ZM174.595 459V451.663H173.44V459H174.595ZM180.494 459V455.48C180.494 454.05 179.46 453.555 178.283 453.555C177.436 453.555 176.666 453.83 176.05 454.413L176.523 455.216C176.985 454.765 177.502 454.545 178.096 454.545C178.833 454.545 179.339 454.919 179.339 455.535V456.327C178.954 455.876 178.338 455.645 177.623 455.645C176.754 455.645 175.775 456.151 175.775 457.372C175.775 458.549 176.754 459.132 177.623 459.132C178.327 459.132 178.943 458.879 179.339 458.428V459H180.494ZM178.074 458.34C177.425 458.34 176.941 457.966 176.941 457.394C176.941 456.811 177.425 456.437 178.074 456.437C178.58 456.437 179.075 456.624 179.339 456.987V457.79C179.075 458.153 178.58 458.34 178.074 458.34ZM183.586 459.132C184.125 459.132 184.466 458.989 184.675 458.791L184.4 457.922C184.312 458.021 184.103 458.109 183.883 458.109C183.553 458.109 183.377 457.845 183.377 457.482V454.699H184.455V453.687H183.377V452.235H182.222V453.687H181.342V454.699H182.222V457.768C182.222 458.648 182.695 459.132 183.586 459.132ZM186.934 459V454.699H188.012V453.687H186.934V453.39C186.934 452.796 187.22 452.499 187.671 452.499C187.935 452.499 188.133 452.587 188.287 452.73L188.738 452.015C188.408 451.674 187.935 451.553 187.462 451.553C186.45 451.553 185.779 452.235 185.779 453.39V453.687H184.899V454.699H185.779V459H186.934ZM191.286 459.132C192.991 459.132 194.025 457.867 194.025 456.338C194.025 454.82 192.991 453.555 191.286 453.555C189.603 453.555 188.558 454.82 188.558 456.338C188.558 457.867 189.603 459.132 191.286 459.132ZM191.286 458.109C190.307 458.109 189.757 457.284 189.757 456.338C189.757 455.403 190.307 454.578 191.286 454.578C192.276 454.578 192.826 455.403 192.826 456.338C192.826 457.284 192.276 458.109 191.286 458.109ZM196.348 459V455.381C196.579 455.007 197.228 454.677 197.712 454.677C197.855 454.677 197.976 454.688 198.075 454.71V453.566C197.382 453.566 196.744 453.962 196.348 454.468V453.687H195.193V459H196.348ZM206.674 459V455.161C206.674 454.083 206.124 453.555 205.145 453.555C204.353 453.555 203.649 454.05 203.341 454.534C203.165 453.951 202.681 453.555 201.889 453.555C201.086 453.555 200.382 454.083 200.162 454.413V453.687H199.007V459H200.162V455.293C200.404 454.941 200.877 454.578 201.383 454.578C202.01 454.578 202.263 454.963 202.263 455.535V459H203.418V455.282C203.649 454.941 204.133 454.578 204.65 454.578C205.266 454.578 205.519 454.963 205.519 455.535V459H206.674ZM213.536 459.132C215.516 459.132 216.374 458.087 216.374 456.866C216.374 454.127 212.106 454.974 212.106 453.61C212.106 453.06 212.59 452.697 213.349 452.697C214.119 452.697 214.9 452.961 215.472 453.533L216.209 452.576C215.527 451.916 214.603 451.553 213.459 451.553C211.853 451.553 210.786 452.488 210.786 453.698C210.786 456.404 215.065 455.447 215.065 456.987C215.065 457.471 214.647 457.988 213.591 457.988C212.568 457.988 211.776 457.515 211.27 456.976L210.555 457.966C211.204 458.659 212.183 459.132 213.536 459.132ZM218.96 459.132C219.499 459.132 219.84 458.989 220.049 458.791L219.774 457.922C219.686 458.021 219.477 458.109 219.257 458.109C218.927 458.109 218.751 457.845 218.751 457.482V454.699H219.829V453.687H218.751V452.235H217.596V453.687H216.716V454.699H217.596V457.768C217.596 458.648 218.069 459.132 218.96 459.132ZM225.278 459V455.48C225.278 454.05 224.244 453.555 223.067 453.555C222.22 453.555 221.45 453.83 220.834 454.413L221.307 455.216C221.769 454.765 222.286 454.545 222.88 454.545C223.617 454.545 224.123 454.919 224.123 455.535V456.327C223.738 455.876 223.122 455.645 222.407 455.645C221.538 455.645 220.559 456.151 220.559 457.372C220.559 458.549 221.538 459.132 222.407 459.132C223.111 459.132 223.727 458.879 224.123 458.428V459H225.278ZM222.858 458.34C222.209 458.34 221.725 457.966 221.725 457.394C221.725 456.811 222.209 456.437 222.858 456.437C223.364 456.437 223.859 456.624 224.123 456.987V457.79C223.859 458.153 223.364 458.34 222.858 458.34ZM228.37 459.132C228.909 459.132 229.25 458.989 229.459 458.791L229.184 457.922C229.096 458.021 228.887 458.109 228.667 458.109C228.337 458.109 228.161 457.845 228.161 457.482V454.699H229.239V453.687H228.161V452.235H227.006V453.687H226.126V454.699H227.006V457.768C227.006 458.648 227.479 459.132 228.37 459.132ZM232.741 459.132C233.588 459.132 234.369 458.868 234.897 458.362L234.369 457.603C233.995 457.977 233.379 458.186 232.862 458.186C231.861 458.186 231.256 457.526 231.168 456.723H235.271V456.448C235.271 454.776 234.248 453.555 232.653 453.555C231.08 453.555 229.958 454.798 229.958 456.338C229.958 458.021 231.146 459.132 232.741 459.132ZM234.149 455.909H231.157C231.212 455.26 231.663 454.501 232.653 454.501C233.698 454.501 234.127 455.282 234.149 455.909Z" fill="#111921"/>
<rect x="156" y="442" width="90" height="27" rx="4" stroke="#111921" stroke-width="0.5"/>
<path d="M156 456L148.5 451.67V460.33L156 456ZM116 456.75H149.25V455.25H116V456.75Z" fill="#111921"/>
<rect x="125" y="448" width="17" height="15" rx="7.5" fill="#111921"/>
<path d="M133.542 459.12C135.032 459.12 136.082 458.25 136.082 456.86C136.082 455.5 135.072 454.71 133.952 454.71C133.312 454.71 132.762 454.97 132.442 455.29V453.36H135.642V452.33H131.272V456.06L132.102 456.3C132.522 455.9 132.992 455.72 133.562 455.72C134.382 455.72 134.902 456.19 134.902 456.91C134.902 457.56 134.372 458.08 133.532 458.08C132.782 458.08 132.182 457.8 131.732 457.29L131.062 458.09C131.602 458.73 132.392 459.12 133.542 459.12Z" fill="white"/>
<path fill-rule="evenodd" clip-rule="evenodd" d="M384 318.858C405.835 317.078 423 298.794 423 276.5C423 253.028 403.972 234 380.5 234C378.054 234 375.656 234.207 373.322 234.604C364.702 211.186 336.259 194 302.5 194C262.445 194 229.873 218.194 229.017 248.285C227.538 248.097 226.03 248 224.5 248C204.894 248 189 263.894 189 283.5C189 302.266 203.56 317.631 222 318.913V319H224.5H380.5H384V318.858Z" fill="#D9EAD3"/>
<path d="M384 318.858L383.939 318.11L383.25 318.167V318.858H384ZM373.322 234.604L372.619 234.863L372.834 235.447L373.448 235.343L373.322 234.604ZM229.017 248.285L228.923 249.029L229.743 249.133L229.767 248.306L229.017 248.285ZM222 318.913H222.75V318.214L222.052 318.165L222 318.913ZM222 319H221.25V319.75H222V319ZM384 319V319.75H384.75V319H384ZM384.061 319.605C406.282 317.794 423.75 299.187 423.75 276.5H422.25C422.25 298.4 405.388 316.362 383.939 318.11L384.061 319.605ZM423.75 276.5C423.75 252.614 404.386 233.25 380.5 233.25V234.75C403.558 234.75 422.25 253.442 422.25 276.5H423.75ZM380.5 233.25C378.011 233.25 375.571 233.46 373.197 233.864L373.448 235.343C375.74 234.953 378.096 234.75 380.5 234.75V233.25ZM374.026 234.344C365.265 210.544 336.468 193.25 302.5 193.25V194.75C336.05 194.75 364.139 211.828 372.619 234.863L374.026 234.344ZM302.5 193.25C282.326 193.25 264.01 199.342 250.613 209.255C237.216 219.169 228.704 232.937 228.268 248.263L229.767 248.306C230.187 233.542 238.389 220.167 251.505 210.461C264.622 200.755 282.618 194.75 302.5 194.75V193.25ZM229.112 247.541C227.601 247.349 226.062 247.25 224.5 247.25V248.75C225.999 248.75 227.475 248.845 228.923 249.029L229.112 247.541ZM224.5 247.25C204.48 247.25 188.25 263.48 188.25 283.5H189.75C189.75 264.308 205.308 248.75 224.5 248.75V247.25ZM188.25 283.5C188.25 302.662 203.118 318.352 221.948 319.662L222.052 318.165C204.003 316.909 189.75 301.869 189.75 283.5H188.25ZM222.75 319V318.913H221.25V319H222.75ZM224.5 318.25H222V319.75H224.5V318.25ZM380.5 318.25H224.5V319.75H380.5V318.25ZM384 318.25H380.5V319.75H384V318.25ZM383.25 318.858V319H384.75V318.858H383.25Z" fill="#B6D7A8"/>
<path d="M261.312 248V244.514H263.776C265.722 244.514 266.828 243.17 266.828 241.588C266.828 240.006 265.736 238.662 263.776 238.662H259.674V248H261.312ZM263.552 243.072H261.312V240.104H263.552C264.476 240.104 265.148 240.692 265.148 241.588C265.148 242.484 264.476 243.072 263.552 243.072ZM269.619 248V238.662H268.149V248H269.619ZM277.126 248V243.52C277.126 241.7 275.81 241.07 274.312 241.07C273.234 241.07 272.254 241.42 271.47 242.162L272.072 243.184C272.66 242.61 273.318 242.33 274.074 242.33C275.012 242.33 275.656 242.806 275.656 243.59V244.598C275.166 244.024 274.382 243.73 273.472 243.73C272.366 243.73 271.12 244.374 271.12 245.928C271.12 247.426 272.366 248.168 273.472 248.168C274.368 248.168 275.152 247.846 275.656 247.272V248H277.126ZM274.046 247.16C273.22 247.16 272.604 246.684 272.604 245.956C272.604 245.214 273.22 244.738 274.046 244.738C274.69 244.738 275.32 244.976 275.656 245.438V246.46C275.32 246.922 274.69 247.16 274.046 247.16ZM281.062 248.168C281.748 248.168 282.182 247.986 282.448 247.734L282.098 246.628C281.986 246.754 281.72 246.866 281.44 246.866C281.02 246.866 280.796 246.53 280.796 246.068V242.526H282.168V241.238H280.796V239.39H279.326V241.238H278.206V242.526H279.326V246.432C279.326 247.552 279.928 248.168 281.062 248.168ZM285.323 248V242.526H286.695V241.238H285.323V240.86C285.323 240.104 285.687 239.726 286.261 239.726C286.597 239.726 286.849 239.838 287.045 240.02L287.619 239.11C287.199 238.676 286.597 238.522 285.995 238.522C284.707 238.522 283.853 239.39 283.853 240.86V241.238H282.733V242.526H283.853V248H285.323ZM290.861 248.168C293.031 248.168 294.347 246.558 294.347 244.612C294.347 242.68 293.031 241.07 290.861 241.07C288.719 241.07 287.389 242.68 287.389 244.612C287.389 246.558 288.719 248.168 290.861 248.168ZM290.861 246.866C289.615 246.866 288.915 245.816 288.915 244.612C288.915 243.422 289.615 242.372 290.861 242.372C292.121 242.372 292.821 243.422 292.821 244.612C292.821 245.816 292.121 246.866 290.861 246.866ZM297.305 248V243.394C297.599 242.918 298.425 242.498 299.041 242.498C299.223 242.498 299.377 242.512 299.503 242.54V241.084C298.621 241.084 297.809 241.588 297.305 242.232V241.238H295.835V248H297.305ZM310.446 248V243.114C310.446 241.742 309.746 241.07 308.5 241.07C307.492 241.07 306.596 241.7 306.204 242.316C305.98 241.574 305.364 241.07 304.356 241.07C303.334 241.07 302.438 241.742 302.158 242.162V241.238H300.688V248H302.158V243.282C302.466 242.834 303.068 242.372 303.712 242.372C304.51 242.372 304.832 242.862 304.832 243.59V248H306.302V243.268C306.596 242.834 307.212 242.372 307.87 242.372C308.654 242.372 308.976 242.862 308.976 243.59V248H310.446ZM320.468 248.168C322.358 248.168 323.506 247.188 324.22 246.068L322.82 245.354C322.372 246.138 321.476 246.712 320.468 246.712C318.62 246.712 317.248 245.298 317.248 243.338C317.248 241.378 318.62 239.964 320.468 239.964C321.476 239.964 322.372 240.552 322.82 241.322L324.22 240.608C323.52 239.488 322.358 238.508 320.468 238.508C317.71 238.508 315.568 240.468 315.568 243.338C315.568 246.208 317.71 248.168 320.468 248.168ZM331.537 248V243.212C331.537 241.826 330.809 241.07 329.353 241.07C328.289 241.07 327.407 241.63 326.959 242.162V238.662H325.489V248H326.959V243.282C327.309 242.82 327.953 242.372 328.695 242.372C329.521 242.372 330.067 242.694 330.067 243.744V248H331.537ZM339.046 248V243.52C339.046 241.7 337.73 241.07 336.232 241.07C335.154 241.07 334.174 241.42 333.39 242.162L333.992 243.184C334.58 242.61 335.238 242.33 335.994 242.33C336.932 242.33 337.576 242.806 337.576 243.59V244.598C337.086 244.024 336.302 243.73 335.392 243.73C334.286 243.73 333.04 244.374 333.04 245.928C333.04 247.426 334.286 248.168 335.392 248.168C336.288 248.168 337.072 247.846 337.576 247.272V248H339.046ZM335.966 247.16C335.14 247.16 334.524 246.684 334.524 245.956C334.524 245.214 335.14 244.738 335.966 244.738C336.61 244.738 337.24 244.976 337.576 245.438V246.46C337.24 246.922 336.61 247.16 335.966 247.16ZM341.68 240.412C342.184 240.412 342.59 240.006 342.59 239.502C342.59 238.998 342.184 238.592 341.68 238.592C341.19 238.592 340.77 238.998 340.77 239.502C340.77 240.006 341.19 240.412 341.68 240.412ZM342.422 248V241.238H340.952V248H342.422ZM350.363 248V243.24C350.363 241.854 349.635 241.07 348.179 241.07C347.115 241.07 346.247 241.63 345.799 242.162V241.238H344.329V248H345.799V243.282C346.135 242.82 346.779 242.372 347.535 242.372C348.361 242.372 348.893 242.722 348.893 243.772V248H350.363ZM287.515 266V256.662H285.877V263.144L281.103 256.662H279.423V266H281.061V259.336L285.933 266H287.515ZM292.579 266.168C293.657 266.168 294.651 265.832 295.323 265.188L294.651 264.222C294.175 264.698 293.391 264.964 292.733 264.964C291.459 264.964 290.689 264.124 290.577 263.102H295.799V262.752C295.799 260.624 294.497 259.07 292.467 259.07C290.465 259.07 289.037 260.652 289.037 262.612C289.037 264.754 290.549 266.168 292.579 266.168ZM294.371 262.066H290.563C290.633 261.24 291.207 260.274 292.467 260.274C293.797 260.274 294.343 261.268 294.371 262.066ZM299.28 266.168C299.966 266.168 300.4 265.986 300.666 265.734L300.316 264.628C300.204 264.754 299.938 264.866 299.658 264.866C299.238 264.866 299.014 264.53 299.014 264.068V260.526H300.386V259.238H299.014V257.39H297.544V259.238H296.424V260.526H297.544V264.432C297.544 265.552 298.146 266.168 299.28 266.168ZM309.155 266L311.255 259.238H309.729L308.301 264.152L306.691 259.238H305.403L303.793 264.152L302.365 259.238H300.839L302.939 266H304.479L306.047 261.044L307.615 266H309.155ZM315.327 266.168C317.497 266.168 318.813 264.558 318.813 262.612C318.813 260.68 317.497 259.07 315.327 259.07C313.185 259.07 311.855 260.68 311.855 262.612C311.855 264.558 313.185 266.168 315.327 266.168ZM315.327 264.866C314.081 264.866 313.381 263.816 313.381 262.612C313.381 261.422 314.081 260.372 315.327 260.372C316.587 260.372 317.287 261.422 317.287 262.612C317.287 263.816 316.587 264.866 315.327 264.866ZM321.771 266V261.394C322.065 260.918 322.891 260.498 323.507 260.498C323.689 260.498 323.843 260.512 323.969 260.54V259.084C323.087 259.084 322.275 259.588 321.771 260.232V259.238H320.301V266H321.771ZM331.482 266L328.612 262.304L331.426 259.238H329.606L326.624 262.5V256.662H325.154V266H326.624V264.18L327.562 263.214L329.634 266H331.482Z" fill="#111921"/>
<g filter="url(#filter0_ddd)">
<rect x="275" y="279" width="59" height="30" rx="8" fill="white"/>
<path d="M292.712 298C294.462 298 295.428 296.922 295.428 295.48C295.428 294.332 294.616 293.338 293.622 293.184C294.49 293.002 295.246 292.218 295.246 291.042C295.246 289.726 294.294 288.662 292.586 288.662H287.994V298H292.712ZM292.25 292.526H289.632V290.104H292.25C293.09 290.104 293.566 290.622 293.566 291.322C293.566 292.022 293.09 292.526 292.25 292.526ZM292.32 296.558H289.632V293.968H292.32C293.258 293.968 293.748 294.556 293.748 295.256C293.748 296.068 293.216 296.558 292.32 296.558ZM298.5 298V288.662H297.03V298H298.5ZM303.459 298.168C305.629 298.168 306.945 296.558 306.945 294.612C306.945 292.68 305.629 291.07 303.459 291.07C301.317 291.07 299.987 292.68 299.987 294.612C299.987 296.558 301.317 298.168 303.459 298.168ZM303.459 296.866C302.213 296.866 301.513 295.816 301.513 294.612C301.513 293.422 302.213 292.372 303.459 292.372C304.719 292.372 305.419 293.422 305.419 294.612C305.419 295.816 304.719 296.866 303.459 296.866ZM311.512 298.168C312.828 298.168 313.626 297.608 314.102 296.964L313.136 296.068C312.758 296.586 312.24 296.866 311.582 296.866C310.35 296.866 309.538 295.928 309.538 294.612C309.538 293.296 310.35 292.372 311.582 292.372C312.24 292.372 312.758 292.638 313.136 293.17L314.102 292.274C313.626 291.63 312.828 291.07 311.512 291.07C309.454 291.07 308.012 292.568 308.012 294.612C308.012 296.67 309.454 298.168 311.512 298.168ZM321.719 298L318.849 294.304L321.663 291.238H319.843L316.861 294.5V288.662H315.391V298H316.861V296.18L317.799 295.214L319.871 298H321.719Z" fill="#111921"/>
<rect x="275" y="279" width="59" height="30" rx="8" stroke="#111921" stroke-width="0.5"/>
</g>
<path d="M477 368.5L473.517 360.571L468.392 367.552L477 368.5ZM469.196 362.77L469.64 362.166L469.196 362.77ZM381.086 340.25H398.179V338.75H381.086V340.25ZM468.752 363.375L471.115 365.11L472.003 363.901L469.64 362.166L468.752 363.375ZM398.179 340.25C423.565 340.25 448.289 348.351 468.752 363.375L469.64 362.166C448.919 346.953 423.884 338.75 398.179 338.75V340.25ZM309.456 309.517C328.115 329.141 354.008 340.25 381.086 340.25V338.75C354.419 338.75 328.919 327.809 310.544 308.483L309.456 309.517Z" fill="#0C0C0D"/>
<path d="M133 368.5L136.483 360.571L141.608 367.552L133 368.5ZM140.804 362.77L140.36 362.166L140.804 362.77ZM228.914 340.25H211.821V338.75H228.914V340.25ZM141.248 363.375L138.885 365.11L137.997 363.901L140.36 362.166L141.248 363.375ZM211.821 340.25C186.435 340.25 161.711 348.351 141.248 363.375L140.36 362.166C161.081 346.953 186.116 338.75 211.821 338.75V340.25ZM300.544 309.517C281.885 329.141 255.992 340.25 228.914 340.25V338.75C255.581 338.75 281.081 327.809 299.456 308.483L300.544 309.517Z" fill="#0C0C0D"/>
<path d="M334 294L342.295 291.512L335.993 285.572L334 294ZM341.434 104.492L358.235 123.854L359.368 122.871L342.566 103.508L341.434 104.492ZM355.226 270.383L338.084 288.573L339.175 289.602L356.318 271.412L355.226 270.383ZM358.235 123.854C395.002 166.225 393.701 229.557 355.226 270.383L356.318 271.412C395.321 230.025 396.639 165.824 359.368 122.871L358.235 123.854Z" fill="#0C0C0D"/>
<rect x="378" y="186" width="17" height="15" rx="7.5" fill="#0C0C0D"/>
<path d="M388.23 197V195.49H389.12V194.46H388.23V190.33H386.62L383.88 194.55V195.49H387.06V197H388.23ZM387.06 194.46H385.03L387.06 191.38V194.46Z" fill="white"/>
<defs>
<filter id="filter0_ddd" x="223.75" y="278.75" width="161.5" height="181.5" filterUnits="userSpaceOnUse" color-interpolation-filters="sRGB">
<feFlood flood-opacity="0" result="BackgroundImageFix"/>
<feColorMatrix in="SourceAlpha" type="matrix" values="0 0 0 0 0 0 0 0 0 0 0 0 0 0 0 0 0 0 127 0"/>
<feOffset dy="6.6501"/>
<feGaussianBlur stdDeviation="1.69578"/>
<feColorMatrix type="matrix" values="0 0 0 0 0.584314 0 0 0 0 0.498039 0 0 0 0 0.807843 0 0 0 0.0201946 0"/>
<feBlend mode="normal" in2="BackgroundImageFix" result="effect1_dropShadow"/>
<feColorMatrix in="SourceAlpha" type="matrix" values="0 0 0 0 0 0 0 0 0 0 0 0 0 0 0 0 0 0 127 0"/>
<feOffset dy="22.3363"/>
<feGaussianBlur stdDeviation="5.69576"/>
<feColorMatrix type="matrix" values="0 0 0 0 0.584314 0 0 0 0 0.498039 0 0 0 0 0.807843 0 0 0 0.0298054 0"/>
<feBlend mode="normal" in2="effect1_dropShadow" result="effect2_dropShadow"/>
<feColorMatrix in="SourceAlpha" type="matrix" values="0 0 0 0 0 0 0 0 0 0 0 0 0 0 0 0 0 0 127 0"/>
<feOffset dy="100"/>
<feGaussianBlur stdDeviation="25.5"/>
<feColorMatrix type="matrix" values="0 0 0 0 0.584314 0 0 0 0 0.498039 0 0 0 0 0.807843 0 0 0 0.05 0"/>
<feBlend mode="normal" in2="effect2_dropShadow" result="effect3_dropShadow"/>
<feBlend mode="normal" in="SourceGraphic" in2="effect3_dropShadow" result="shape"/>
</filter>
</defs>
</svg>
