<svg width="612" height="517" viewBox="0 0 612 517" fill="none" xmlns="http://www.w3.org/2000/svg">
<rect x="1" y="59" width="200" height="457" rx="12" fill="#FAFAFC" stroke="#BABABF" stroke-width="1.5" stroke-linecap="round" stroke-dasharray="0.5 5"/>
<rect x="11" y="167" width="180" height="339" rx="6" fill="#FAFAFC" stroke="#BABABF" stroke-width="1.5" stroke-linecap="round" stroke-dasharray="0.5 5"/>
<rect x="21" y="354" width="160" height="142" rx="4" fill="#D9EAD3" stroke="#B6D7A8" stroke-linecap="round"/>
<rect x="34" y="1" width="134" height="38" rx="10" fill="#F1F1F7"/>
<path d="M56.6508 24.168C59.1708 24.168 60.2628 22.838 60.2628 21.284C60.2628 17.798 54.8308 18.876 54.8308 17.14C54.8308 16.44 55.4468 15.978 56.4128 15.978C57.3928 15.978 58.3868 16.314 59.1148 17.042L60.0528 15.824C59.1848 14.984 58.0088 14.522 56.5528 14.522C54.5088 14.522 53.1508 15.712 53.1508 17.252C53.1508 20.696 58.5968 19.478 58.5968 21.438C58.5968 22.054 58.0648 22.712 56.7208 22.712C55.4188 22.712 54.4108 22.11 53.7668 21.424L52.8568 22.684C53.6828 23.566 54.9288 24.168 56.6508 24.168ZM63.5543 24.168C64.2403 24.168 64.6743 23.986 64.9403 23.734L64.5903 22.628C64.4783 22.754 64.2123 22.866 63.9323 22.866C63.5123 22.866 63.2883 22.53 63.2883 22.068V18.526H64.6603V17.238H63.2883V15.39H61.8183V17.238H60.6983V18.526H61.8183V22.432C61.8183 23.552 62.4203 24.168 63.5543 24.168ZM71.595 24V19.52C71.595 17.7 70.279 17.07 68.781 17.07C67.703 17.07 66.723 17.42 65.939 18.162L66.541 19.184C67.129 18.61 67.787 18.33 68.543 18.33C69.481 18.33 70.125 18.806 70.125 19.59V20.598C69.635 20.024 68.851 19.73 67.941 19.73C66.835 19.73 65.589 20.374 65.589 21.928C65.589 23.426 66.835 24.168 67.941 24.168C68.837 24.168 69.621 23.846 70.125 23.272V24H71.595ZM68.515 23.16C67.689 23.16 67.073 22.684 67.073 21.956C67.073 21.214 67.689 20.738 68.515 20.738C69.159 20.738 69.789 20.976 70.125 21.438V22.46C69.789 22.922 69.159 23.16 68.515 23.16ZM75.5308 24.168C76.2168 24.168 76.6508 23.986 76.9168 23.734L76.5668 22.628C76.4548 22.754 76.1888 22.866 75.9088 22.866C75.4888 22.866 75.2648 22.53 75.2648 22.068V18.526H76.6368V17.238H75.2648V15.39H73.7948V17.238H72.6748V18.526H73.7948V22.432C73.7948 23.552 74.3968 24.168 75.5308 24.168ZM81.0935 24.168C82.1715 24.168 83.1655 23.832 83.8375 23.188L83.1655 22.222C82.6895 22.698 81.9055 22.964 81.2475 22.964C79.9735 22.964 79.2035 22.124 79.0915 21.102H84.3135V20.752C84.3135 18.624 83.0115 17.07 80.9815 17.07C78.9795 17.07 77.5515 18.652 77.5515 20.612C77.5515 22.754 79.0635 24.168 81.0935 24.168ZM82.8855 20.066H79.0775C79.1475 19.24 79.7215 18.274 80.9815 18.274C82.3115 18.274 82.8575 19.268 82.8855 20.066ZM93.2662 24V16.104H96.0942V14.662H88.8002V16.104H91.6282V24H93.2662ZM97.8575 24V19.394C98.1515 18.918 98.9775 18.498 99.5935 18.498C99.7755 18.498 99.9295 18.512 100.056 18.54V17.084C99.1735 17.084 98.3615 17.588 97.8575 18.232V17.238H96.3875V24H97.8575ZM106.841 24V19.52C106.841 17.7 105.525 17.07 104.027 17.07C102.949 17.07 101.969 17.42 101.185 18.162L101.787 19.184C102.375 18.61 103.033 18.33 103.789 18.33C104.727 18.33 105.371 18.806 105.371 19.59V20.598C104.881 20.024 104.097 19.73 103.187 19.73C102.081 19.73 100.835 20.374 100.835 21.928C100.835 23.426 102.081 24.168 103.187 24.168C104.083 24.168 104.867 23.846 105.371 23.272V24H106.841ZM103.761 23.16C102.935 23.16 102.319 22.684 102.319 21.956C102.319 21.214 102.935 20.738 103.761 20.738C104.405 20.738 105.035 20.976 105.371 21.438V22.46C105.035 22.922 104.405 23.16 103.761 23.16ZM114.781 24V19.24C114.781 17.854 114.053 17.07 112.597 17.07C111.533 17.07 110.665 17.63 110.217 18.162V17.238H108.747V24H110.217V19.282C110.553 18.82 111.197 18.372 111.953 18.372C112.779 18.372 113.311 18.722 113.311 19.772V24H114.781ZM119 24.168C120.82 24.168 121.814 23.258 121.814 22.068C121.814 19.38 117.726 20.276 117.726 19.072C117.726 18.596 118.216 18.246 118.986 18.246C119.826 18.246 120.582 18.596 120.988 19.058L121.604 18.022C120.988 17.476 120.12 17.07 118.972 17.07C117.264 17.07 116.312 18.022 116.312 19.128C116.312 21.718 120.4 20.766 120.4 22.096C120.4 22.628 119.952 23.006 119.07 23.006C118.188 23.006 117.25 22.544 116.774 22.054L116.102 23.118C116.802 23.804 117.852 24.168 119 24.168ZM124.022 16.412C124.526 16.412 124.932 16.006 124.932 15.502C124.932 14.998 124.526 14.592 124.022 14.592C123.532 14.592 123.112 14.998 123.112 15.502C123.112 16.006 123.532 16.412 124.022 16.412ZM124.764 24V17.238H123.294V24H124.764ZM128.701 24.168C129.387 24.168 129.821 23.986 130.087 23.734L129.737 22.628C129.625 22.754 129.359 22.866 129.079 22.866C128.659 22.866 128.435 22.53 128.435 22.068V18.526H129.807V17.238H128.435V15.39H126.965V17.238H125.845V18.526H126.965V22.432C126.965 23.552 127.567 24.168 128.701 24.168ZM131.869 16.412C132.373 16.412 132.779 16.006 132.779 15.502C132.779 14.998 132.373 14.592 131.869 14.592C131.379 14.592 130.959 14.998 130.959 15.502C130.959 16.006 131.379 16.412 131.869 16.412ZM132.611 24V17.238H131.141V24H132.611ZM137.57 24.168C139.74 24.168 141.056 22.558 141.056 20.612C141.056 18.68 139.74 17.07 137.57 17.07C135.428 17.07 134.098 18.68 134.098 20.612C134.098 22.558 135.428 24.168 137.57 24.168ZM137.57 22.866C136.324 22.866 135.624 21.816 135.624 20.612C135.624 19.422 136.324 18.372 137.57 18.372C138.83 18.372 139.53 19.422 139.53 20.612C139.53 21.816 138.83 22.866 137.57 22.866ZM148.578 24V19.24C148.578 17.854 147.85 17.07 146.394 17.07C145.33 17.07 144.462 17.63 144.014 18.162V17.238H142.544V24H144.014V19.282C144.35 18.82 144.994 18.372 145.75 18.372C146.576 18.372 147.108 18.722 147.108 19.772V24H148.578Z" fill="#111921"/>
<rect x="34" y="1" width="134" height="38" rx="10" stroke="#111921" stroke-width="0.5"/>
<rect x="46" y="99" width="110" height="38" rx="10" fill="#E3DDF2"/>
<path d="M89.466 122C92.378 122 94.352 120.082 94.352 117.338C94.352 114.594 92.378 112.662 89.466 112.662H85.994V122H89.466ZM89.466 120.558H87.632V114.104H89.466C91.552 114.104 92.672 115.532 92.672 117.338C92.672 119.102 91.496 120.558 89.466 120.558ZM103.841 122L100.173 112.662H98.1293L94.4613 122H96.3233L97.0093 120.208H101.293L101.979 122H103.841ZM100.831 118.766H97.4713L99.1513 114.314L100.831 118.766ZM106.499 122V118.514H108.963C110.909 118.514 112.015 117.17 112.015 115.588C112.015 114.006 110.923 112.662 108.963 112.662H104.861V122H106.499ZM108.739 117.072H106.499V114.104H108.739C109.663 114.104 110.335 114.692 110.335 115.588C110.335 116.484 109.663 117.072 108.739 117.072ZM115.017 122V112.662H113.379V122H115.017Z" fill="#111921"/>
<rect x="46" y="99" width="110" height="38" rx="10" stroke="#957FCE" stroke-width="0.5"/>
<path d="M26.696 84V74.662H24.386L21.838 80.808L19.304 74.662H16.994V84H18.632V77.07L21.488 84H22.188L25.058 77.07V84H26.696ZM34.2415 84V79.52C34.2415 77.7 32.9255 77.07 31.4275 77.07C30.3495 77.07 29.3695 77.42 28.5855 78.162L29.1875 79.184C29.7755 78.61 30.4335 78.33 31.1895 78.33C32.1275 78.33 32.7715 78.806 32.7715 79.59V80.598C32.2815 80.024 31.4975 79.73 30.5875 79.73C29.4815 79.73 28.2355 80.374 28.2355 81.928C28.2355 83.426 29.4815 84.168 30.5875 84.168C31.4835 84.168 32.2675 83.846 32.7715 83.272V84H34.2415ZM31.1615 83.16C30.3355 83.16 29.7195 82.684 29.7195 81.956C29.7195 81.214 30.3355 80.738 31.1615 80.738C31.8055 80.738 32.4355 80.976 32.7715 81.438V82.46C32.4355 82.922 31.8055 83.16 31.1615 83.16ZM38.4573 84.168C40.2773 84.168 41.2713 83.258 41.2713 82.068C41.2713 79.38 37.1833 80.276 37.1833 79.072C37.1833 78.596 37.6733 78.246 38.4433 78.246C39.2833 78.246 40.0393 78.596 40.4453 79.058L41.0613 78.022C40.4453 77.476 39.5773 77.07 38.4293 77.07C36.7213 77.07 35.7693 78.022 35.7693 79.128C35.7693 81.718 39.8573 80.766 39.8573 82.096C39.8573 82.628 39.4093 83.006 38.5273 83.006C37.6453 83.006 36.7073 82.544 36.2313 82.054L35.5593 83.118C36.2593 83.804 37.3093 84.168 38.4573 84.168ZM44.7808 84.168C45.4668 84.168 45.9008 83.986 46.1668 83.734L45.8168 82.628C45.7048 82.754 45.4388 82.866 45.1588 82.866C44.7388 82.866 44.5148 82.53 44.5148 82.068V78.526H45.8868V77.238H44.5148V75.39H43.0448V77.238H41.9248V78.526H43.0448V82.432C43.0448 83.552 43.6468 84.168 44.7808 84.168ZM50.3435 84.168C51.4215 84.168 52.4155 83.832 53.0875 83.188L52.4155 82.222C51.9395 82.698 51.1555 82.964 50.4975 82.964C49.2235 82.964 48.4535 82.124 48.3415 81.102H53.5635V80.752C53.5635 78.624 52.2615 77.07 50.2315 77.07C48.2295 77.07 46.8015 78.652 46.8015 80.612C46.8015 82.754 48.3135 84.168 50.3435 84.168ZM52.1355 80.066H48.3275C48.3975 79.24 48.9715 78.274 50.2315 78.274C51.5615 78.274 52.1075 79.268 52.1355 80.066ZM56.4845 84V79.394C56.7785 78.918 57.6045 78.498 58.2205 78.498C58.4025 78.498 58.5565 78.512 58.6825 78.54V77.084C57.8005 77.084 56.9885 77.588 56.4845 78.232V77.238H55.0145V84H56.4845ZM65.902 84V79.24C65.902 77.854 65.174 77.07 63.718 77.07C62.654 77.07 61.786 77.63 61.338 78.162V77.238H59.868V84H61.338V79.282C61.674 78.82 62.318 78.372 63.074 78.372C63.9 78.372 64.432 78.722 64.432 79.772V84H65.902ZM70.8634 84.168C73.0334 84.168 74.3494 82.558 74.3494 80.612C74.3494 78.68 73.0334 77.07 70.8634 77.07C68.7214 77.07 67.3914 78.68 67.3914 80.612C67.3914 82.558 68.7214 84.168 70.8634 84.168ZM70.8634 82.866C69.6174 82.866 68.9174 81.816 68.9174 80.612C68.9174 79.422 69.6174 78.372 70.8634 78.372C72.1234 78.372 72.8234 79.422 72.8234 80.612C72.8234 81.816 72.1234 82.866 70.8634 82.866ZM82.0668 84V74.662H80.5968V78.176C80.0508 77.462 79.2668 77.07 78.4268 77.07C76.6768 77.07 75.4168 78.442 75.4168 80.626C75.4168 82.852 76.6908 84.168 78.4268 84.168C79.2948 84.168 80.0788 83.748 80.5968 83.076V84H82.0668ZM78.8468 82.866C77.6848 82.866 76.9428 81.928 76.9428 80.626C76.9428 79.31 77.6848 78.372 78.8468 78.372C79.5468 78.372 80.2608 78.778 80.5968 79.282V81.97C80.2608 82.474 79.5468 82.866 78.8468 82.866ZM87.0935 84.168C88.1715 84.168 89.1655 83.832 89.8375 83.188L89.1655 82.222C88.6895 82.698 87.9055 82.964 87.2475 82.964C85.9735 82.964 85.2035 82.124 85.0915 81.102H90.3135V80.752C90.3135 78.624 89.0115 77.07 86.9815 77.07C84.9795 77.07 83.5515 78.652 83.5515 80.612C83.5515 82.754 85.0635 84.168 87.0935 84.168ZM88.8855 80.066H85.0775C85.1475 79.24 85.7215 78.274 86.9815 78.274C88.3115 78.274 88.8575 79.268 88.8855 80.066Z" fill="#111921"/>
<path d="M30.466 192C33.378 192 35.352 190.082 35.352 187.338C35.352 184.594 33.378 182.662 30.466 182.662H26.994V192H30.466ZM30.466 190.558H28.632V184.104H30.466C32.552 184.104 33.672 185.532 33.672 187.338C33.672 189.102 32.496 190.558 30.466 190.558ZM38.3615 192V187.394C38.6555 186.918 39.4815 186.498 40.0975 186.498C40.2795 186.498 40.4335 186.512 40.5595 186.54V185.084C39.6775 185.084 38.8655 185.588 38.3615 186.232V185.238H36.8915V192H38.3615ZM42.473 184.412C42.977 184.412 43.383 184.006 43.383 183.502C43.383 182.998 42.977 182.592 42.473 182.592C41.983 182.592 41.563 182.998 41.563 183.502C41.563 184.006 41.983 184.412 42.473 184.412ZM43.215 192V185.238H41.745V192H43.215ZM48.4819 192L51.2399 185.238H49.6579L47.6839 190.306L45.7099 185.238H44.1419L46.8999 192H48.4819ZM55.2849 192.168C56.3629 192.168 57.3569 191.832 58.0289 191.188L57.3569 190.222C56.8809 190.698 56.0969 190.964 55.4389 190.964C54.1649 190.964 53.3949 190.124 53.2829 189.102H58.5049V188.752C58.5049 186.624 57.2029 185.07 55.1729 185.07C53.1709 185.07 51.7429 186.652 51.7429 188.612C51.7429 190.754 53.2549 192.168 55.2849 192.168ZM57.0769 188.066H53.2689C53.3389 187.24 53.9129 186.274 55.1729 186.274C56.5029 186.274 57.0489 187.268 57.0769 188.066Z" fill="#111921"/>
<rect x="37" y="208" width="129" height="38" rx="10" fill="#D9EAD3"/>
<path d="M57.632 231V227.514H60.096C62.042 227.514 63.148 226.17 63.148 224.588C63.148 223.006 62.056 221.662 60.096 221.662H55.994V231H57.632ZM59.872 226.072H57.632V223.104H59.872C60.796 223.104 61.468 223.692 61.468 224.588C61.468 225.484 60.796 226.072 59.872 226.072ZM65.9396 231V221.662H64.4696V231H65.9396ZM73.4465 231V226.52C73.4465 224.7 72.1305 224.07 70.6325 224.07C69.5545 224.07 68.5745 224.42 67.7905 225.162L68.3925 226.184C68.9805 225.61 69.6385 225.33 70.3945 225.33C71.3325 225.33 71.9765 225.806 71.9765 226.59V227.598C71.4865 227.024 70.7025 226.73 69.7925 226.73C68.6865 226.73 67.4405 227.374 67.4405 228.928C67.4405 230.426 68.6865 231.168 69.7925 231.168C70.6885 231.168 71.4725 230.846 71.9765 230.272V231H73.4465ZM70.3665 230.16C69.5405 230.16 68.9245 229.684 68.9245 228.956C68.9245 228.214 69.5405 227.738 70.3665 227.738C71.0105 227.738 71.6405 227.976 71.9765 228.438V229.46C71.6405 229.922 71.0105 230.16 70.3665 230.16ZM77.3824 231.168C78.0684 231.168 78.5024 230.986 78.7684 230.734L78.4184 229.628C78.3064 229.754 78.0404 229.866 77.7604 229.866C77.3404 229.866 77.1164 229.53 77.1164 229.068V225.526H78.4884V224.238H77.1164V222.39H75.6464V224.238H74.5264V225.526H75.6464V229.432C75.6464 230.552 76.2484 231.168 77.3824 231.168ZM81.6431 231V225.526H83.0151V224.238H81.6431V223.86C81.6431 223.104 82.0071 222.726 82.5811 222.726C82.9171 222.726 83.1691 222.838 83.3651 223.02L83.9391 222.11C83.5191 221.676 82.9171 221.522 82.3151 221.522C81.0271 221.522 80.1731 222.39 80.1731 223.86V224.238H79.0531V225.526H80.1731V231H81.6431ZM87.1817 231.168C89.3517 231.168 90.6677 229.558 90.6677 227.612C90.6677 225.68 89.3517 224.07 87.1817 224.07C85.0397 224.07 83.7097 225.68 83.7097 227.612C83.7097 229.558 85.0397 231.168 87.1817 231.168ZM87.1817 229.866C85.9357 229.866 85.2357 228.816 85.2357 227.612C85.2357 226.422 85.9357 225.372 87.1817 225.372C88.4417 225.372 89.1417 226.422 89.1417 227.612C89.1417 228.816 88.4417 229.866 87.1817 229.866ZM93.6251 231V226.394C93.9191 225.918 94.7451 225.498 95.3611 225.498C95.5431 225.498 95.6971 225.512 95.8231 225.54V224.084C94.9411 224.084 94.1291 224.588 93.6251 225.232V224.238H92.1551V231H93.6251ZM106.767 231V226.114C106.767 224.742 106.067 224.07 104.821 224.07C103.813 224.07 102.917 224.7 102.525 225.316C102.301 224.574 101.685 224.07 100.677 224.07C99.6546 224.07 98.7586 224.742 98.4786 225.162V224.238H97.0086V231H98.4786V226.282C98.7866 225.834 99.3886 225.372 100.033 225.372C100.831 225.372 101.153 225.862 101.153 226.59V231H102.623V226.268C102.917 225.834 103.533 225.372 104.191 225.372C104.975 225.372 105.297 225.862 105.297 226.59V231H106.767ZM116.788 231.168C118.678 231.168 119.826 230.188 120.54 229.068L119.14 228.354C118.692 229.138 117.796 229.712 116.788 229.712C114.94 229.712 113.568 228.298 113.568 226.338C113.568 224.378 114.94 222.964 116.788 222.964C117.796 222.964 118.692 223.552 119.14 224.322L120.54 223.608C119.84 222.488 118.678 221.508 116.788 221.508C114.03 221.508 111.888 223.468 111.888 226.338C111.888 229.208 114.03 231.168 116.788 231.168ZM127.857 231V226.212C127.857 224.826 127.129 224.07 125.673 224.07C124.609 224.07 123.727 224.63 123.279 225.162V221.662H121.809V231H123.279V226.282C123.629 225.82 124.273 225.372 125.015 225.372C125.841 225.372 126.387 225.694 126.387 226.744V231H127.857ZM135.366 231V226.52C135.366 224.7 134.05 224.07 132.552 224.07C131.474 224.07 130.494 224.42 129.71 225.162L130.312 226.184C130.9 225.61 131.558 225.33 132.314 225.33C133.252 225.33 133.896 225.806 133.896 226.59V227.598C133.406 227.024 132.622 226.73 131.712 226.73C130.606 226.73 129.36 227.374 129.36 228.928C129.36 230.426 130.606 231.168 131.712 231.168C132.608 231.168 133.392 230.846 133.896 230.272V231H135.366ZM132.286 230.16C131.46 230.16 130.844 229.684 130.844 228.956C130.844 228.214 131.46 227.738 132.286 227.738C132.93 227.738 133.56 227.976 133.896 228.438V229.46C133.56 229.922 132.93 230.16 132.286 230.16ZM138 223.412C138.504 223.412 138.91 223.006 138.91 222.502C138.91 221.998 138.504 221.592 138 221.592C137.51 221.592 137.09 221.998 137.09 222.502C137.09 223.006 137.51 223.412 138 223.412ZM138.742 231V224.238H137.272V231H138.742ZM146.683 231V226.24C146.683 224.854 145.955 224.07 144.499 224.07C143.435 224.07 142.567 224.63 142.119 225.162V224.238H140.649V231H142.119V226.282C142.455 225.82 143.099 225.372 143.855 225.372C144.681 225.372 145.213 225.722 145.213 226.772V231H146.683Z" fill="#111921"/>
<rect x="37" y="208" width="129" height="38" rx="10" stroke="#B6D7A8" stroke-width="0.5"/>
<rect x="31" y="394" width="108" height="30" rx="7" fill="#D9EAD3"/>
<path d="M52.394 413L48.726 403.662H46.682L43.014 413H44.876L45.562 411.208H49.846L50.532 413H52.394ZM49.384 409.766H46.024L47.704 405.314L49.384 409.766ZM57.0119 413.168C58.7619 413.168 60.0079 411.838 60.0079 409.612C60.0079 407.386 58.7619 406.07 57.0119 406.07C56.1299 406.07 55.3459 406.49 54.8419 407.162V406.238H53.3719V415.576H54.8419V412.062C55.3879 412.79 56.1579 413.168 57.0119 413.168ZM56.5779 411.866C55.8919 411.866 55.1639 411.446 54.8419 410.956V408.282C55.1639 407.778 55.8919 407.372 56.5779 407.372C57.7399 407.372 58.4819 408.31 58.4819 409.612C58.4819 410.928 57.7399 411.866 56.5779 411.866ZM65.1057 413.168C66.8557 413.168 68.1017 411.838 68.1017 409.612C68.1017 407.386 66.8557 406.07 65.1057 406.07C64.2237 406.07 63.4397 406.49 62.9357 407.162V406.238H61.4657V415.576H62.9357V412.062C63.4817 412.79 64.2517 413.168 65.1057 413.168ZM64.6717 411.866C63.9857 411.866 63.2577 411.446 62.9357 410.956V408.282C63.2577 407.778 63.9857 407.372 64.6717 407.372C65.8337 407.372 66.5757 408.31 66.5757 409.612C66.5757 410.928 65.8337 411.866 64.6717 411.866ZM71.0294 413V403.662H69.5594V413H71.0294ZM73.6644 405.412C74.1684 405.412 74.5744 405.006 74.5744 404.502C74.5744 403.998 74.1684 403.592 73.6644 403.592C73.1744 403.592 72.7544 403.998 72.7544 404.502C72.7544 405.006 73.1744 405.412 73.6644 405.412ZM74.4064 413V406.238H72.9364V413H74.4064ZM79.3933 413.168C80.7093 413.168 81.5073 412.608 81.9833 411.964L81.0173 411.068C80.6393 411.586 80.1213 411.866 79.4633 411.866C78.2313 411.866 77.4193 410.928 77.4193 409.612C77.4193 408.296 78.2313 407.372 79.4633 407.372C80.1213 407.372 80.6393 407.638 81.0173 408.17L81.9833 407.274C81.5073 406.63 80.7093 406.07 79.3933 406.07C77.3353 406.07 75.8933 407.568 75.8933 409.612C75.8933 411.67 77.3353 413.168 79.3933 413.168ZM88.8723 413V408.52C88.8723 406.7 87.5563 406.07 86.0583 406.07C84.9803 406.07 84.0003 406.42 83.2163 407.162L83.8183 408.184C84.4063 407.61 85.0643 407.33 85.8203 407.33C86.7583 407.33 87.4023 407.806 87.4023 408.59V409.598C86.9123 409.024 86.1283 408.73 85.2183 408.73C84.1123 408.73 82.8663 409.374 82.8663 410.928C82.8663 412.426 84.1123 413.168 85.2183 413.168C86.1143 413.168 86.8983 412.846 87.4023 412.272V413H88.8723ZM85.7923 412.16C84.9663 412.16 84.3503 411.684 84.3503 410.956C84.3503 410.214 84.9663 409.738 85.7923 409.738C86.4363 409.738 87.0663 409.976 87.4023 410.438V411.46C87.0663 411.922 86.4363 412.16 85.7923 412.16ZM92.8082 413.168C93.4942 413.168 93.9282 412.986 94.1942 412.734L93.8442 411.628C93.7322 411.754 93.4662 411.866 93.1862 411.866C92.7662 411.866 92.5422 411.53 92.5422 411.068V407.526H93.9142V406.238H92.5422V404.39H91.0722V406.238H89.9522V407.526H91.0722V411.432C91.0722 412.552 91.6742 413.168 92.8082 413.168ZM95.9769 405.412C96.4809 405.412 96.8869 405.006 96.8869 404.502C96.8869 403.998 96.4809 403.592 95.9769 403.592C95.4869 403.592 95.0669 403.998 95.0669 404.502C95.0669 405.006 95.4869 405.412 95.9769 405.412ZM96.7189 413V406.238H95.2489V413H96.7189ZM101.678 413.168C103.848 413.168 105.164 411.558 105.164 409.612C105.164 407.68 103.848 406.07 101.678 406.07C99.5358 406.07 98.2058 407.68 98.2058 409.612C98.2058 411.558 99.5358 413.168 101.678 413.168ZM101.678 411.866C100.432 411.866 99.7318 410.816 99.7318 409.612C99.7318 408.422 100.432 407.372 101.678 407.372C102.938 407.372 103.638 408.422 103.638 409.612C103.638 410.816 102.938 411.866 101.678 411.866ZM112.685 413V408.24C112.685 406.854 111.957 406.07 110.501 406.07C109.437 406.07 108.569 406.63 108.121 407.162V406.238H106.651V413H108.121V408.282C108.457 407.82 109.101 407.372 109.857 407.372C110.683 407.372 111.215 407.722 111.215 408.772V413H112.685ZM126.632 413L122.964 403.662H120.92L117.252 413H119.114L119.8 411.208H124.084L124.77 413H126.632ZM123.622 409.766H120.262L121.942 405.314L123.622 409.766Z" fill="#111921"/>
<rect x="31" y="394" width="108" height="30" rx="7" stroke="#111921" stroke-dasharray="2 4"/>
<rect x="46" y="421" width="108" height="30" rx="7" fill="#D9EAD3"/>
<path d="M67.394 440L63.726 430.662H61.682L58.014 440H59.876L60.562 438.208H64.846L65.532 440H67.394ZM64.384 436.766H61.024L62.704 432.314L64.384 436.766ZM72.0119 440.168C73.7619 440.168 75.0079 438.838 75.0079 436.612C75.0079 434.386 73.7619 433.07 72.0119 433.07C71.1299 433.07 70.3459 433.49 69.8419 434.162V433.238H68.3719V442.576H69.8419V439.062C70.3879 439.79 71.1579 440.168 72.0119 440.168ZM71.5779 438.866C70.8919 438.866 70.1639 438.446 69.8419 437.956V435.282C70.1639 434.778 70.8919 434.372 71.5779 434.372C72.7399 434.372 73.4819 435.31 73.4819 436.612C73.4819 437.928 72.7399 438.866 71.5779 438.866ZM80.1057 440.168C81.8557 440.168 83.1017 438.838 83.1017 436.612C83.1017 434.386 81.8557 433.07 80.1057 433.07C79.2237 433.07 78.4397 433.49 77.9357 434.162V433.238H76.4657V442.576H77.9357V439.062C78.4817 439.79 79.2517 440.168 80.1057 440.168ZM79.6717 438.866C78.9857 438.866 78.2577 438.446 77.9357 437.956V435.282C78.2577 434.778 78.9857 434.372 79.6717 434.372C80.8337 434.372 81.5757 435.31 81.5757 436.612C81.5757 437.928 80.8337 438.866 79.6717 438.866ZM86.0294 440V430.662H84.5594V440H86.0294ZM88.6644 432.412C89.1684 432.412 89.5744 432.006 89.5744 431.502C89.5744 430.998 89.1684 430.592 88.6644 430.592C88.1744 430.592 87.7544 430.998 87.7544 431.502C87.7544 432.006 88.1744 432.412 88.6644 432.412ZM89.4064 440V433.238H87.9364V440H89.4064ZM94.3933 440.168C95.7093 440.168 96.5073 439.608 96.9833 438.964L96.0173 438.068C95.6393 438.586 95.1213 438.866 94.4633 438.866C93.2313 438.866 92.4193 437.928 92.4193 436.612C92.4193 435.296 93.2313 434.372 94.4633 434.372C95.1213 434.372 95.6393 434.638 96.0173 435.17L96.9833 434.274C96.5073 433.63 95.7093 433.07 94.3933 433.07C92.3353 433.07 90.8933 434.568 90.8933 436.612C90.8933 438.67 92.3353 440.168 94.3933 440.168ZM103.872 440V435.52C103.872 433.7 102.556 433.07 101.058 433.07C99.9803 433.07 99.0003 433.42 98.2163 434.162L98.8183 435.184C99.4063 434.61 100.064 434.33 100.82 434.33C101.758 434.33 102.402 434.806 102.402 435.59V436.598C101.912 436.024 101.128 435.73 100.218 435.73C99.1123 435.73 97.8663 436.374 97.8663 437.928C97.8663 439.426 99.1123 440.168 100.218 440.168C101.114 440.168 101.898 439.846 102.402 439.272V440H103.872ZM100.792 439.16C99.9663 439.16 99.3503 438.684 99.3503 437.956C99.3503 437.214 99.9663 436.738 100.792 436.738C101.436 436.738 102.066 436.976 102.402 437.438V438.46C102.066 438.922 101.436 439.16 100.792 439.16ZM107.808 440.168C108.494 440.168 108.928 439.986 109.194 439.734L108.844 438.628C108.732 438.754 108.466 438.866 108.186 438.866C107.766 438.866 107.542 438.53 107.542 438.068V434.526H108.914V433.238H107.542V431.39H106.072V433.238H104.952V434.526H106.072V438.432C106.072 439.552 106.674 440.168 107.808 440.168ZM110.977 432.412C111.481 432.412 111.887 432.006 111.887 431.502C111.887 430.998 111.481 430.592 110.977 430.592C110.487 430.592 110.067 430.998 110.067 431.502C110.067 432.006 110.487 432.412 110.977 432.412ZM111.719 440V433.238H110.249V440H111.719ZM116.678 440.168C118.848 440.168 120.164 438.558 120.164 436.612C120.164 434.68 118.848 433.07 116.678 433.07C114.536 433.07 113.206 434.68 113.206 436.612C113.206 438.558 114.536 440.168 116.678 440.168ZM116.678 438.866C115.432 438.866 114.732 437.816 114.732 436.612C114.732 435.422 115.432 434.372 116.678 434.372C117.938 434.372 118.638 435.422 118.638 436.612C118.638 437.816 117.938 438.866 116.678 438.866ZM127.685 440V435.24C127.685 433.854 126.957 433.07 125.501 433.07C124.437 433.07 123.569 433.63 123.121 434.162V433.238H121.651V440H123.121V435.282C123.457 434.82 124.101 434.372 124.857 434.372C125.683 434.372 126.215 434.722 126.215 435.772V440H127.685ZM137.95 440C139.7 440 140.666 438.922 140.666 437.48C140.666 436.332 139.854 435.338 138.86 435.184C139.728 435.002 140.484 434.218 140.484 433.042C140.484 431.726 139.532 430.662 137.824 430.662H133.232V440H137.95ZM137.488 434.526H134.87V432.104H137.488C138.328 432.104 138.804 432.622 138.804 433.322C138.804 434.022 138.328 434.526 137.488 434.526ZM137.558 438.558H134.87V435.968H137.558C138.496 435.968 138.986 436.556 138.986 437.256C138.986 438.068 138.454 438.558 137.558 438.558Z" fill="#111921"/>
<rect x="46" y="421" width="108" height="30" rx="7" stroke="#111921" stroke-dasharray="2 4"/>
<rect x="59" y="448" width="112" height="38" rx="7" fill="#D9EAD3"/>
<path d="M80.7055 464L77.0375 454.662H74.9935L71.3255 464H73.1875L73.8735 462.208H78.1575L78.8435 464H80.7055ZM77.6955 460.766H74.3355L76.0155 456.314L77.6955 460.766ZM85.3234 464.168C87.0734 464.168 88.3194 462.838 88.3194 460.612C88.3194 458.386 87.0734 457.07 85.3234 457.07C84.4414 457.07 83.6574 457.49 83.1534 458.162V457.238H81.6834V466.576H83.1534V463.062C83.6994 463.79 84.4694 464.168 85.3234 464.168ZM84.8894 462.866C84.2034 462.866 83.4754 462.446 83.1534 461.956V459.282C83.4754 458.778 84.2034 458.372 84.8894 458.372C86.0514 458.372 86.7934 459.31 86.7934 460.612C86.7934 461.928 86.0514 462.866 84.8894 462.866ZM93.4172 464.168C95.1672 464.168 96.4132 462.838 96.4132 460.612C96.4132 458.386 95.1672 457.07 93.4172 457.07C92.5352 457.07 91.7512 457.49 91.2472 458.162V457.238H89.7772V466.576H91.2472V463.062C91.7932 463.79 92.5632 464.168 93.4172 464.168ZM92.9832 462.866C92.2972 462.866 91.5692 462.446 91.2472 461.956V459.282C91.5692 458.778 92.2972 458.372 92.9832 458.372C94.1452 458.372 94.8872 459.31 94.8872 460.612C94.8872 461.928 94.1452 462.866 92.9832 462.866ZM99.3409 464V454.662H97.8709V464H99.3409ZM101.976 456.412C102.48 456.412 102.886 456.006 102.886 455.502C102.886 454.998 102.48 454.592 101.976 454.592C101.486 454.592 101.066 454.998 101.066 455.502C101.066 456.006 101.486 456.412 101.976 456.412ZM102.718 464V457.238H101.248V464H102.718ZM107.705 464.168C109.021 464.168 109.819 463.608 110.295 462.964L109.329 462.068C108.951 462.586 108.433 462.866 107.775 462.866C106.543 462.866 105.731 461.928 105.731 460.612C105.731 459.296 106.543 458.372 107.775 458.372C108.433 458.372 108.951 458.638 109.329 459.17L110.295 458.274C109.819 457.63 109.021 457.07 107.705 457.07C105.647 457.07 104.205 458.568 104.205 460.612C104.205 462.67 105.647 464.168 107.705 464.168ZM117.184 464V459.52C117.184 457.7 115.868 457.07 114.37 457.07C113.292 457.07 112.312 457.42 111.528 458.162L112.13 459.184C112.718 458.61 113.376 458.33 114.132 458.33C115.07 458.33 115.714 458.806 115.714 459.59V460.598C115.224 460.024 114.44 459.73 113.53 459.73C112.424 459.73 111.178 460.374 111.178 461.928C111.178 463.426 112.424 464.168 113.53 464.168C114.426 464.168 115.21 463.846 115.714 463.272V464H117.184ZM114.104 463.16C113.278 463.16 112.662 462.684 112.662 461.956C112.662 461.214 113.278 460.738 114.104 460.738C114.748 460.738 115.378 460.976 115.714 461.438V462.46C115.378 462.922 114.748 463.16 114.104 463.16ZM121.12 464.168C121.806 464.168 122.24 463.986 122.506 463.734L122.156 462.628C122.044 462.754 121.778 462.866 121.498 462.866C121.078 462.866 120.854 462.53 120.854 462.068V458.526H122.226V457.238H120.854V455.39H119.384V457.238H118.264V458.526H119.384V462.432C119.384 463.552 119.986 464.168 121.12 464.168ZM124.288 456.412C124.792 456.412 125.198 456.006 125.198 455.502C125.198 454.998 124.792 454.592 124.288 454.592C123.798 454.592 123.378 454.998 123.378 455.502C123.378 456.006 123.798 456.412 124.288 456.412ZM125.03 464V457.238H123.56V464H125.03ZM129.989 464.168C132.159 464.168 133.475 462.558 133.475 460.612C133.475 458.68 132.159 457.07 129.989 457.07C127.847 457.07 126.517 458.68 126.517 460.612C126.517 462.558 127.847 464.168 129.989 464.168ZM129.989 462.866C128.743 462.866 128.043 461.816 128.043 460.612C128.043 459.422 128.743 458.372 129.989 458.372C131.249 458.372 131.949 459.422 131.949 460.612C131.949 461.816 131.249 462.866 129.989 462.866ZM140.997 464V459.24C140.997 457.854 140.269 457.07 138.813 457.07C137.749 457.07 136.881 457.63 136.433 458.162V457.238H134.963V464H136.433V459.282C136.769 458.82 137.413 458.372 138.169 458.372C138.995 458.372 139.527 458.722 139.527 459.772V464H140.997ZM151.024 464.168C152.914 464.168 154.062 463.188 154.776 462.068L153.376 461.354C152.928 462.138 152.032 462.712 151.024 462.712C149.176 462.712 147.804 461.298 147.804 459.338C147.804 457.378 149.176 455.964 151.024 455.964C152.032 455.964 152.928 456.552 153.376 457.322L154.776 456.608C154.076 455.488 152.914 454.508 151.024 454.508C148.266 454.508 146.124 456.468 146.124 459.338C146.124 462.208 148.266 464.168 151.024 464.168ZM103.012 479.168C105.532 479.168 106.624 477.838 106.624 476.284C106.624 472.798 101.192 473.876 101.192 472.14C101.192 471.44 101.808 470.978 102.774 470.978C103.754 470.978 104.748 471.314 105.476 472.042L106.414 470.824C105.546 469.984 104.37 469.522 102.914 469.522C100.87 469.522 99.5122 470.712 99.5122 472.252C99.5122 475.696 104.958 474.478 104.958 476.438C104.958 477.054 104.426 477.712 103.082 477.712C101.78 477.712 100.772 477.11 100.128 476.424L99.2182 477.684C100.044 478.566 101.29 479.168 103.012 479.168ZM109.916 479.168C110.602 479.168 111.036 478.986 111.302 478.734L110.952 477.628C110.84 477.754 110.574 477.866 110.294 477.866C109.874 477.866 109.65 477.53 109.65 477.068V473.526H111.022V472.238H109.65V470.39H108.18V472.238H107.06V473.526H108.18V477.432C108.18 478.552 108.782 479.168 109.916 479.168ZM117.956 479V474.52C117.956 472.7 116.64 472.07 115.142 472.07C114.064 472.07 113.084 472.42 112.3 473.162L112.902 474.184C113.49 473.61 114.148 473.33 114.904 473.33C115.842 473.33 116.486 473.806 116.486 474.59V475.598C115.996 475.024 115.212 474.73 114.302 474.73C113.196 474.73 111.95 475.374 111.95 476.928C111.95 478.426 113.196 479.168 114.302 479.168C115.198 479.168 115.982 478.846 116.486 478.272V479H117.956ZM114.876 478.16C114.05 478.16 113.434 477.684 113.434 476.956C113.434 476.214 114.05 475.738 114.876 475.738C115.52 475.738 116.15 475.976 116.486 476.438V477.46C116.15 477.922 115.52 478.16 114.876 478.16ZM121.892 479.168C122.578 479.168 123.012 478.986 123.278 478.734L122.928 477.628C122.816 477.754 122.55 477.866 122.27 477.866C121.85 477.866 121.626 477.53 121.626 477.068V473.526H122.998V472.238H121.626V470.39H120.156V472.238H119.036V473.526H120.156V477.432C120.156 478.552 120.758 479.168 121.892 479.168ZM127.455 479.168C128.533 479.168 129.527 478.832 130.199 478.188L129.527 477.222C129.051 477.698 128.267 477.964 127.609 477.964C126.335 477.964 125.565 477.124 125.453 476.102H130.675V475.752C130.675 473.624 129.373 472.07 127.343 472.07C125.341 472.07 123.913 473.652 123.913 475.612C123.913 477.754 125.425 479.168 127.455 479.168ZM129.247 475.066H125.439C125.509 474.24 126.083 473.274 127.343 473.274C128.673 473.274 129.219 474.268 129.247 475.066Z" fill="#111921"/>
<rect x="59" y="448" width="112" height="38" rx="7" stroke="#111921" stroke-dasharray="2 4"/>
<path d="M59.632 379V375.514H62.096C64.042 375.514 65.148 374.17 65.148 372.588C65.148 371.006 64.056 369.662 62.096 369.662H57.994V379H59.632ZM61.872 374.072H59.632V371.104H61.872C62.796 371.104 63.468 371.692 63.468 372.588C63.468 373.484 62.796 374.072 61.872 374.072ZM67.9396 379V369.662H66.4696V379H67.9396ZM75.4465 379V374.52C75.4465 372.7 74.1305 372.07 72.6325 372.07C71.5545 372.07 70.5745 372.42 69.7905 373.162L70.3925 374.184C70.9805 373.61 71.6385 373.33 72.3945 373.33C73.3325 373.33 73.9765 373.806 73.9765 374.59V375.598C73.4865 375.024 72.7025 374.73 71.7925 374.73C70.6865 374.73 69.4405 375.374 69.4405 376.928C69.4405 378.426 70.6865 379.168 71.7925 379.168C72.6885 379.168 73.4725 378.846 73.9765 378.272V379H75.4465ZM72.3665 378.16C71.5405 378.16 70.9245 377.684 70.9245 376.956C70.9245 376.214 71.5405 375.738 72.3665 375.738C73.0105 375.738 73.6405 375.976 73.9765 376.438V377.46C73.6405 377.922 73.0105 378.16 72.3665 378.16ZM79.3824 379.168C80.0684 379.168 80.5024 378.986 80.7684 378.734L80.4184 377.628C80.3064 377.754 80.0404 377.866 79.7604 377.866C79.3404 377.866 79.1164 377.53 79.1164 377.068V373.526H80.4884V372.238H79.1164V370.39H77.6464V372.238H76.5264V373.526H77.6464V377.432C77.6464 378.552 78.2484 379.168 79.3824 379.168ZM83.6431 379V373.526H85.0151V372.238H83.6431V371.86C83.6431 371.104 84.0071 370.726 84.5811 370.726C84.9171 370.726 85.1691 370.838 85.3651 371.02L85.9391 370.11C85.5191 369.676 84.9171 369.522 84.3151 369.522C83.0271 369.522 82.1731 370.39 82.1731 371.86V372.238H81.0531V373.526H82.1731V379H83.6431ZM89.1817 379.168C91.3517 379.168 92.6677 377.558 92.6677 375.612C92.6677 373.68 91.3517 372.07 89.1817 372.07C87.0397 372.07 85.7097 373.68 85.7097 375.612C85.7097 377.558 87.0397 379.168 89.1817 379.168ZM89.1817 377.866C87.9357 377.866 87.2357 376.816 87.2357 375.612C87.2357 374.422 87.9357 373.372 89.1817 373.372C90.4417 373.372 91.1417 374.422 91.1417 375.612C91.1417 376.816 90.4417 377.866 89.1817 377.866ZM95.6251 379V374.394C95.9191 373.918 96.7451 373.498 97.3611 373.498C97.5431 373.498 97.6971 373.512 97.8231 373.54V372.084C96.9411 372.084 96.1291 372.588 95.6251 373.232V372.238H94.1551V379H95.6251ZM108.767 379V374.114C108.767 372.742 108.067 372.07 106.821 372.07C105.813 372.07 104.917 372.7 104.525 373.316C104.301 372.574 103.685 372.07 102.677 372.07C101.655 372.07 100.759 372.742 100.479 373.162V372.238H99.0086V379H100.479V374.282C100.787 373.834 101.389 373.372 102.033 373.372C102.831 373.372 103.153 373.862 103.153 374.59V379H104.623V374.268C104.917 373.834 105.533 373.372 106.191 373.372C106.975 373.372 107.297 373.862 107.297 374.59V379H108.767ZM117.5 379.168C120.02 379.168 121.112 377.838 121.112 376.284C121.112 372.798 115.68 373.876 115.68 372.14C115.68 371.44 116.296 370.978 117.262 370.978C118.242 370.978 119.236 371.314 119.964 372.042L120.902 370.824C120.034 369.984 118.858 369.522 117.402 369.522C115.358 369.522 114 370.712 114 372.252C114 375.696 119.446 374.478 119.446 376.438C119.446 377.054 118.914 377.712 117.57 377.712C116.268 377.712 115.26 377.11 114.616 376.424L113.706 377.684C114.532 378.566 115.778 379.168 117.5 379.168ZM124.404 379.168C125.09 379.168 125.524 378.986 125.79 378.734L125.44 377.628C125.328 377.754 125.062 377.866 124.782 377.866C124.362 377.866 124.138 377.53 124.138 377.068V373.526H125.51V372.238H124.138V370.39H122.668V372.238H121.548V373.526H122.668V377.432C122.668 378.552 123.27 379.168 124.404 379.168ZM132.445 379V374.52C132.445 372.7 131.129 372.07 129.631 372.07C128.553 372.07 127.573 372.42 126.789 373.162L127.391 374.184C127.979 373.61 128.637 373.33 129.393 373.33C130.331 373.33 130.975 373.806 130.975 374.59V375.598C130.485 375.024 129.701 374.73 128.791 374.73C127.685 374.73 126.439 375.374 126.439 376.928C126.439 378.426 127.685 379.168 128.791 379.168C129.687 379.168 130.471 378.846 130.975 378.272V379H132.445ZM129.365 378.16C128.539 378.16 127.923 377.684 127.923 376.956C127.923 376.214 128.539 375.738 129.365 375.738C130.009 375.738 130.639 375.976 130.975 376.438V377.46C130.639 377.922 130.009 378.16 129.365 378.16ZM136.38 379.168C137.066 379.168 137.5 378.986 137.766 378.734L137.416 377.628C137.304 377.754 137.038 377.866 136.758 377.866C136.338 377.866 136.114 377.53 136.114 377.068V373.526H137.486V372.238H136.114V370.39H134.644V372.238H133.524V373.526H134.644V377.432C134.644 378.552 135.246 379.168 136.38 379.168ZM141.943 379.168C143.021 379.168 144.015 378.832 144.687 378.188L144.015 377.222C143.539 377.698 142.755 377.964 142.097 377.964C140.823 377.964 140.053 377.124 139.941 376.102H145.163V375.752C145.163 373.624 143.861 372.07 141.831 372.07C139.829 372.07 138.401 373.652 138.401 375.612C138.401 377.754 139.913 379.168 141.943 379.168ZM143.735 375.066H139.927C139.997 374.24 140.571 373.274 141.831 373.274C143.161 373.274 143.707 374.268 143.735 375.066Z" fill="#111921"/>
<rect x="39" y="276" width="125" height="48" rx="10" fill="#D9EAD3"/>
<path d="M59.8009 296V292.514H62.2649C64.2109 292.514 65.3169 291.17 65.3169 289.588C65.3169 288.006 64.2249 286.662 62.2649 286.662H58.1629V296H59.8009ZM62.0409 291.072H59.8009V288.104H62.0409C62.9649 288.104 63.6369 288.692 63.6369 289.588C63.6369 290.484 62.9649 291.072 62.0409 291.072ZM68.1085 296V286.662H66.6385V296H68.1085ZM75.6155 296V291.52C75.6155 289.7 74.2995 289.07 72.8015 289.07C71.7235 289.07 70.7435 289.42 69.9595 290.162L70.5615 291.184C71.1495 290.61 71.8075 290.33 72.5635 290.33C73.5015 290.33 74.1455 290.806 74.1455 291.59V292.598C73.6555 292.024 72.8715 291.73 71.9615 291.73C70.8555 291.73 69.6095 292.374 69.6095 293.928C69.6095 295.426 70.8555 296.168 71.9615 296.168C72.8575 296.168 73.6415 295.846 74.1455 295.272V296H75.6155ZM72.5355 295.16C71.7095 295.16 71.0935 294.684 71.0935 293.956C71.0935 293.214 71.7095 292.738 72.5355 292.738C73.1795 292.738 73.8095 292.976 74.1455 293.438V294.46C73.8095 294.922 73.1795 295.16 72.5355 295.16ZM79.5513 296.168C80.2373 296.168 80.6713 295.986 80.9373 295.734L80.5873 294.628C80.4753 294.754 80.2093 294.866 79.9293 294.866C79.5093 294.866 79.2853 294.53 79.2853 294.068V290.526H80.6573V289.238H79.2853V287.39H77.8153V289.238H76.6953V290.526H77.8153V294.432C77.8153 295.552 78.4173 296.168 79.5513 296.168ZM83.812 296V290.526H85.184V289.238H83.812V288.86C83.812 288.104 84.176 287.726 84.75 287.726C85.086 287.726 85.338 287.838 85.534 288.02L86.108 287.11C85.688 286.676 85.086 286.522 84.484 286.522C83.196 286.522 82.342 287.39 82.342 288.86V289.238H81.222V290.526H82.342V296H83.812ZM89.3507 296.168C91.5207 296.168 92.8367 294.558 92.8367 292.612C92.8367 290.68 91.5207 289.07 89.3507 289.07C87.2087 289.07 85.8787 290.68 85.8787 292.612C85.8787 294.558 87.2087 296.168 89.3507 296.168ZM89.3507 294.866C88.1047 294.866 87.4047 293.816 87.4047 292.612C87.4047 291.422 88.1047 290.372 89.3507 290.372C90.6107 290.372 91.3107 291.422 91.3107 292.612C91.3107 293.816 90.6107 294.866 89.3507 294.866ZM95.7941 296V291.394C96.0881 290.918 96.9141 290.498 97.5301 290.498C97.7121 290.498 97.8661 290.512 97.9921 290.54V289.084C97.1101 289.084 96.2981 289.588 95.7941 290.232V289.238H94.3241V296H95.7941ZM108.936 296V291.114C108.936 289.742 108.236 289.07 106.99 289.07C105.982 289.07 105.086 289.7 104.694 290.316C104.47 289.574 103.854 289.07 102.846 289.07C101.824 289.07 100.928 289.742 100.648 290.162V289.238H99.1776V296H100.648V291.282C100.956 290.834 101.558 290.372 102.202 290.372C103 290.372 103.322 290.862 103.322 291.59V296H104.792V291.268C105.086 290.834 105.702 290.372 106.36 290.372C107.144 290.372 107.466 290.862 107.466 291.59V296H108.936ZM117.669 296.168C120.189 296.168 121.281 294.838 121.281 293.284C121.281 289.798 115.849 290.876 115.849 289.14C115.849 288.44 116.465 287.978 117.431 287.978C118.411 287.978 119.405 288.314 120.133 289.042L121.071 287.824C120.203 286.984 119.027 286.522 117.571 286.522C115.527 286.522 114.169 287.712 114.169 289.252C114.169 292.696 119.615 291.478 119.615 293.438C119.615 294.054 119.083 294.712 117.739 294.712C116.437 294.712 115.429 294.11 114.785 293.424L113.875 294.684C114.701 295.566 115.947 296.168 117.669 296.168ZM124.573 296.168C125.259 296.168 125.693 295.986 125.959 295.734L125.609 294.628C125.497 294.754 125.231 294.866 124.951 294.866C124.531 294.866 124.307 294.53 124.307 294.068V290.526H125.679V289.238H124.307V287.39H122.837V289.238H121.717V290.526H122.837V294.432C122.837 295.552 123.439 296.168 124.573 296.168ZM132.614 296V291.52C132.614 289.7 131.298 289.07 129.8 289.07C128.722 289.07 127.742 289.42 126.958 290.162L127.56 291.184C128.148 290.61 128.806 290.33 129.562 290.33C130.5 290.33 131.144 290.806 131.144 291.59V292.598C130.654 292.024 129.87 291.73 128.96 291.73C127.854 291.73 126.608 292.374 126.608 293.928C126.608 295.426 127.854 296.168 128.96 296.168C129.856 296.168 130.64 295.846 131.144 295.272V296H132.614ZM129.534 295.16C128.708 295.16 128.092 294.684 128.092 293.956C128.092 293.214 128.708 292.738 129.534 292.738C130.178 292.738 130.808 292.976 131.144 293.438V294.46C130.808 294.922 130.178 295.16 129.534 295.16ZM136.549 296.168C137.235 296.168 137.669 295.986 137.935 295.734L137.585 294.628C137.473 294.754 137.207 294.866 136.927 294.866C136.507 294.866 136.283 294.53 136.283 294.068V290.526H137.655V289.238H136.283V287.39H134.813V289.238H133.693V290.526H134.813V294.432C134.813 295.552 135.415 296.168 136.549 296.168ZM142.112 296.168C143.19 296.168 144.184 295.832 144.856 295.188L144.184 294.222C143.708 294.698 142.924 294.964 142.266 294.964C140.992 294.964 140.222 294.124 140.11 293.102H145.332V292.752C145.332 290.624 144.03 289.07 142 289.07C139.998 289.07 138.57 290.652 138.57 292.612C138.57 294.754 140.082 296.168 142.112 296.168ZM143.904 292.066H140.096C140.166 291.24 140.74 290.274 142 290.274C143.33 290.274 143.876 291.268 143.904 292.066ZM85.5837 312V302.662H83.2737L80.7257 308.808L78.1917 302.662H75.8817V312H77.5197V305.07L80.3757 312H81.0757L83.9457 305.07V312H85.5837ZM93.1291 312V307.52C93.1291 305.7 91.8131 305.07 90.3151 305.07C89.2371 305.07 88.2571 305.42 87.4731 306.162L88.0751 307.184C88.6631 306.61 89.3211 306.33 90.0771 306.33C91.0151 306.33 91.6591 306.806 91.6591 307.59V308.598C91.1691 308.024 90.3851 307.73 89.4751 307.73C88.3691 307.73 87.1231 308.374 87.1231 309.928C87.1231 311.426 88.3691 312.168 89.4751 312.168C90.3711 312.168 91.1551 311.846 91.6591 311.272V312H93.1291ZM90.0491 311.16C89.2231 311.16 88.6071 310.684 88.6071 309.956C88.6071 309.214 89.2231 308.738 90.0491 308.738C90.6931 308.738 91.3231 308.976 91.6591 309.438V310.46C91.3231 310.922 90.6931 311.16 90.0491 311.16ZM98.115 312.168C99.431 312.168 100.229 311.608 100.705 310.964L99.739 310.068C99.361 310.586 98.843 310.866 98.185 310.866C96.953 310.866 96.141 309.928 96.141 308.612C96.141 307.296 96.953 306.372 98.185 306.372C98.843 306.372 99.361 306.638 99.739 307.17L100.705 306.274C100.229 305.63 99.431 305.07 98.115 305.07C96.057 305.07 94.615 306.568 94.615 308.612C94.615 310.67 96.057 312.168 98.115 312.168ZM108.042 312V307.212C108.042 305.826 107.314 305.07 105.858 305.07C104.794 305.07 103.912 305.63 103.464 306.162V302.662H101.994V312H103.464V307.282C103.814 306.82 104.458 306.372 105.2 306.372C106.026 306.372 106.572 306.694 106.572 307.744V312H108.042ZM110.679 304.412C111.183 304.412 111.589 304.006 111.589 303.502C111.589 302.998 111.183 302.592 110.679 302.592C110.189 302.592 109.769 302.998 109.769 303.502C109.769 304.006 110.189 304.412 110.679 304.412ZM111.421 312V305.238H109.951V312H111.421ZM119.362 312V307.24C119.362 305.854 118.634 305.07 117.178 305.07C116.114 305.07 115.246 305.63 114.798 306.162V305.238H113.328V312H114.798V307.282C115.134 306.82 115.778 306.372 116.534 306.372C117.36 306.372 117.892 306.722 117.892 307.772V312H119.362ZM124.393 312.168C125.471 312.168 126.465 311.832 127.137 311.188L126.465 310.222C125.989 310.698 125.205 310.964 124.547 310.964C123.273 310.964 122.503 310.124 122.391 309.102H127.613V308.752C127.613 306.624 126.311 305.07 124.281 305.07C122.279 305.07 120.851 306.652 120.851 308.612C120.851 310.754 122.363 312.168 124.393 312.168ZM126.185 308.066H122.377C122.447 307.24 123.021 306.274 124.281 306.274C125.611 306.274 126.157 307.268 126.185 308.066Z" fill="#111921"/>
<rect x="39" y="276" width="125" height="48" rx="10" stroke="#B6D7A8" stroke-width="0.5"/>
<rect x="461" y="127" width="150" height="90" rx="12" fill="#FAFAFC" stroke="#BABABF" stroke-width="1.5" stroke-linecap="round" stroke-dasharray="0.5 5"/>
<path d="M491.696 153V143.662H489.386L486.838 149.808L484.304 143.662H481.994V153H483.632V146.07L486.488 153H487.188L490.058 146.07V153H491.696ZM499.241 153V148.52C499.241 146.7 497.925 146.07 496.427 146.07C495.349 146.07 494.369 146.42 493.585 147.162L494.187 148.184C494.775 147.61 495.433 147.33 496.189 147.33C497.127 147.33 497.771 147.806 497.771 148.59V149.598C497.281 149.024 496.497 148.73 495.587 148.73C494.481 148.73 493.235 149.374 493.235 150.928C493.235 152.426 494.481 153.168 495.587 153.168C496.483 153.168 497.267 152.846 497.771 152.272V153H499.241ZM496.161 152.16C495.335 152.16 494.719 151.684 494.719 150.956C494.719 150.214 495.335 149.738 496.161 149.738C496.805 149.738 497.435 149.976 497.771 150.438V151.46C497.435 151.922 496.805 152.16 496.161 152.16ZM503.457 153.168C505.277 153.168 506.271 152.258 506.271 151.068C506.271 148.38 502.183 149.276 502.183 148.072C502.183 147.596 502.673 147.246 503.443 147.246C504.283 147.246 505.039 147.596 505.445 148.058L506.061 147.022C505.445 146.476 504.577 146.07 503.429 146.07C501.721 146.07 500.769 147.022 500.769 148.128C500.769 150.718 504.857 149.766 504.857 151.096C504.857 151.628 504.409 152.006 503.527 152.006C502.645 152.006 501.707 151.544 501.231 151.054L500.559 152.118C501.259 152.804 502.309 153.168 503.457 153.168ZM509.781 153.168C510.467 153.168 510.901 152.986 511.167 152.734L510.817 151.628C510.705 151.754 510.439 151.866 510.159 151.866C509.739 151.866 509.515 151.53 509.515 151.068V147.526H510.887V146.238H509.515V144.39H508.045V146.238H506.925V147.526H508.045V151.432C508.045 152.552 508.647 153.168 509.781 153.168ZM515.344 153.168C516.422 153.168 517.416 152.832 518.088 152.188L517.416 151.222C516.94 151.698 516.156 151.964 515.498 151.964C514.224 151.964 513.454 151.124 513.342 150.102H518.564V149.752C518.564 147.624 517.262 146.07 515.232 146.07C513.23 146.07 511.802 147.652 511.802 149.612C511.802 151.754 513.314 153.168 515.344 153.168ZM517.136 149.066H513.328C513.398 148.24 513.972 147.274 515.232 147.274C516.562 147.274 517.108 148.268 517.136 149.066ZM521.485 153V148.394C521.779 147.918 522.605 147.498 523.221 147.498C523.403 147.498 523.557 147.512 523.683 147.54V146.084C522.801 146.084 521.989 146.588 521.485 147.232V146.238H520.015V153H521.485ZM530.902 153V148.24C530.902 146.854 530.174 146.07 528.718 146.07C527.654 146.07 526.786 146.63 526.338 147.162V146.238H524.868V153H526.338V148.282C526.674 147.82 527.318 147.372 528.074 147.372C528.9 147.372 529.432 147.722 529.432 148.772V153H530.902ZM535.863 153.168C538.033 153.168 539.349 151.558 539.349 149.612C539.349 147.68 538.033 146.07 535.863 146.07C533.721 146.07 532.391 147.68 532.391 149.612C532.391 151.558 533.721 153.168 535.863 153.168ZM535.863 151.866C534.617 151.866 533.917 150.816 533.917 149.612C533.917 148.422 534.617 147.372 535.863 147.372C537.123 147.372 537.823 148.422 537.823 149.612C537.823 150.816 537.123 151.866 535.863 151.866ZM547.067 153V143.662H545.597V147.176C545.051 146.462 544.267 146.07 543.427 146.07C541.677 146.07 540.417 147.442 540.417 149.626C540.417 151.852 541.691 153.168 543.427 153.168C544.295 153.168 545.079 152.748 545.597 152.076V153H547.067ZM543.847 151.866C542.685 151.866 541.943 150.928 541.943 149.626C541.943 148.31 542.685 147.372 543.847 147.372C544.547 147.372 545.261 147.778 545.597 148.282V150.97C545.261 151.474 544.547 151.866 543.847 151.866ZM552.094 153.168C553.172 153.168 554.166 152.832 554.838 152.188L554.166 151.222C553.69 151.698 552.906 151.964 552.248 151.964C550.974 151.964 550.204 151.124 550.092 150.102H555.314V149.752C555.314 147.624 554.012 146.07 551.982 146.07C549.98 146.07 548.552 147.652 548.552 149.612C548.552 151.754 550.064 153.168 552.094 153.168ZM553.886 149.066H550.078C550.148 148.24 550.722 147.274 551.982 147.274C553.312 147.274 553.858 148.268 553.886 149.066Z" fill="#111921"/>
<rect x="481" y="170" width="110" height="27" rx="4" fill="#B6D7A8"/>
<path d="M526.509 187C528.797 187 530.348 185.493 530.348 183.337C530.348 181.181 528.797 179.663 526.509 179.663H523.781V187H526.509ZM526.509 185.867H525.068V180.796H526.509C528.148 180.796 529.028 181.918 529.028 183.337C529.028 184.723 528.104 185.867 526.509 185.867ZM532.713 187V183.381C532.944 183.007 533.593 182.677 534.077 182.677C534.22 182.677 534.341 182.688 534.44 182.71V181.566C533.747 181.566 533.109 181.962 532.713 182.468V181.687H531.558V187H532.713ZM535.943 181.038C536.339 181.038 536.658 180.719 536.658 180.323C536.658 179.927 536.339 179.608 535.943 179.608C535.558 179.608 535.228 179.927 535.228 180.323C535.228 180.719 535.558 181.038 535.943 181.038ZM536.526 187V181.687H535.371V187H536.526ZM540.664 187L542.831 181.687H541.588L540.037 185.669L538.486 181.687H537.254L539.421 187H540.664ZM546.01 187.132C546.857 187.132 547.638 186.868 548.166 186.362L547.638 185.603C547.264 185.977 546.648 186.186 546.131 186.186C545.13 186.186 544.525 185.526 544.437 184.723H548.54V184.448C548.54 182.776 547.517 181.555 545.922 181.555C544.349 181.555 543.227 182.798 543.227 184.338C543.227 186.021 544.415 187.132 546.01 187.132ZM547.418 183.909H544.426C544.481 183.26 544.932 182.501 545.922 182.501C546.967 182.501 547.396 183.282 547.418 183.909Z" fill="#111921"/>
<rect x="481" y="170" width="110" height="27" rx="4" stroke="#111921" stroke-width="0.5"/>
<rect x="461" y="237" width="150" height="90" rx="12" fill="#FAFAFC" stroke="#BABABF" stroke-width="1.5" stroke-linecap="round" stroke-dasharray="0.5 5"/>
<path d="M491.696 263V253.662H489.386L486.838 259.808L484.304 253.662H481.994V263H483.632V256.07L486.488 263H487.188L490.058 256.07V263H491.696ZM499.241 263V258.52C499.241 256.7 497.925 256.07 496.427 256.07C495.349 256.07 494.369 256.42 493.585 257.162L494.187 258.184C494.775 257.61 495.433 257.33 496.189 257.33C497.127 257.33 497.771 257.806 497.771 258.59V259.598C497.281 259.024 496.497 258.73 495.587 258.73C494.481 258.73 493.235 259.374 493.235 260.928C493.235 262.426 494.481 263.168 495.587 263.168C496.483 263.168 497.267 262.846 497.771 262.272V263H499.241ZM496.161 262.16C495.335 262.16 494.719 261.684 494.719 260.956C494.719 260.214 495.335 259.738 496.161 259.738C496.805 259.738 497.435 259.976 497.771 260.438V261.46C497.435 261.922 496.805 262.16 496.161 262.16ZM503.457 263.168C505.277 263.168 506.271 262.258 506.271 261.068C506.271 258.38 502.183 259.276 502.183 258.072C502.183 257.596 502.673 257.246 503.443 257.246C504.283 257.246 505.039 257.596 505.445 258.058L506.061 257.022C505.445 256.476 504.577 256.07 503.429 256.07C501.721 256.07 500.769 257.022 500.769 258.128C500.769 260.718 504.857 259.766 504.857 261.096C504.857 261.628 504.409 262.006 503.527 262.006C502.645 262.006 501.707 261.544 501.231 261.054L500.559 262.118C501.259 262.804 502.309 263.168 503.457 263.168ZM509.781 263.168C510.467 263.168 510.901 262.986 511.167 262.734L510.817 261.628C510.705 261.754 510.439 261.866 510.159 261.866C509.739 261.866 509.515 261.53 509.515 261.068V257.526H510.887V256.238H509.515V254.39H508.045V256.238H506.925V257.526H508.045V261.432C508.045 262.552 508.647 263.168 509.781 263.168ZM515.344 263.168C516.422 263.168 517.416 262.832 518.088 262.188L517.416 261.222C516.94 261.698 516.156 261.964 515.498 261.964C514.224 261.964 513.454 261.124 513.342 260.102H518.564V259.752C518.564 257.624 517.262 256.07 515.232 256.07C513.23 256.07 511.802 257.652 511.802 259.612C511.802 261.754 513.314 263.168 515.344 263.168ZM517.136 259.066H513.328C513.398 258.24 513.972 257.274 515.232 257.274C516.562 257.274 517.108 258.268 517.136 259.066ZM521.485 263V258.394C521.779 257.918 522.605 257.498 523.221 257.498C523.403 257.498 523.557 257.512 523.683 257.54V256.084C522.801 256.084 521.989 256.588 521.485 257.232V256.238H520.015V263H521.485ZM530.902 263V258.24C530.902 256.854 530.174 256.07 528.718 256.07C527.654 256.07 526.786 256.63 526.338 257.162V256.238H524.868V263H526.338V258.282C526.674 257.82 527.318 257.372 528.074 257.372C528.9 257.372 529.432 257.722 529.432 258.772V263H530.902ZM535.863 263.168C538.033 263.168 539.349 261.558 539.349 259.612C539.349 257.68 538.033 256.07 535.863 256.07C533.721 256.07 532.391 257.68 532.391 259.612C532.391 261.558 533.721 263.168 535.863 263.168ZM535.863 261.866C534.617 261.866 533.917 260.816 533.917 259.612C533.917 258.422 534.617 257.372 535.863 257.372C537.123 257.372 537.823 258.422 537.823 259.612C537.823 260.816 537.123 261.866 535.863 261.866ZM547.067 263V253.662H545.597V257.176C545.051 256.462 544.267 256.07 543.427 256.07C541.677 256.07 540.417 257.442 540.417 259.626C540.417 261.852 541.691 263.168 543.427 263.168C544.295 263.168 545.079 262.748 545.597 262.076V263H547.067ZM543.847 261.866C542.685 261.866 541.943 260.928 541.943 259.626C541.943 258.31 542.685 257.372 543.847 257.372C544.547 257.372 545.261 257.778 545.597 258.282V260.97C545.261 261.474 544.547 261.866 543.847 261.866ZM552.094 263.168C553.172 263.168 554.166 262.832 554.838 262.188L554.166 261.222C553.69 261.698 552.906 261.964 552.248 261.964C550.974 261.964 550.204 261.124 550.092 260.102H555.314V259.752C555.314 257.624 554.012 256.07 551.982 256.07C549.98 256.07 548.552 257.652 548.552 259.612C548.552 261.754 550.064 263.168 552.094 263.168ZM553.886 259.066H550.078C550.148 258.24 550.722 257.274 551.982 257.274C553.312 257.274 553.858 258.268 553.886 259.066Z" fill="#111921"/>
<rect x="481" y="280" width="110" height="27" rx="4" fill="#B6D7A8"/>
<path d="M526.509 297C528.797 297 530.348 295.493 530.348 293.337C530.348 291.181 528.797 289.663 526.509 289.663H523.781V297H526.509ZM526.509 295.867H525.068V290.796H526.509C528.148 290.796 529.028 291.918 529.028 293.337C529.028 294.723 528.104 295.867 526.509 295.867ZM532.713 297V293.381C532.944 293.007 533.593 292.677 534.077 292.677C534.22 292.677 534.341 292.688 534.44 292.71V291.566C533.747 291.566 533.109 291.962 532.713 292.468V291.687H531.558V297H532.713ZM535.943 291.038C536.339 291.038 536.658 290.719 536.658 290.323C536.658 289.927 536.339 289.608 535.943 289.608C535.558 289.608 535.228 289.927 535.228 290.323C535.228 290.719 535.558 291.038 535.943 291.038ZM536.526 297V291.687H535.371V297H536.526ZM540.664 297L542.831 291.687H541.588L540.037 295.669L538.486 291.687H537.254L539.421 297H540.664ZM546.01 297.132C546.857 297.132 547.638 296.868 548.166 296.362L547.638 295.603C547.264 295.977 546.648 296.186 546.131 296.186C545.13 296.186 544.525 295.526 544.437 294.723H548.54V294.448C548.54 292.776 547.517 291.555 545.922 291.555C544.349 291.555 543.227 292.798 543.227 294.338C543.227 296.021 544.415 297.132 546.01 297.132ZM547.418 293.909H544.426C544.481 293.26 544.932 292.501 545.922 292.501C546.967 292.501 547.396 293.282 547.418 293.909Z" fill="#111921"/>
<rect x="481" y="280" width="110" height="27" rx="4" stroke="#111921" stroke-width="0.5"/>
<path d="M101 167L105.33 159.5H96.6699L101 167ZM100.25 137V160.25H101.75V137H100.25Z" fill="#111921"/>
<path d="M101 99L105.33 91.5H96.6699L101 99ZM100.25 39L100.25 92.25H101.75L101.75 39H100.25Z" fill="#111921"/>
<path d="M101 276L105.33 268.5H96.6699L101 276ZM100.25 246V269.25H101.75V246H100.25Z" fill="#111921"/>
<path d="M166 227L173.5 231.33V222.67L166 227ZM257 227L249.5 222.67V231.33L257 227ZM172.75 227.75H250.25V226.25H172.75V227.75Z" fill="#111921"/>
<path d="M406 222L413.59 217.83L406.184 213.342L406 222ZM460 172.5L451.362 171.879L455.143 179.67L460 172.5ZM408.28 219.685C420.19 200.033 437.525 184.241 458.198 174.208L457.543 172.859C436.61 183.017 419.057 199.008 406.997 218.907L408.28 219.685Z" fill="#111921"/>
<path d="M406 232L413.59 236.17L406.184 240.658L406 232ZM460 281.5L451.362 282.121L455.143 274.33L460 281.5ZM408.28 234.315C420.19 253.967 437.525 269.759 458.198 279.792L457.543 281.141C436.61 270.983 419.057 254.992 406.997 235.093L408.28 234.315Z" fill="#111921"/>
<path d="M101 354L105.33 346.5H96.6699L101 354ZM100.25 324V347.25H101.75V324H100.25Z" fill="#111921"/>
<path fill-rule="evenodd" clip-rule="evenodd" d="M381 258.958C394.938 258.181 406 246.632 406 232.5C406 217.864 394.136 206 379.5 206C373.246 206 367.498 208.167 362.965 211.79C357.677 201.454 342.678 194 325 194C302.909 194 285 205.641 285 220C285 220.111 285.001 220.221 285.003 220.331C282.163 218.842 278.93 218 275.5 218C264.178 218 255 227.178 255 238.5C255 249.822 264.178 259 275.5 259C275.667 259 275.834 258.998 276 258.994V259H379.5H381V258.958Z" fill="#D9EAD3"/>
<path d="M381 258.958L380.972 258.459L380.5 258.485V258.958H381ZM362.965 211.79L362.52 212.018L362.799 212.563L363.277 212.181L362.965 211.79ZM285.003 220.331L284.771 220.774L285.519 221.166L285.503 220.321L285.003 220.331ZM276 258.994H276.5V258.482L275.988 258.494L276 258.994ZM276 259H275.5V259.5H276V259ZM381 259V259.5H381.5V259H381ZM381.028 259.457C395.229 258.665 406.5 246.899 406.5 232.5H405.5C405.5 246.365 394.646 257.696 380.972 258.459L381.028 259.457ZM406.5 232.5C406.5 217.588 394.412 205.5 379.5 205.5V206.5C393.859 206.5 405.5 218.141 405.5 232.5H406.5ZM379.5 205.5C373.128 205.5 367.271 207.708 362.653 211.4L363.277 212.181C367.724 208.625 373.363 206.5 379.5 206.5V205.5ZM363.41 211.562C358.003 200.993 342.777 193.5 325 193.5V194.5C342.578 194.5 357.351 201.915 362.52 212.018L363.41 211.562ZM325 193.5C313.872 193.5 303.774 196.431 296.443 201.196C289.117 205.958 284.5 212.595 284.5 220H285.5C285.5 213.045 289.837 206.683 296.988 202.034C304.134 197.389 314.037 194.5 325 194.5V193.5ZM284.5 220C284.5 220.114 284.501 220.227 284.503 220.341L285.503 220.321C285.501 220.214 285.5 220.107 285.5 220H284.5ZM285.235 219.888C282.325 218.363 279.012 217.5 275.5 217.5V218.5C278.847 218.5 282 219.322 284.771 220.774L285.235 219.888ZM275.5 217.5C263.902 217.5 254.5 226.902 254.5 238.5H255.5C255.5 227.454 264.454 218.5 275.5 218.5V217.5ZM254.5 238.5C254.5 250.098 263.902 259.5 275.5 259.5V258.5C264.454 258.5 255.5 249.546 255.5 238.5H254.5ZM275.5 259.5C275.671 259.5 275.842 259.498 276.012 259.494L275.988 258.494C275.826 258.498 275.663 258.5 275.5 258.5V259.5ZM276.5 259V258.994H275.5V259H276.5ZM379.5 258.5H276V259.5H379.5V258.5ZM381 258.5H379.5V259.5H381V258.5ZM380.5 258.958V259H381.5V258.958H380.5Z" fill="#B6D7A8"/>
<path d="M286.812 234V230.514H289.276C291.222 230.514 292.328 229.17 292.328 227.588C292.328 226.006 291.236 224.662 289.276 224.662H285.174V234H286.812ZM289.052 229.072H286.812V226.104H289.052C289.976 226.104 290.648 226.692 290.648 227.588C290.648 228.484 289.976 229.072 289.052 229.072ZM295.119 234V224.662H293.649V234H295.119ZM302.626 234V229.52C302.626 227.7 301.31 227.07 299.812 227.07C298.734 227.07 297.754 227.42 296.97 228.162L297.572 229.184C298.16 228.61 298.818 228.33 299.574 228.33C300.512 228.33 301.156 228.806 301.156 229.59V230.598C300.666 230.024 299.882 229.73 298.972 229.73C297.866 229.73 296.62 230.374 296.62 231.928C296.62 233.426 297.866 234.168 298.972 234.168C299.868 234.168 300.652 233.846 301.156 233.272V234H302.626ZM299.546 233.16C298.72 233.16 298.104 232.684 298.104 231.956C298.104 231.214 298.72 230.738 299.546 230.738C300.19 230.738 300.82 230.976 301.156 231.438V232.46C300.82 232.922 300.19 233.16 299.546 233.16ZM306.562 234.168C307.248 234.168 307.682 233.986 307.948 233.734L307.598 232.628C307.486 232.754 307.22 232.866 306.94 232.866C306.52 232.866 306.296 232.53 306.296 232.068V228.526H307.668V227.238H306.296V225.39H304.826V227.238H303.706V228.526H304.826V232.432C304.826 233.552 305.428 234.168 306.562 234.168ZM310.823 234V228.526H312.195V227.238H310.823V226.86C310.823 226.104 311.187 225.726 311.761 225.726C312.097 225.726 312.349 225.838 312.545 226.02L313.119 225.11C312.699 224.676 312.097 224.522 311.495 224.522C310.207 224.522 309.353 225.39 309.353 226.86V227.238H308.233V228.526H309.353V234H310.823ZM316.361 234.168C318.531 234.168 319.847 232.558 319.847 230.612C319.847 228.68 318.531 227.07 316.361 227.07C314.219 227.07 312.889 228.68 312.889 230.612C312.889 232.558 314.219 234.168 316.361 234.168ZM316.361 232.866C315.115 232.866 314.415 231.816 314.415 230.612C314.415 229.422 315.115 228.372 316.361 228.372C317.621 228.372 318.321 229.422 318.321 230.612C318.321 231.816 317.621 232.866 316.361 232.866ZM322.805 234V229.394C323.099 228.918 323.925 228.498 324.541 228.498C324.723 228.498 324.877 228.512 325.003 228.54V227.084C324.121 227.084 323.309 227.588 322.805 228.232V227.238H321.335V234H322.805ZM335.946 234V229.114C335.946 227.742 335.246 227.07 334 227.07C332.992 227.07 332.096 227.7 331.704 228.316C331.48 227.574 330.864 227.07 329.856 227.07C328.834 227.07 327.938 227.742 327.658 228.162V227.238H326.188V234H327.658V229.282C327.966 228.834 328.568 228.372 329.212 228.372C330.01 228.372 330.332 228.862 330.332 229.59V234H331.802V229.268C332.096 228.834 332.712 228.372 333.37 228.372C334.154 228.372 334.476 228.862 334.476 229.59V234H335.946ZM345.968 234.168C347.858 234.168 349.006 233.188 349.72 232.068L348.32 231.354C347.872 232.138 346.976 232.712 345.968 232.712C344.12 232.712 342.748 231.298 342.748 229.338C342.748 227.378 344.12 225.964 345.968 225.964C346.976 225.964 347.872 226.552 348.32 227.322L349.72 226.608C349.02 225.488 347.858 224.508 345.968 224.508C343.21 224.508 341.068 226.468 341.068 229.338C341.068 232.208 343.21 234.168 345.968 234.168ZM357.037 234V229.212C357.037 227.826 356.309 227.07 354.853 227.07C353.789 227.07 352.907 227.63 352.459 228.162V224.662H350.989V234H352.459V229.282C352.809 228.82 353.453 228.372 354.195 228.372C355.021 228.372 355.567 228.694 355.567 229.744V234H357.037ZM364.546 234V229.52C364.546 227.7 363.23 227.07 361.732 227.07C360.654 227.07 359.674 227.42 358.89 228.162L359.492 229.184C360.08 228.61 360.738 228.33 361.494 228.33C362.432 228.33 363.076 228.806 363.076 229.59V230.598C362.586 230.024 361.802 229.73 360.892 229.73C359.786 229.73 358.54 230.374 358.54 231.928C358.54 233.426 359.786 234.168 360.892 234.168C361.788 234.168 362.572 233.846 363.076 233.272V234H364.546ZM361.466 233.16C360.64 233.16 360.024 232.684 360.024 231.956C360.024 231.214 360.64 230.738 361.466 230.738C362.11 230.738 362.74 230.976 363.076 231.438V232.46C362.74 232.922 362.11 233.16 361.466 233.16ZM367.18 226.412C367.684 226.412 368.09 226.006 368.09 225.502C368.09 224.998 367.684 224.592 367.18 224.592C366.69 224.592 366.27 224.998 366.27 225.502C366.27 226.006 366.69 226.412 367.18 226.412ZM367.922 234V227.238H366.452V234H367.922ZM375.863 234V229.24C375.863 227.854 375.135 227.07 373.679 227.07C372.615 227.07 371.747 227.63 371.299 228.162V227.238H369.829V234H371.299V229.282C371.635 228.82 372.279 228.372 373.035 228.372C373.861 228.372 374.393 228.722 374.393 229.772V234H375.863ZM313.015 250V240.662H311.377V247.144L306.603 240.662H304.923V250H306.561V243.336L311.433 250H313.015ZM318.079 250.168C319.157 250.168 320.151 249.832 320.823 249.188L320.151 248.222C319.675 248.698 318.891 248.964 318.233 248.964C316.959 248.964 316.189 248.124 316.077 247.102H321.299V246.752C321.299 244.624 319.997 243.07 317.967 243.07C315.965 243.07 314.537 244.652 314.537 246.612C314.537 248.754 316.049 250.168 318.079 250.168ZM319.871 246.066H316.063C316.133 245.24 316.707 244.274 317.967 244.274C319.297 244.274 319.843 245.268 319.871 246.066ZM324.78 250.168C325.466 250.168 325.9 249.986 326.166 249.734L325.816 248.628C325.704 248.754 325.438 248.866 325.158 248.866C324.738 248.866 324.514 248.53 324.514 248.068V244.526H325.886V243.238H324.514V241.39H323.044V243.238H321.924V244.526H323.044V248.432C323.044 249.552 323.646 250.168 324.78 250.168ZM334.655 250L336.755 243.238H335.229L333.801 248.152L332.191 243.238H330.903L329.293 248.152L327.865 243.238H326.339L328.439 250H329.979L331.547 245.044L333.115 250H334.655ZM340.827 250.168C342.997 250.168 344.313 248.558 344.313 246.612C344.313 244.68 342.997 243.07 340.827 243.07C338.685 243.07 337.355 244.68 337.355 246.612C337.355 248.558 338.685 250.168 340.827 250.168ZM340.827 248.866C339.581 248.866 338.881 247.816 338.881 246.612C338.881 245.422 339.581 244.372 340.827 244.372C342.087 244.372 342.787 245.422 342.787 246.612C342.787 247.816 342.087 248.866 340.827 248.866ZM347.271 250V245.394C347.565 244.918 348.391 244.498 349.007 244.498C349.189 244.498 349.343 244.512 349.469 244.54V243.084C348.587 243.084 347.775 243.588 347.271 244.232V243.238H345.801V250H347.271ZM356.982 250L354.112 246.304L356.926 243.238H355.106L352.124 246.5V240.662H350.654V250H352.124V248.18L353.062 247.214L355.134 250H356.982Z" fill="#111921"/>
</svg>
