<svg width="610" height="262" viewBox="0 0 610 262" fill="none" xmlns="http://www.w3.org/2000/svg">
<rect y="38" width="240" height="224" rx="20" fill="#E9F0FD"/>
<rect y="86" width="80" height="156" fill="#E9F0FD"/>
<g filter="url(#filter0_d)">
<rect x="80" y="86" width="80" height="156" fill="#E9F0FD"/>
</g>
<g filter="url(#filter1_d)">
<rect x="160" y="86" width="80" height="156" fill="#E9F0FD"/>
</g>
<path d="M95.3452 21.24C98.9452 21.24 100.505 19.34 100.505 17.12C100.505 12.14 92.7452 13.68 92.7452 11.2C92.7452 10.2 93.6252 9.54 95.0052 9.54C96.4052 9.54 97.8252 10.02 98.8652 11.06L100.205 9.32C98.9652 8.12 97.2852 7.46 95.2052 7.46C92.2852 7.46 90.3452 9.16 90.3452 11.36C90.3452 16.28 98.1252 14.54 98.1252 17.34C98.1252 18.22 97.3652 19.16 95.4452 19.16C93.5852 19.16 92.1452 18.3 91.2252 17.32L89.9252 19.12C91.1052 20.38 92.8852 21.24 95.3452 21.24ZM105.207 21.24C106.187 21.24 106.807 20.98 107.187 20.62L106.687 19.04C106.527 19.22 106.147 19.38 105.747 19.38C105.147 19.38 104.827 18.9 104.827 18.24V13.18H106.787V11.34H104.827V8.7H102.727V11.34H101.127V13.18H102.727V18.76C102.727 20.36 103.587 21.24 105.207 21.24ZM116.694 21V14.6C116.694 12 114.814 11.1 112.674 11.1C111.134 11.1 109.734 11.6 108.614 12.66L109.474 14.12C110.314 13.3 111.254 12.9 112.334 12.9C113.674 12.9 114.594 13.58 114.594 14.7V16.14C113.894 15.32 112.774 14.9 111.474 14.9C109.894 14.9 108.114 15.82 108.114 18.04C108.114 20.18 109.894 21.24 111.474 21.24C112.754 21.24 113.874 20.78 114.594 19.96V21H116.694ZM112.294 19.8C111.114 19.8 110.234 19.12 110.234 18.08C110.234 17.02 111.114 16.34 112.294 16.34C113.214 16.34 114.114 16.68 114.594 17.34V18.8C114.114 19.46 113.214 19.8 112.294 19.8ZM122.317 21.24C123.297 21.24 123.917 20.98 124.297 20.62L123.797 19.04C123.637 19.22 123.257 19.38 122.857 19.38C122.257 19.38 121.937 18.9 121.937 18.24V13.18H123.897V11.34H121.937V8.7H119.837V11.34H118.237V13.18H119.837V18.76C119.837 20.36 120.697 21.24 122.317 21.24ZM130.263 21.24C131.803 21.24 133.223 20.76 134.183 19.84L133.223 18.46C132.543 19.14 131.423 19.52 130.483 19.52C128.663 19.52 127.563 18.32 127.403 16.86H134.863V16.36C134.863 13.32 133.003 11.1 130.103 11.1C127.243 11.1 125.203 13.36 125.203 16.16C125.203 19.22 127.363 21.24 130.263 21.24ZM132.823 15.38H127.383C127.483 14.2 128.303 12.82 130.103 12.82C132.003 12.82 132.783 14.24 132.823 15.38ZM150.533 21L146.973 16.04L150.313 11.34H147.953L145.673 14.62L143.373 11.34H141.013L144.353 16.04L140.813 21H143.153L145.673 17.44L148.173 21H150.533Z" fill="#111921"/>
<path d="M99.632 73V68.968H104.294V67.526H99.632V65.104H104.392V63.662H97.994V73H99.632ZM107.283 73V68.394C107.577 67.918 108.403 67.498 109.019 67.498C109.201 67.498 109.355 67.512 109.481 67.54V66.084C108.599 66.084 107.787 66.588 107.283 67.232V66.238H105.813V73H107.283ZM111.395 65.412C111.899 65.412 112.305 65.006 112.305 64.502C112.305 63.998 111.899 63.592 111.395 63.592C110.905 63.592 110.485 63.998 110.485 64.502C110.485 65.006 110.905 65.412 111.395 65.412ZM112.137 73V66.238H110.667V73H112.137ZM117.166 73.168C118.244 73.168 119.238 72.832 119.91 72.188L119.238 71.222C118.762 71.698 117.978 71.964 117.32 71.964C116.046 71.964 115.276 71.124 115.164 70.102H120.386V69.752C120.386 67.624 119.084 66.07 117.054 66.07C115.052 66.07 113.624 67.652 113.624 69.612C113.624 71.754 115.136 73.168 117.166 73.168ZM118.958 69.066H115.15C115.22 68.24 115.794 67.274 117.054 67.274C118.384 67.274 118.93 68.268 118.958 69.066ZM127.871 73V68.24C127.871 66.854 127.143 66.07 125.687 66.07C124.623 66.07 123.755 66.63 123.307 67.162V66.238H121.837V73H123.307V68.282C123.643 67.82 124.287 67.372 125.043 67.372C125.869 67.372 126.401 67.722 126.401 68.772V73H127.871ZM136.01 73V63.662H134.54V67.176C133.994 66.462 133.21 66.07 132.37 66.07C130.62 66.07 129.36 67.442 129.36 69.626C129.36 71.852 130.634 73.168 132.37 73.168C133.238 73.168 134.022 72.748 134.54 72.076V73H136.01ZM132.79 71.866C131.628 71.866 130.886 70.928 130.886 69.626C130.886 68.31 131.628 67.372 132.79 67.372C133.49 67.372 134.204 67.778 134.54 68.282V70.97C134.204 71.474 133.49 71.866 132.79 71.866ZM140.225 73.168C142.045 73.168 143.039 72.258 143.039 71.068C143.039 68.38 138.951 69.276 138.951 68.072C138.951 67.596 139.441 67.246 140.211 67.246C141.051 67.246 141.807 67.596 142.213 68.058L142.829 67.022C142.213 66.476 141.345 66.07 140.197 66.07C138.489 66.07 137.537 67.022 137.537 68.128C137.537 70.718 141.625 69.766 141.625 71.096C141.625 71.628 141.177 72.006 140.295 72.006C139.413 72.006 138.475 71.544 137.999 71.054L137.327 72.118C138.027 72.804 139.077 73.168 140.225 73.168Z" fill="#111921"/>
<path d="M21.437 100L17.94 91.329H16.601L13.117 100H14.352L15.119 98.076H19.435L20.202 100H21.437ZM19.11 97.114H15.431L17.277 92.447L19.11 97.114ZM25.3006 100.156C26.4446 100.156 27.1206 99.688 27.6016 99.064L26.9516 98.466C26.5356 99.025 26.0026 99.285 25.3526 99.285C24.0136 99.285 23.1816 98.245 23.1816 96.854C23.1816 95.463 24.0136 94.436 25.3526 94.436C26.0026 94.436 26.5356 94.683 26.9516 95.255L27.6016 94.657C27.1206 94.033 26.4446 93.565 25.3006 93.565C23.4286 93.565 22.1676 94.995 22.1676 96.854C22.1676 98.726 23.4286 100.156 25.3006 100.156ZM31.7372 100.156C32.8812 100.156 33.5572 99.688 34.0382 99.064L33.3882 98.466C32.9722 99.025 32.4392 99.285 31.7892 99.285C30.4502 99.285 29.6182 98.245 29.6182 96.854C29.6182 95.463 30.4502 94.436 31.7892 94.436C32.4392 94.436 32.9722 94.683 33.3882 95.255L34.0382 94.657C33.5572 94.033 32.8812 93.565 31.7372 93.565C29.8652 93.565 28.6042 94.995 28.6042 96.854C28.6042 98.726 29.8652 100.156 31.7372 100.156ZM38.2387 100.156C39.2657 100.156 40.1107 99.818 40.7347 99.194L40.2667 98.557C39.7727 99.064 39.0447 99.35 38.3297 99.35C36.9777 99.35 36.1457 98.362 36.0677 97.179H41.1507V96.932C41.1507 95.047 40.0327 93.565 38.1347 93.565C36.3407 93.565 35.0407 95.034 35.0407 96.854C35.0407 98.817 36.3797 100.156 38.2387 100.156ZM40.1887 96.464H36.0677C36.1197 95.502 36.7827 94.371 38.1217 94.371C39.5517 94.371 40.1757 95.528 40.1887 96.464ZM45.8239 100.156C47.4749 100.156 48.6189 98.882 48.6189 96.854C48.6189 94.813 47.4749 93.565 45.8239 93.565C44.9399 93.565 44.1599 94.02 43.7049 94.657V93.721H42.7299V102.392H43.7049V99.051C44.2119 99.753 44.9659 100.156 45.8239 100.156ZM45.5769 99.285C44.8099 99.285 44.0429 98.817 43.7049 98.271V95.437C44.0429 94.891 44.8099 94.436 45.5769 94.436C46.8379 94.436 47.5919 95.463 47.5919 96.854C47.5919 98.245 46.8379 99.285 45.5769 99.285ZM51.7553 100.156C52.3273 100.156 52.6783 99.987 52.9253 99.753L52.6393 99.025C52.5093 99.168 52.2493 99.285 51.9763 99.285C51.5473 99.285 51.3393 98.947 51.3393 98.479V94.579H52.6133V93.721H51.3393V92.005H50.3643V93.721H49.3243V94.579H50.3643V98.687C50.3643 99.623 50.8323 100.156 51.7553 100.156ZM56.8246 100.156C57.8516 100.156 58.6966 99.818 59.3206 99.194L58.8526 98.557C58.3586 99.064 57.6306 99.35 56.9156 99.35C55.5636 99.35 54.7316 98.362 54.6536 97.179H59.7366V96.932C59.7366 95.047 58.6186 93.565 56.7206 93.565C54.9266 93.565 53.6266 95.034 53.6266 96.854C53.6266 98.817 54.9656 100.156 56.8246 100.156ZM58.7746 96.464H54.6536C54.7056 95.502 55.3686 94.371 56.7076 94.371C58.1376 94.371 58.7616 95.528 58.7746 96.464ZM66.8408 100V91.329H65.8658V94.67C65.3588 93.981 64.5918 93.565 63.7468 93.565C62.0958 93.565 60.9518 94.865 60.9518 96.867C60.9518 98.908 62.1088 100.156 63.7468 100.156C64.6308 100.156 65.3978 99.701 65.8658 99.064V100H66.8408ZM63.9808 99.285C62.7198 99.285 61.9658 98.258 61.9658 96.867C61.9658 95.476 62.7198 94.436 63.9808 94.436C64.7608 94.436 65.5148 94.904 65.8658 95.45V98.297C65.5148 98.843 64.7608 99.285 63.9808 99.285Z" fill="#111921"/>
<path d="M99.093 100V96.555H101.498C103.214 96.555 104.215 95.359 104.215 93.942C104.215 92.525 103.24 91.329 101.498 91.329H98.014V100H99.093ZM101.368 95.593H99.093V92.291H101.368C102.395 92.291 103.097 92.967 103.097 93.942C103.097 94.917 102.395 95.593 101.368 95.593ZM108.274 100.156C109.301 100.156 110.146 99.818 110.77 99.194L110.302 98.557C109.808 99.064 109.08 99.35 108.365 99.35C107.013 99.35 106.181 98.362 106.103 97.179H111.186V96.932C111.186 95.047 110.068 93.565 108.17 93.565C106.376 93.565 105.076 95.034 105.076 96.854C105.076 98.817 106.415 100.156 108.274 100.156ZM110.224 96.464H106.103C106.155 95.502 106.818 94.371 108.157 94.371C109.587 94.371 110.211 95.528 110.224 96.464ZM117.978 100V95.593C117.978 94.228 117.289 93.565 115.976 93.565C115.04 93.565 114.182 94.111 113.74 94.631V93.721H112.765V100H113.74V95.411C114.104 94.904 114.832 94.436 115.599 94.436C116.444 94.436 117.003 94.787 117.003 95.892V100H117.978ZM125.45 100V91.329H124.475V94.67C123.968 93.981 123.201 93.565 122.356 93.565C120.705 93.565 119.561 94.865 119.561 96.867C119.561 98.908 120.718 100.156 122.356 100.156C123.24 100.156 124.007 99.701 124.475 99.064V100H125.45ZM122.59 99.285C121.329 99.285 120.575 98.258 120.575 96.867C120.575 95.476 121.329 94.436 122.59 94.436C123.37 94.436 124.124 94.904 124.475 95.45V98.297C124.124 98.843 123.37 99.285 122.59 99.285ZM127.884 92.824C128.248 92.824 128.547 92.538 128.547 92.174C128.547 91.81 128.248 91.511 127.884 91.511C127.533 91.511 127.234 91.81 127.234 92.174C127.234 92.538 127.533 92.824 127.884 92.824ZM128.378 100V93.721H127.403V100H128.378ZM135.536 100V95.593C135.536 94.228 134.847 93.565 133.534 93.565C132.598 93.565 131.74 94.111 131.298 94.631V93.721H130.323V100H131.298V95.411C131.662 94.904 132.39 94.436 133.157 94.436C134.002 94.436 134.561 94.787 134.561 95.892V100H135.536ZM140.005 102.548C141.539 102.548 142.995 101.898 142.995 99.818V93.721H142.02V94.67C141.513 93.981 140.759 93.565 139.914 93.565C138.263 93.565 137.119 94.813 137.119 96.828C137.119 98.856 138.276 100.078 139.914 100.078C140.798 100.078 141.565 99.597 142.02 98.96V99.857C142.02 101.235 141.045 101.742 140.005 101.742C139.108 101.742 138.484 101.508 137.964 100.884L137.47 101.612C138.211 102.34 138.939 102.548 140.005 102.548ZM140.148 99.22C138.887 99.22 138.133 98.206 138.133 96.828C138.133 95.437 138.887 94.436 140.148 94.436C140.928 94.436 141.682 94.904 142.02 95.45V98.193C141.682 98.739 140.928 99.22 140.148 99.22Z" fill="#111921"/>
<path d="M177.978 100C180.669 100 182.424 98.141 182.424 95.671C182.424 93.214 180.669 91.329 177.978 91.329H175.014V100H177.978ZM177.978 99.038H176.093V92.291H177.978C180.123 92.291 181.306 93.799 181.306 95.671C181.306 97.53 180.084 99.038 177.978 99.038ZM186.912 100.156C187.939 100.156 188.784 99.818 189.408 99.194L188.94 98.557C188.446 99.064 187.718 99.35 187.003 99.35C185.651 99.35 184.819 98.362 184.741 97.179H189.824V96.932C189.824 95.047 188.706 93.565 186.808 93.565C185.014 93.565 183.714 95.034 183.714 96.854C183.714 98.817 185.053 100.156 186.912 100.156ZM188.862 96.464H184.741C184.793 95.502 185.456 94.371 186.795 94.371C188.225 94.371 188.849 95.528 188.862 96.464ZM194.172 100.156C195.316 100.156 195.992 99.688 196.473 99.064L195.823 98.466C195.407 99.025 194.874 99.285 194.224 99.285C192.885 99.285 192.053 98.245 192.053 96.854C192.053 95.463 192.885 94.436 194.224 94.436C194.874 94.436 195.407 94.683 195.823 95.255L196.473 94.657C195.992 94.033 195.316 93.565 194.172 93.565C192.3 93.565 191.039 94.995 191.039 96.854C191.039 98.726 192.3 100.156 194.172 100.156ZM198.814 100V91.329H197.839V100H198.814ZM201.24 92.824C201.604 92.824 201.903 92.538 201.903 92.174C201.903 91.81 201.604 91.511 201.24 91.511C200.889 91.511 200.59 91.81 200.59 92.174C200.59 92.538 200.889 92.824 201.24 92.824ZM201.734 100V93.721H200.759V100H201.734ZM208.892 100V95.593C208.892 94.228 208.203 93.565 206.89 93.565C205.954 93.565 205.096 94.111 204.654 94.631V93.721H203.679V100H204.654V95.411C205.018 94.904 205.746 94.436 206.513 94.436C207.358 94.436 207.917 94.787 207.917 95.892V100H208.892ZM213.673 100.156C214.7 100.156 215.545 99.818 216.169 99.194L215.701 98.557C215.207 99.064 214.479 99.35 213.764 99.35C212.412 99.35 211.58 98.362 211.502 97.179H216.585V96.932C216.585 95.047 215.467 93.565 213.569 93.565C211.775 93.565 210.475 95.034 210.475 96.854C210.475 98.817 211.814 100.156 213.673 100.156ZM215.623 96.464H211.502C211.554 95.502 212.217 94.371 213.556 94.371C214.986 94.371 215.61 95.528 215.623 96.464ZM223.689 100V91.329H222.714V94.67C222.207 93.981 221.44 93.565 220.595 93.565C218.944 93.565 217.8 94.865 217.8 96.867C217.8 98.908 218.957 100.156 220.595 100.156C221.479 100.156 222.246 99.701 222.714 99.064V100H223.689ZM220.829 99.285C219.568 99.285 218.814 98.258 218.814 96.867C218.814 95.476 219.568 94.436 220.829 94.436C221.609 94.436 222.363 94.904 222.714 95.45V98.297C222.363 98.843 221.609 99.285 220.829 99.285Z" fill="#111921"/>
<path d="M28.712 137C30.462 137 31.428 135.922 31.428 134.48C31.428 133.332 30.616 132.338 29.622 132.184C30.49 132.002 31.246 131.218 31.246 130.042C31.246 128.726 30.294 127.662 28.586 127.662H23.994V137H28.712ZM28.25 131.526H25.632V129.104H28.25C29.09 129.104 29.566 129.622 29.566 130.322C29.566 131.022 29.09 131.526 28.25 131.526ZM28.32 135.558H25.632V132.968H28.32C29.258 132.968 29.748 133.556 29.748 134.256C29.748 135.068 29.216 135.558 28.32 135.558ZM36.0821 137.168C38.2521 137.168 39.5681 135.558 39.5681 133.612C39.5681 131.68 38.2521 130.07 36.0821 130.07C33.9401 130.07 32.6101 131.68 32.6101 133.612C32.6101 135.558 33.9401 137.168 36.0821 137.168ZM36.0821 135.866C34.8361 135.866 34.1361 134.816 34.1361 133.612C34.1361 132.422 34.8361 131.372 36.0821 131.372C37.3421 131.372 38.0421 132.422 38.0421 133.612C38.0421 134.816 37.3421 135.866 36.0821 135.866ZM42.5255 134.97V132.296C42.8475 131.792 43.5755 131.372 44.2615 131.372C45.4375 131.372 46.1795 132.31 46.1795 133.626C46.1795 134.942 45.4375 135.866 44.2615 135.866C43.5755 135.866 42.8475 135.474 42.5255 134.97ZM42.5255 137V136.076C43.0435 136.748 43.8135 137.168 44.6955 137.168C46.4175 137.168 47.6915 135.852 47.6915 133.626C47.6915 131.442 46.4315 130.07 44.6955 130.07C43.8415 130.07 43.0575 130.462 42.5255 131.176V127.662H41.0555V137H42.5255Z" fill="#111921"/>
<rect x="11" y="116" width="50" height="34" rx="7" stroke="#111921"/>
<path d="M28.474 183.168C30.364 183.168 31.512 182.188 32.226 181.068L30.826 180.354C30.378 181.138 29.482 181.712 28.474 181.712C26.626 181.712 25.254 180.298 25.254 178.338C25.254 176.378 26.626 174.964 28.474 174.964C29.482 174.964 30.378 175.552 30.826 176.322L32.226 175.608C31.526 174.488 30.364 173.508 28.474 173.508C25.716 173.508 23.574 175.468 23.574 178.338C23.574 181.208 25.716 183.168 28.474 183.168ZM39.095 183V178.52C39.095 176.7 37.779 176.07 36.281 176.07C35.203 176.07 34.223 176.42 33.439 177.162L34.041 178.184C34.629 177.61 35.287 177.33 36.043 177.33C36.981 177.33 37.625 177.806 37.625 178.59V179.598C37.135 179.024 36.351 178.73 35.441 178.73C34.335 178.73 33.089 179.374 33.089 180.928C33.089 182.426 34.335 183.168 35.441 183.168C36.337 183.168 37.121 182.846 37.625 182.272V183H39.095ZM36.015 182.16C35.189 182.16 34.573 181.684 34.573 180.956C34.573 180.214 35.189 179.738 36.015 179.738C36.659 179.738 37.289 179.976 37.625 180.438V181.46C37.289 181.922 36.659 182.16 36.015 182.16ZM42.4708 183V178.394C42.7648 177.918 43.5908 177.498 44.2068 177.498C44.3888 177.498 44.5428 177.512 44.6688 177.54V176.084C43.7868 176.084 42.9748 176.588 42.4708 177.232V176.238H41.0008V183H42.4708ZM48.9063 183.168C51.0763 183.168 52.3923 181.558 52.3923 179.612C52.3923 177.68 51.0763 176.07 48.9063 176.07C46.7643 176.07 45.4343 177.68 45.4343 179.612C45.4343 181.558 46.7643 183.168 48.9063 183.168ZM48.9063 181.866C47.6603 181.866 46.9603 180.816 46.9603 179.612C46.9603 178.422 47.6603 177.372 48.9063 177.372C50.1663 177.372 50.8663 178.422 50.8663 179.612C50.8663 180.816 50.1663 181.866 48.9063 181.866ZM55.3497 183V173.662H53.8797V183H55.3497Z" fill="#111921"/>
<rect x="11" y="162" width="58" height="34" rx="7" stroke="#111921"/>
<path d="M111.466 229C114.378 229 116.352 227.082 116.352 224.338C116.352 221.594 114.378 219.662 111.466 219.662H107.994V229H111.466ZM111.466 227.558H109.632V221.104H111.466C113.552 221.104 114.672 222.532 114.672 224.338C114.672 226.102 113.496 227.558 111.466 227.558ZM123.491 229V224.52C123.491 222.7 122.175 222.07 120.677 222.07C119.599 222.07 118.619 222.42 117.835 223.162L118.437 224.184C119.025 223.61 119.683 223.33 120.439 223.33C121.377 223.33 122.021 223.806 122.021 224.59V225.598C121.531 225.024 120.747 224.73 119.837 224.73C118.731 224.73 117.485 225.374 117.485 226.928C117.485 228.426 118.731 229.168 119.837 229.168C120.733 229.168 121.517 228.846 122.021 228.272V229H123.491ZM120.411 228.16C119.585 228.16 118.969 227.684 118.969 226.956C118.969 226.214 119.585 225.738 120.411 225.738C121.055 225.738 121.685 225.976 122.021 226.438V227.46C121.685 227.922 121.055 228.16 120.411 228.16ZM131.431 229V224.24C131.431 222.854 130.703 222.07 129.247 222.07C128.183 222.07 127.315 222.63 126.867 223.162V222.238H125.397V229H126.867V224.282C127.203 223.82 127.847 223.372 128.603 223.372C129.429 223.372 129.961 223.722 129.961 224.772V229H131.431Z" fill="#111921"/>
<rect x="95" y="208" width="50" height="34" rx="7" stroke="#111921" stroke-dasharray="2 4"/>
<rect x="257" y="203" width="90" height="44" rx="7" fill="#FFE3AC"/>
<path d="M290.012 220.168C292.532 220.168 293.624 218.838 293.624 217.284C293.624 213.798 288.192 214.876 288.192 213.14C288.192 212.44 288.808 211.978 289.774 211.978C290.754 211.978 291.748 212.314 292.476 213.042L293.414 211.824C292.546 210.984 291.37 210.522 289.914 210.522C287.87 210.522 286.512 211.712 286.512 213.252C286.512 216.696 291.958 215.478 291.958 217.438C291.958 218.054 291.426 218.712 290.082 218.712C288.78 218.712 287.772 218.11 287.128 217.424L286.218 218.684C287.044 219.566 288.29 220.168 290.012 220.168ZM296.916 220.168C297.602 220.168 298.036 219.986 298.302 219.734L297.952 218.628C297.84 218.754 297.574 218.866 297.294 218.866C296.874 218.866 296.65 218.53 296.65 218.068V214.526H298.022V213.238H296.65V211.39H295.18V213.238H294.06V214.526H295.18V218.432C295.18 219.552 295.782 220.168 296.916 220.168ZM304.956 220V215.52C304.956 213.7 303.64 213.07 302.142 213.07C301.064 213.07 300.084 213.42 299.3 214.162L299.902 215.184C300.49 214.61 301.148 214.33 301.904 214.33C302.842 214.33 303.486 214.806 303.486 215.59V216.598C302.996 216.024 302.212 215.73 301.302 215.73C300.196 215.73 298.95 216.374 298.95 217.928C298.95 219.426 300.196 220.168 301.302 220.168C302.198 220.168 302.982 219.846 303.486 219.272V220H304.956ZM301.876 219.16C301.05 219.16 300.434 218.684 300.434 217.956C300.434 217.214 301.05 216.738 301.876 216.738C302.52 216.738 303.15 216.976 303.486 217.438V218.46C303.15 218.922 302.52 219.16 301.876 219.16ZM308.892 220.168C309.578 220.168 310.012 219.986 310.278 219.734L309.928 218.628C309.816 218.754 309.55 218.866 309.27 218.866C308.85 218.866 308.626 218.53 308.626 218.068V214.526H309.998V213.238H308.626V211.39H307.156V213.238H306.036V214.526H307.156V218.432C307.156 219.552 307.758 220.168 308.892 220.168ZM314.455 220.168C315.533 220.168 316.527 219.832 317.199 219.188L316.527 218.222C316.051 218.698 315.267 218.964 314.609 218.964C313.335 218.964 312.565 218.124 312.453 217.102H317.675V216.752C317.675 214.624 316.373 213.07 314.343 213.07C312.341 213.07 310.913 214.652 310.913 216.612C310.913 218.754 312.425 220.168 314.455 220.168ZM316.247 216.066H312.439C312.509 215.24 313.083 214.274 314.343 214.274C315.673 214.274 316.219 215.268 316.247 216.066ZM276.295 238V230.104H279.123V228.662H271.829V230.104H274.657V238H276.295ZM280.886 238V233.394C281.18 232.918 282.006 232.498 282.622 232.498C282.804 232.498 282.958 232.512 283.084 232.54V231.084C282.202 231.084 281.39 231.588 280.886 232.232V231.238H279.416V238H280.886ZM289.869 238V233.52C289.869 231.7 288.553 231.07 287.055 231.07C285.977 231.07 284.997 231.42 284.213 232.162L284.815 233.184C285.403 232.61 286.061 232.33 286.817 232.33C287.755 232.33 288.399 232.806 288.399 233.59V234.598C287.909 234.024 287.125 233.73 286.215 233.73C285.109 233.73 283.863 234.374 283.863 235.928C283.863 237.426 285.109 238.168 286.215 238.168C287.111 238.168 287.895 237.846 288.399 237.272V238H289.869ZM286.789 237.16C285.963 237.16 285.347 236.684 285.347 235.956C285.347 235.214 285.963 234.738 286.789 234.738C287.433 234.738 288.063 234.976 288.399 235.438V236.46C288.063 236.922 287.433 237.16 286.789 237.16ZM297.809 238V233.24C297.809 231.854 297.081 231.07 295.625 231.07C294.561 231.07 293.693 231.63 293.245 232.162V231.238H291.775V238H293.245V233.282C293.581 232.82 294.225 232.372 294.981 232.372C295.807 232.372 296.339 232.722 296.339 233.772V238H297.809ZM302.029 238.168C303.849 238.168 304.843 237.258 304.843 236.068C304.843 233.38 300.755 234.276 300.755 233.072C300.755 232.596 301.245 232.246 302.015 232.246C302.855 232.246 303.611 232.596 304.017 233.058L304.633 232.022C304.017 231.476 303.149 231.07 302.001 231.07C300.293 231.07 299.341 232.022 299.341 233.128C299.341 235.718 303.429 234.766 303.429 236.096C303.429 236.628 302.981 237.006 302.099 237.006C301.217 237.006 300.279 236.544 299.803 236.054L299.131 237.118C299.831 237.804 300.881 238.168 302.029 238.168ZM307.05 230.412C307.554 230.412 307.96 230.006 307.96 229.502C307.96 228.998 307.554 228.592 307.05 228.592C306.56 228.592 306.14 228.998 306.14 229.502C306.14 230.006 306.56 230.412 307.05 230.412ZM307.792 238V231.238H306.322V238H307.792ZM311.729 238.168C312.415 238.168 312.849 237.986 313.115 237.734L312.765 236.628C312.653 236.754 312.387 236.866 312.107 236.866C311.687 236.866 311.463 236.53 311.463 236.068V232.526H312.835V231.238H311.463V229.39H309.993V231.238H308.873V232.526H309.993V236.432C309.993 237.552 310.595 238.168 311.729 238.168ZM314.898 230.412C315.402 230.412 315.808 230.006 315.808 229.502C315.808 228.998 315.402 228.592 314.898 228.592C314.408 228.592 313.988 228.998 313.988 229.502C313.988 230.006 314.408 230.412 314.898 230.412ZM315.64 238V231.238H314.17V238H315.64ZM320.599 238.168C322.769 238.168 324.085 236.558 324.085 234.612C324.085 232.68 322.769 231.07 320.599 231.07C318.457 231.07 317.127 232.68 317.127 234.612C317.127 236.558 318.457 238.168 320.599 238.168ZM320.599 236.866C319.353 236.866 318.653 235.816 318.653 234.612C318.653 233.422 319.353 232.372 320.599 232.372C321.859 232.372 322.559 233.422 322.559 234.612C322.559 235.816 321.859 236.866 320.599 236.866ZM331.606 238V233.24C331.606 231.854 330.878 231.07 329.422 231.07C328.358 231.07 327.49 231.63 327.042 232.162V231.238H325.572V238H327.042V233.282C327.378 232.82 328.022 232.372 328.778 232.372C329.604 232.372 330.136 232.722 330.136 233.772V238H331.606Z" fill="#111921"/>
<rect x="257" y="203" width="90" height="44" rx="7" stroke="#111921" stroke-dasharray="2 4"/>
<rect x="370" y="38" width="240" height="224" rx="20" fill="#E9F0FD"/>
<rect x="370" y="86" width="80" height="156" fill="#E9F0FD"/>
<g filter="url(#filter2_d)">
<rect x="450" y="86" width="80" height="156" fill="#E9F0FD"/>
</g>
<g filter="url(#filter3_d)">
<rect x="530" y="86" width="80" height="156" fill="#E9F0FD"/>
</g>
<path d="M457.027 21.24C460.627 21.24 462.187 19.34 462.187 17.12C462.187 12.14 454.427 13.68 454.427 11.2C454.427 10.2 455.307 9.54 456.687 9.54C458.087 9.54 459.507 10.02 460.547 11.06L461.887 9.32C460.647 8.12 458.967 7.46 456.887 7.46C453.967 7.46 452.027 9.16 452.027 11.36C452.027 16.28 459.807 14.54 459.807 17.34C459.807 18.22 459.047 19.16 457.127 19.16C455.267 19.16 453.827 18.3 452.907 17.32L451.607 19.12C452.787 20.38 454.567 21.24 457.027 21.24ZM466.889 21.24C467.869 21.24 468.489 20.98 468.869 20.62L468.369 19.04C468.209 19.22 467.829 19.38 467.429 19.38C466.829 19.38 466.509 18.9 466.509 18.24V13.18H468.469V11.34H466.509V8.7H464.409V11.34H462.809V13.18H464.409V18.76C464.409 20.36 465.269 21.24 466.889 21.24ZM478.376 21V14.6C478.376 12 476.496 11.1 474.356 11.1C472.816 11.1 471.416 11.6 470.296 12.66L471.156 14.12C471.996 13.3 472.936 12.9 474.016 12.9C475.356 12.9 476.276 13.58 476.276 14.7V16.14C475.576 15.32 474.456 14.9 473.156 14.9C471.576 14.9 469.796 15.82 469.796 18.04C469.796 20.18 471.576 21.24 473.156 21.24C474.436 21.24 475.556 20.78 476.276 19.96V21H478.376ZM473.976 19.8C472.796 19.8 471.916 19.12 471.916 18.08C471.916 17.02 472.796 16.34 473.976 16.34C474.896 16.34 475.796 16.68 476.276 17.34V18.8C475.796 19.46 474.896 19.8 473.976 19.8ZM483.998 21.24C484.978 21.24 485.598 20.98 485.978 20.62L485.478 19.04C485.318 19.22 484.938 19.38 484.538 19.38C483.938 19.38 483.618 18.9 483.618 18.24V13.18H485.578V11.34H483.618V8.7H481.518V11.34H479.918V13.18H481.518V18.76C481.518 20.36 482.378 21.24 483.998 21.24ZM491.945 21.24C493.485 21.24 494.905 20.76 495.865 19.84L494.905 18.46C494.225 19.14 493.105 19.52 492.165 19.52C490.345 19.52 489.245 18.32 489.085 16.86H496.545V16.36C496.545 13.32 494.685 11.1 491.785 11.1C488.925 11.1 486.885 13.36 486.885 16.16C486.885 19.22 489.045 21.24 491.945 21.24ZM494.505 15.38H489.065C489.165 14.2 489.985 12.82 491.785 12.82C493.685 12.82 494.465 14.24 494.505 15.38ZM512.215 21L508.655 16.04L511.995 11.34H509.635L507.355 14.62L505.055 11.34H502.695L506.035 16.04L502.495 21H504.835L507.355 17.44L509.855 21H512.215ZM521.776 14.94V13.58H518.076V9.58H516.596V13.58H512.896V14.94H516.596V19.08H518.076V14.94H521.776ZM528.535 21V7.66H526.495L522.655 11.54L524.015 12.96L526.195 10.7V21H528.535Z" fill="#111921"/>
<path d="M469.632 73V68.968H474.294V67.526H469.632V65.104H474.392V63.662H467.994V73H469.632ZM477.283 73V68.394C477.577 67.918 478.403 67.498 479.019 67.498C479.201 67.498 479.355 67.512 479.481 67.54V66.084C478.599 66.084 477.787 66.588 477.283 67.232V66.238H475.813V73H477.283ZM481.395 65.412C481.899 65.412 482.305 65.006 482.305 64.502C482.305 63.998 481.899 63.592 481.395 63.592C480.905 63.592 480.485 63.998 480.485 64.502C480.485 65.006 480.905 65.412 481.395 65.412ZM482.137 73V66.238H480.667V73H482.137ZM487.166 73.168C488.244 73.168 489.238 72.832 489.91 72.188L489.238 71.222C488.762 71.698 487.978 71.964 487.32 71.964C486.046 71.964 485.276 71.124 485.164 70.102H490.386V69.752C490.386 67.624 489.084 66.07 487.054 66.07C485.052 66.07 483.624 67.652 483.624 69.612C483.624 71.754 485.136 73.168 487.166 73.168ZM488.958 69.066H485.15C485.22 68.24 485.794 67.274 487.054 67.274C488.384 67.274 488.93 68.268 488.958 69.066ZM497.871 73V68.24C497.871 66.854 497.143 66.07 495.687 66.07C494.623 66.07 493.755 66.63 493.307 67.162V66.238H491.837V73H493.307V68.282C493.643 67.82 494.287 67.372 495.043 67.372C495.869 67.372 496.401 67.722 496.401 68.772V73H497.871ZM506.01 73V63.662H504.54V67.176C503.994 66.462 503.21 66.07 502.37 66.07C500.62 66.07 499.36 67.442 499.36 69.626C499.36 71.852 500.634 73.168 502.37 73.168C503.238 73.168 504.022 72.748 504.54 72.076V73H506.01ZM502.79 71.866C501.628 71.866 500.886 70.928 500.886 69.626C500.886 68.31 501.628 67.372 502.79 67.372C503.49 67.372 504.204 67.778 504.54 68.282V70.97C504.204 71.474 503.49 71.866 502.79 71.866ZM510.225 73.168C512.045 73.168 513.039 72.258 513.039 71.068C513.039 68.38 508.951 69.276 508.951 68.072C508.951 67.596 509.441 67.246 510.211 67.246C511.051 67.246 511.807 67.596 512.213 68.058L512.829 67.022C512.213 66.476 511.345 66.07 510.197 66.07C508.489 66.07 507.537 67.022 507.537 68.128C507.537 70.718 511.625 69.766 511.625 71.096C511.625 71.628 511.177 72.006 510.295 72.006C509.413 72.006 508.475 71.544 507.999 71.054L507.327 72.118C508.027 72.804 509.077 73.168 510.225 73.168Z" fill="#111921"/>
<path d="M391.437 100L387.94 91.329H386.601L383.117 100H384.352L385.119 98.076H389.435L390.202 100H391.437ZM389.11 97.114H385.431L387.277 92.447L389.11 97.114ZM395.301 100.156C396.445 100.156 397.121 99.688 397.602 99.064L396.952 98.466C396.536 99.025 396.003 99.285 395.353 99.285C394.014 99.285 393.182 98.245 393.182 96.854C393.182 95.463 394.014 94.436 395.353 94.436C396.003 94.436 396.536 94.683 396.952 95.255L397.602 94.657C397.121 94.033 396.445 93.565 395.301 93.565C393.429 93.565 392.168 94.995 392.168 96.854C392.168 98.726 393.429 100.156 395.301 100.156ZM401.737 100.156C402.881 100.156 403.557 99.688 404.038 99.064L403.388 98.466C402.972 99.025 402.439 99.285 401.789 99.285C400.45 99.285 399.618 98.245 399.618 96.854C399.618 95.463 400.45 94.436 401.789 94.436C402.439 94.436 402.972 94.683 403.388 95.255L404.038 94.657C403.557 94.033 402.881 93.565 401.737 93.565C399.865 93.565 398.604 94.995 398.604 96.854C398.604 98.726 399.865 100.156 401.737 100.156ZM408.239 100.156C409.266 100.156 410.111 99.818 410.735 99.194L410.267 98.557C409.773 99.064 409.045 99.35 408.33 99.35C406.978 99.35 406.146 98.362 406.068 97.179H411.151V96.932C411.151 95.047 410.033 93.565 408.135 93.565C406.341 93.565 405.041 95.034 405.041 96.854C405.041 98.817 406.38 100.156 408.239 100.156ZM410.189 96.464H406.068C406.12 95.502 406.783 94.371 408.122 94.371C409.552 94.371 410.176 95.528 410.189 96.464ZM415.824 100.156C417.475 100.156 418.619 98.882 418.619 96.854C418.619 94.813 417.475 93.565 415.824 93.565C414.94 93.565 414.16 94.02 413.705 94.657V93.721H412.73V102.392H413.705V99.051C414.212 99.753 414.966 100.156 415.824 100.156ZM415.577 99.285C414.81 99.285 414.043 98.817 413.705 98.271V95.437C414.043 94.891 414.81 94.436 415.577 94.436C416.838 94.436 417.592 95.463 417.592 96.854C417.592 98.245 416.838 99.285 415.577 99.285ZM421.755 100.156C422.327 100.156 422.678 99.987 422.925 99.753L422.639 99.025C422.509 99.168 422.249 99.285 421.976 99.285C421.547 99.285 421.339 98.947 421.339 98.479V94.579H422.613V93.721H421.339V92.005H420.364V93.721H419.324V94.579H420.364V98.687C420.364 99.623 420.832 100.156 421.755 100.156ZM426.825 100.156C427.852 100.156 428.697 99.818 429.321 99.194L428.853 98.557C428.359 99.064 427.631 99.35 426.916 99.35C425.564 99.35 424.732 98.362 424.654 97.179H429.737V96.932C429.737 95.047 428.619 93.565 426.721 93.565C424.927 93.565 423.627 95.034 423.627 96.854C423.627 98.817 424.966 100.156 426.825 100.156ZM428.775 96.464H424.654C424.706 95.502 425.369 94.371 426.708 94.371C428.138 94.371 428.762 95.528 428.775 96.464ZM436.841 100V91.329H435.866V94.67C435.359 93.981 434.592 93.565 433.747 93.565C432.096 93.565 430.952 94.865 430.952 96.867C430.952 98.908 432.109 100.156 433.747 100.156C434.631 100.156 435.398 99.701 435.866 99.064V100H436.841ZM433.981 99.285C432.72 99.285 431.966 98.258 431.966 96.867C431.966 95.476 432.72 94.436 433.981 94.436C434.761 94.436 435.515 94.904 435.866 95.45V98.297C435.515 98.843 434.761 99.285 433.981 99.285Z" fill="#111921"/>
<path d="M469.093 100V96.555H471.498C473.214 96.555 474.215 95.359 474.215 93.942C474.215 92.525 473.24 91.329 471.498 91.329H468.014V100H469.093ZM471.368 95.593H469.093V92.291H471.368C472.395 92.291 473.097 92.967 473.097 93.942C473.097 94.917 472.395 95.593 471.368 95.593ZM478.274 100.156C479.301 100.156 480.146 99.818 480.77 99.194L480.302 98.557C479.808 99.064 479.08 99.35 478.365 99.35C477.013 99.35 476.181 98.362 476.103 97.179H481.186V96.932C481.186 95.047 480.068 93.565 478.17 93.565C476.376 93.565 475.076 95.034 475.076 96.854C475.076 98.817 476.415 100.156 478.274 100.156ZM480.224 96.464H476.103C476.155 95.502 476.818 94.371 478.157 94.371C479.587 94.371 480.211 95.528 480.224 96.464ZM487.978 100V95.593C487.978 94.228 487.289 93.565 485.976 93.565C485.04 93.565 484.182 94.111 483.74 94.631V93.721H482.765V100H483.74V95.411C484.104 94.904 484.832 94.436 485.599 94.436C486.444 94.436 487.003 94.787 487.003 95.892V100H487.978ZM495.45 100V91.329H494.475V94.67C493.968 93.981 493.201 93.565 492.356 93.565C490.705 93.565 489.561 94.865 489.561 96.867C489.561 98.908 490.718 100.156 492.356 100.156C493.24 100.156 494.007 99.701 494.475 99.064V100H495.45ZM492.59 99.285C491.329 99.285 490.575 98.258 490.575 96.867C490.575 95.476 491.329 94.436 492.59 94.436C493.37 94.436 494.124 94.904 494.475 95.45V98.297C494.124 98.843 493.37 99.285 492.59 99.285ZM497.884 92.824C498.248 92.824 498.547 92.538 498.547 92.174C498.547 91.81 498.248 91.511 497.884 91.511C497.533 91.511 497.234 91.81 497.234 92.174C497.234 92.538 497.533 92.824 497.884 92.824ZM498.378 100V93.721H497.403V100H498.378ZM505.536 100V95.593C505.536 94.228 504.847 93.565 503.534 93.565C502.598 93.565 501.74 94.111 501.298 94.631V93.721H500.323V100H501.298V95.411C501.662 94.904 502.39 94.436 503.157 94.436C504.002 94.436 504.561 94.787 504.561 95.892V100H505.536ZM510.005 102.548C511.539 102.548 512.995 101.898 512.995 99.818V93.721H512.02V94.67C511.513 93.981 510.759 93.565 509.914 93.565C508.263 93.565 507.119 94.813 507.119 96.828C507.119 98.856 508.276 100.078 509.914 100.078C510.798 100.078 511.565 99.597 512.02 98.96V99.857C512.02 101.235 511.045 101.742 510.005 101.742C509.108 101.742 508.484 101.508 507.964 100.884L507.47 101.612C508.211 102.34 508.939 102.548 510.005 102.548ZM510.148 99.22C508.887 99.22 508.133 98.206 508.133 96.828C508.133 95.437 508.887 94.436 510.148 94.436C510.928 94.436 511.682 94.904 512.02 95.45V98.193C511.682 98.739 510.928 99.22 510.148 99.22Z" fill="#111921"/>
<path d="M547.978 100C550.669 100 552.424 98.141 552.424 95.671C552.424 93.214 550.669 91.329 547.978 91.329H545.014V100H547.978ZM547.978 99.038H546.093V92.291H547.978C550.123 92.291 551.306 93.799 551.306 95.671C551.306 97.53 550.084 99.038 547.978 99.038ZM556.912 100.156C557.939 100.156 558.784 99.818 559.408 99.194L558.94 98.557C558.446 99.064 557.718 99.35 557.003 99.35C555.651 99.35 554.819 98.362 554.741 97.179H559.824V96.932C559.824 95.047 558.706 93.565 556.808 93.565C555.014 93.565 553.714 95.034 553.714 96.854C553.714 98.817 555.053 100.156 556.912 100.156ZM558.862 96.464H554.741C554.793 95.502 555.456 94.371 556.795 94.371C558.225 94.371 558.849 95.528 558.862 96.464ZM564.172 100.156C565.316 100.156 565.992 99.688 566.473 99.064L565.823 98.466C565.407 99.025 564.874 99.285 564.224 99.285C562.885 99.285 562.053 98.245 562.053 96.854C562.053 95.463 562.885 94.436 564.224 94.436C564.874 94.436 565.407 94.683 565.823 95.255L566.473 94.657C565.992 94.033 565.316 93.565 564.172 93.565C562.3 93.565 561.039 94.995 561.039 96.854C561.039 98.726 562.3 100.156 564.172 100.156ZM568.814 100V91.329H567.839V100H568.814ZM571.24 92.824C571.604 92.824 571.903 92.538 571.903 92.174C571.903 91.81 571.604 91.511 571.24 91.511C570.889 91.511 570.59 91.81 570.59 92.174C570.59 92.538 570.889 92.824 571.24 92.824ZM571.734 100V93.721H570.759V100H571.734ZM578.892 100V95.593C578.892 94.228 578.203 93.565 576.89 93.565C575.954 93.565 575.096 94.111 574.654 94.631V93.721H573.679V100H574.654V95.411C575.018 94.904 575.746 94.436 576.513 94.436C577.358 94.436 577.917 94.787 577.917 95.892V100H578.892ZM583.673 100.156C584.7 100.156 585.545 99.818 586.169 99.194L585.701 98.557C585.207 99.064 584.479 99.35 583.764 99.35C582.412 99.35 581.58 98.362 581.502 97.179H586.585V96.932C586.585 95.047 585.467 93.565 583.569 93.565C581.775 93.565 580.475 95.034 580.475 96.854C580.475 98.817 581.814 100.156 583.673 100.156ZM585.623 96.464H581.502C581.554 95.502 582.217 94.371 583.556 94.371C584.986 94.371 585.61 95.528 585.623 96.464ZM593.689 100V91.329H592.714V94.67C592.207 93.981 591.44 93.565 590.595 93.565C588.944 93.565 587.8 94.865 587.8 96.867C587.8 98.908 588.957 100.156 590.595 100.156C591.479 100.156 592.246 99.701 592.714 99.064V100H593.689ZM590.829 99.285C589.568 99.285 588.814 98.258 588.814 96.867C588.814 95.476 589.568 94.436 590.829 94.436C591.609 94.436 592.363 94.904 592.714 95.45V98.297C592.363 98.843 591.609 99.285 590.829 99.285Z" fill="#111921"/>
<path d="M398.712 137C400.462 137 401.428 135.922 401.428 134.48C401.428 133.332 400.616 132.338 399.622 132.184C400.49 132.002 401.246 131.218 401.246 130.042C401.246 128.726 400.294 127.662 398.586 127.662H393.994V137H398.712ZM398.25 131.526H395.632V129.104H398.25C399.09 129.104 399.566 129.622 399.566 130.322C399.566 131.022 399.09 131.526 398.25 131.526ZM398.32 135.558H395.632V132.968H398.32C399.258 132.968 399.748 133.556 399.748 134.256C399.748 135.068 399.216 135.558 398.32 135.558ZM406.082 137.168C408.252 137.168 409.568 135.558 409.568 133.612C409.568 131.68 408.252 130.07 406.082 130.07C403.94 130.07 402.61 131.68 402.61 133.612C402.61 135.558 403.94 137.168 406.082 137.168ZM406.082 135.866C404.836 135.866 404.136 134.816 404.136 133.612C404.136 132.422 404.836 131.372 406.082 131.372C407.342 131.372 408.042 132.422 408.042 133.612C408.042 134.816 407.342 135.866 406.082 135.866ZM412.526 134.97V132.296C412.848 131.792 413.576 131.372 414.262 131.372C415.438 131.372 416.18 132.31 416.18 133.626C416.18 134.942 415.438 135.866 414.262 135.866C413.576 135.866 412.848 135.474 412.526 134.97ZM412.526 137V136.076C413.044 136.748 413.814 137.168 414.696 137.168C416.418 137.168 417.692 135.852 417.692 133.626C417.692 131.442 416.432 130.07 414.696 130.07C413.842 130.07 413.058 130.462 412.526 131.176V127.662H411.056V137H412.526Z" fill="#111921"/>
<rect x="381" y="116" width="50" height="34" rx="7" stroke="#111921"/>
<path d="M398.474 183.168C400.364 183.168 401.512 182.188 402.226 181.068L400.826 180.354C400.378 181.138 399.482 181.712 398.474 181.712C396.626 181.712 395.254 180.298 395.254 178.338C395.254 176.378 396.626 174.964 398.474 174.964C399.482 174.964 400.378 175.552 400.826 176.322L402.226 175.608C401.526 174.488 400.364 173.508 398.474 173.508C395.716 173.508 393.574 175.468 393.574 178.338C393.574 181.208 395.716 183.168 398.474 183.168ZM409.095 183V178.52C409.095 176.7 407.779 176.07 406.281 176.07C405.203 176.07 404.223 176.42 403.439 177.162L404.041 178.184C404.629 177.61 405.287 177.33 406.043 177.33C406.981 177.33 407.625 177.806 407.625 178.59V179.598C407.135 179.024 406.351 178.73 405.441 178.73C404.335 178.73 403.089 179.374 403.089 180.928C403.089 182.426 404.335 183.168 405.441 183.168C406.337 183.168 407.121 182.846 407.625 182.272V183H409.095ZM406.015 182.16C405.189 182.16 404.573 181.684 404.573 180.956C404.573 180.214 405.189 179.738 406.015 179.738C406.659 179.738 407.289 179.976 407.625 180.438V181.46C407.289 181.922 406.659 182.16 406.015 182.16ZM412.471 183V178.394C412.765 177.918 413.591 177.498 414.207 177.498C414.389 177.498 414.543 177.512 414.669 177.54V176.084C413.787 176.084 412.975 176.588 412.471 177.232V176.238H411.001V183H412.471ZM418.906 183.168C421.076 183.168 422.392 181.558 422.392 179.612C422.392 177.68 421.076 176.07 418.906 176.07C416.764 176.07 415.434 177.68 415.434 179.612C415.434 181.558 416.764 183.168 418.906 183.168ZM418.906 181.866C417.66 181.866 416.96 180.816 416.96 179.612C416.96 178.422 417.66 177.372 418.906 177.372C420.166 177.372 420.866 178.422 420.866 179.612C420.866 180.816 420.166 181.866 418.906 181.866ZM425.35 183V173.662H423.88V183H425.35Z" fill="#111921"/>
<rect x="381" y="162" width="58" height="34" rx="7" stroke="#111921"/>
<path d="M561.466 229C564.378 229 566.352 227.082 566.352 224.338C566.352 221.594 564.378 219.662 561.466 219.662H557.994V229H561.466ZM561.466 227.558H559.632V221.104H561.466C563.552 221.104 564.672 222.532 564.672 224.338C564.672 226.102 563.496 227.558 561.466 227.558ZM573.491 229V224.52C573.491 222.7 572.175 222.07 570.677 222.07C569.599 222.07 568.619 222.42 567.835 223.162L568.437 224.184C569.025 223.61 569.683 223.33 570.439 223.33C571.377 223.33 572.021 223.806 572.021 224.59V225.598C571.531 225.024 570.747 224.73 569.837 224.73C568.731 224.73 567.485 225.374 567.485 226.928C567.485 228.426 568.731 229.168 569.837 229.168C570.733 229.168 571.517 228.846 572.021 228.272V229H573.491ZM570.411 228.16C569.585 228.16 568.969 227.684 568.969 226.956C568.969 226.214 569.585 225.738 570.411 225.738C571.055 225.738 571.685 225.976 572.021 226.438V227.46C571.685 227.922 571.055 228.16 570.411 228.16ZM581.431 229V224.24C581.431 222.854 580.703 222.07 579.247 222.07C578.183 222.07 577.315 222.63 576.867 223.162V222.238H575.397V229H576.867V224.282C577.203 223.82 577.847 223.372 578.603 223.372C579.429 223.372 579.961 223.722 579.961 224.772V229H581.431Z" fill="#111921"/>
<rect x="545" y="208" width="50" height="34" rx="7" stroke="#111921" stroke-dasharray="2 4"/>
<path d="M545 225L537.5 220.67V229.33L545 225ZM347 225.75L538.25 225.75V224.25L347 224.25V225.75Z" fill="black"/>
<path d="M145 225H257" stroke="black" stroke-width="1.5"/>
<defs>
<filter id="filter0_d" x="79" y="86" width="81" height="156" filterUnits="userSpaceOnUse" color-interpolation-filters="sRGB">
<feFlood flood-opacity="0" result="BackgroundImageFix"/>
<feColorMatrix in="SourceAlpha" type="matrix" values="0 0 0 0 0 0 0 0 0 0 0 0 0 0 0 0 0 0 127 0"/>
<feOffset dx="-1"/>
<feColorMatrix type="matrix" values="0 0 0 0 0 0 0 0 0 0 0 0 0 0 0 0 0 0 0.1 0"/>
<feBlend mode="normal" in2="BackgroundImageFix" result="effect1_dropShadow"/>
<feBlend mode="normal" in="SourceGraphic" in2="effect1_dropShadow" result="shape"/>
</filter>
<filter id="filter1_d" x="159" y="86" width="81" height="156" filterUnits="userSpaceOnUse" color-interpolation-filters="sRGB">
<feFlood flood-opacity="0" result="BackgroundImageFix"/>
<feColorMatrix in="SourceAlpha" type="matrix" values="0 0 0 0 0 0 0 0 0 0 0 0 0 0 0 0 0 0 127 0"/>
<feOffset dx="-1"/>
<feColorMatrix type="matrix" values="0 0 0 0 0 0 0 0 0 0 0 0 0 0 0 0 0 0 0.1 0"/>
<feBlend mode="normal" in2="BackgroundImageFix" result="effect1_dropShadow"/>
<feBlend mode="normal" in="SourceGraphic" in2="effect1_dropShadow" result="shape"/>
</filter>
<filter id="filter2_d" x="449" y="86" width="81" height="156" filterUnits="userSpaceOnUse" color-interpolation-filters="sRGB">
<feFlood flood-opacity="0" result="BackgroundImageFix"/>
<feColorMatrix in="SourceAlpha" type="matrix" values="0 0 0 0 0 0 0 0 0 0 0 0 0 0 0 0 0 0 127 0"/>
<feOffset dx="-1"/>
<feColorMatrix type="matrix" values="0 0 0 0 0 0 0 0 0 0 0 0 0 0 0 0 0 0 0.1 0"/>
<feBlend mode="normal" in2="BackgroundImageFix" result="effect1_dropShadow"/>
<feBlend mode="normal" in="SourceGraphic" in2="effect1_dropShadow" result="shape"/>
</filter>
<filter id="filter3_d" x="529" y="86" width="81" height="156" filterUnits="userSpaceOnUse" color-interpolation-filters="sRGB">
<feFlood flood-opacity="0" result="BackgroundImageFix"/>
<feColorMatrix in="SourceAlpha" type="matrix" values="0 0 0 0 0 0 0 0 0 0 0 0 0 0 0 0 0 0 127 0"/>
<feOffset dx="-1"/>
<feColorMatrix type="matrix" values="0 0 0 0 0 0 0 0 0 0 0 0 0 0 0 0 0 0 0.1 0"/>
<feBlend mode="normal" in2="BackgroundImageFix" result="effect1_dropShadow"/>
<feBlend mode="normal" in="SourceGraphic" in2="effect1_dropShadow" result="shape"/>
</filter>
</defs>
</svg>
